STARTFONT 2.1
FONT -FreeType-Montserrat Medium-Medium-R-Normal--25-240-75-75-P-158-ISO10646-1
SIZE 18 100 100
FONTBOUNDINGBOX 61 33 -21 -6
COMMENT "Generated by fontforge, http://fontforge.sourceforge.net"
COMMENT ""
COMMENT "Converted from OpenType font "Montserrat-Medium.otf" by "otf2bdf 3.0"."
COMMENT ""
STARTPROPERTIES 19
FOUNDRY "FreeType"
FAMILY_NAME "Montserrat Medium"
WEIGHT_NAME "Medium"
SLANT "R"
SETWIDTH_NAME "Normal"
ADD_STYLE_NAME ""
PIXEL_SIZE 25
POINT_SIZE 240
RESOLUTION_X 75
RESOLUTION_Y 75
SPACING "P"
AVERAGE_WIDTH 139
CHARSET_REGISTRY "ISO10646"
CHARSET_ENCODING "1"
FONT_ASCENT 24
FONT_DESCENT 6
COPYRIGHT "Copyright 2011 The Montserrat Project Authors (https://github.com/JulietaUla/Montserrat)"
_OTF_FONTFILE "Montserrat-Medium.otf"
_OTF_PSNAME "Montserrat-Medium"
ENDPROPERTIES
CHARS 961
STARTCHAR space
ENCODING 32
SWIDTH 1000 0
DWIDTH 25 0
BBX 1 1 9 0
BITMAP
00
ENDCHAR
STARTCHAR $0021
ENCODING 33
SWIDTH 280 0
DWIDTH 7 0
BBX 3 18 2 0
BITMAP
E0
E0
E0
E0
E0
E0
E0
E0
E0
E0
E0
40
00
00
00
E0
E0
E0
ENDCHAR
STARTCHAR $0022
ENCODING 34
SWIDTH 400 0
DWIDTH 10 0
BBX 6 7 2 11
BITMAP
CC
CC
CC
CC
CC
CC
CC
ENDCHAR
STARTCHAR $0023
ENCODING 35
SWIDTH 720 0
DWIDTH 18 0
BBX 16 18 1 0
BITMAP
0C18
0C18
0C18
0C18
0C18
FFFF
FFFF
1830
1830
1830
1830
FFFE
FFFE
3060
3060
3060
3060
3060
ENDCHAR
STARTCHAR $0024
ENCODING 36
SWIDTH 640 0
DWIDTH 16 0
BBX 13 24 1 -3
BITMAP
0300
0300
0300
0FE0
3FF8
7B30
6300
E300
E300
7300
7F00
3FC0
0FF0
03F8
0338
0318
0318
4318
F378
7FF0
1FC0
0300
0300
0300
ENDCHAR
STARTCHAR $0025
ENCODING 37
SWIDTH 840 0
DWIDTH 21 0
BBX 19 18 1 0
BITMAP
3C0300
7E0200
E70600
C30C00
C30800
C31800
E73000
7E2000
3C6000
00C780
008FC0
019CE0
031860
031860
061860
0C1CE0
0C0FC0
180780
ENDCHAR
STARTCHAR $0026
ENCODING 38
SWIDTH 680 0
DWIDTH 17 0
BBX 16 18 1 0
BITMAP
0780
1FE0
1860
3860
3860
18E0
1DC0
0F80
0F00
3B80
71C6
60EE
E07C
E03C
E01C
707E
3FE7
1F82
ENDCHAR
STARTCHAR $0027
ENCODING 39
SWIDTH 200 0
DWIDTH 5 0
BBX 2 7 2 11
BITMAP
C0
C0
C0
C0
C0
C0
C0
ENDCHAR
STARTCHAR $0028
ENCODING 40
SWIDTH 320 0
DWIDTH 8 0
BBX 5 24 2 -5
BITMAP
18
38
30
70
70
60
E0
E0
C0
C0
C0
C0
C0
C0
C0
C0
E0
E0
60
70
70
30
38
18
ENDCHAR
STARTCHAR $0029
ENCODING 41
SWIDTH 320 0
DWIDTH 8 0
BBX 5 24 1 -5
BITMAP
C0
E0
60
70
70
30
38
38
18
18
18
18
18
18
18
18
38
38
30
30
70
60
E0
C0
ENDCHAR
STARTCHAR $002A
ENCODING 42
SWIDTH 400 0
DWIDTH 10 0
BBX 8 10 1 9
BITMAP
18
18
DB
FF
3C
3C
FF
DB
18
18
ENDCHAR
STARTCHAR $002B
ENCODING 43
SWIDTH 600 0
DWIDTH 15 0
BBX 10 10 2 4
BITMAP
0C00
0C00
0C00
0C00
FFC0
FFC0
0C00
0C00
0C00
0C00
ENDCHAR
STARTCHAR $002C
ENCODING 44
SWIDTH 240 0
DWIDTH 6 0
BBX 3 7 1 -4
BITMAP
E0
E0
E0
60
60
40
C0
ENDCHAR
STARTCHAR $002D
ENCODING 45
SWIDTH 400 0
DWIDTH 10 0
BBX 7 2 1 6
BITMAP
FE
FE
ENDCHAR
STARTCHAR $002E
ENCODING 46
SWIDTH 240 0
DWIDTH 6 0
BBX 3 3 1 0
BITMAP
E0
E0
60
ENDCHAR
STARTCHAR $002F
ENCODING 47
SWIDTH 360 0
DWIDTH 9 0
BBX 11 24 -1 -3
BITMAP
00E0
00C0
00C0
01C0
0180
0180
0380
0300
0300
0700
0600
0600
0C00
0C00
0C00
1800
1800
1800
3000
3000
3000
6000
6000
E000
ENDCHAR
STARTCHAR $0030
ENCODING 48
SWIDTH 680 0
DWIDTH 17 0
BBX 15 18 1 0
BITMAP
07C0
1FF0
3C78
7018
701C
600C
E00E
E00E
E00E
E00E
E00E
E00E
600C
701C
7018
3C78
1FF0
07C0
ENDCHAR
STARTCHAR $0031
ENCODING 49
SWIDTH 360 0
DWIDTH 9 0
BBX 7 18 0 0
BITMAP
FE
FE
0E
0E
0E
0E
0E
0E
0E
0E
0E
0E
0E
0E
0E
0E
0E
0E
ENDCHAR
STARTCHAR $0032
ENCODING 50
SWIDTH 560 0
DWIDTH 14 0
BBX 12 18 1 0
BITMAP
1F80
7FC0
F1E0
C070
0070
0070
0070
0060
00E0
01C0
0380
0700
0E00
1C00
3800
7000
FFF0
FFF0
ENDCHAR
STARTCHAR $0033
ENCODING 51
SWIDTH 560 0
DWIDTH 14 0
BBX 13 18 0 0
BITMAP
7FF0
7FF0
0070
00E0
01C0
0380
0300
07C0
07F0
0078
0038
0018
0018
0018
C038
F8F0
7FE0
1FC0
ENDCHAR
STARTCHAR $0034
ENCODING 52
SWIDTH 680 0
DWIDTH 17 0
BBX 15 18 1 0
BITMAP
00E0
00E0
01C0
0380
0700
0600
0E00
1C30
3830
7030
6030
FFFE
FFFE
0030
0030
0030
0030
0030
ENDCHAR
STARTCHAR $0035
ENCODING 53
SWIDTH 560 0
DWIDTH 14 0
BBX 12 18 1 0
BITMAP
3FE0
7FE0
7000
7000
6000
6000
6000
7F80
7FE0
01F0
0070
0030
0030
0030
0070
F1F0
FFE0
3F80
ENDCHAR
STARTCHAR $0036
ENCODING 54
SWIDTH 600 0
DWIDTH 15 0
BBX 13 18 1 0
BITMAP
07E0
1FF0
3C30
7000
6000
C000
C000
C7C0
DFF0
F878
F038
E018
E018
E018
7038
7870
3FE0
1FC0
ENDCHAR
STARTCHAR $0037
ENCODING 55
SWIDTH 600 0
DWIDTH 15 0
BBX 13 18 1 0
BITMAP
FFF8
FFF8
C038
C038
C070
0070
00E0
00E0
01C0
01C0
0380
0380
0700
0700
0E00
0E00
1C00
1C00
ENDCHAR
STARTCHAR $0038
ENCODING 56
SWIDTH 640 0
DWIDTH 16 0
BBX 14 18 1 0
BITMAP
0FC0
3FF0
7878
7038
6018
6018
7038
3870
1FF0
3FF0
7038
E01C
E01C
E01C
E01C
7038
3FF0
1FE0
ENDCHAR
STARTCHAR $0039
ENCODING 57
SWIDTH 600 0
DWIDTH 15 0
BBX 13 18 1 0
BITMAP
1F80
3FE0
70F0
E070
C038
C038
C038
E078
F0F8
7FD8
1F18
0018
0038
0030
0070
61E0
7FC0
3F00
ENDCHAR
STARTCHAR $003A
ENCODING 58
SWIDTH 240 0
DWIDTH 6 0
BBX 3 13 1 0
BITMAP
E0
E0
E0
00
00
00
00
00
00
00
E0
E0
E0
ENDCHAR
STARTCHAR $003B
ENCODING 59
SWIDTH 240 0
DWIDTH 6 0
BBX 3 17 1 -4
BITMAP
E0
E0
E0
00
00
00
00
00
00
00
E0
E0
E0
60
60
40
C0
ENDCHAR
STARTCHAR $003C
ENCODING 60
SWIDTH 600 0
DWIDTH 15 0
BBX 12 11 2 3
BITMAP
0030
00F0
07C0
3F00
F800
C000
F800
3F00
07C0
00F0
0030
ENDCHAR
STARTCHAR $003D
ENCODING 61
SWIDTH 600 0
DWIDTH 15 0
BBX 11 8 2 5
BITMAP
FFE0
FFE0
0000
0000
0000
0000
FFE0
FFE0
ENDCHAR
STARTCHAR $003E
ENCODING 62
SWIDTH 600 0
DWIDTH 15 0
BBX 12 11 1 3
BITMAP
C000
F000
3E00
0FC0
01F0
0030
01F0
0FC0
3E00
F000
C000
ENDCHAR
STARTCHAR $003F
ENCODING 63
SWIDTH 560 0
DWIDTH 14 0
BBX 12 18 1 0
BITMAP
1F80
7FC0
F1E0
C070
C070
0070
0060
00E0
01C0
0380
0700
0600
0600
0000
0000
0600
0F00
0600
ENDCHAR
STARTCHAR $0040
ENCODING 64
SWIDTH 1040 0
DWIDTH 26 0
BBX 24 23 1 -5
BITMAP
00FF00
03FFC0
0F00F0
1C0038
38001C
307CCC
60FEC6
61C3C6
4301C2
C300C3
C700C3
C700C3
C700C3
C300C2
4381C6
61C3E6
61FEFC
307C78
380000
1C0000
0F0080
03FF80
00FE00
ENDCHAR
STARTCHAR $0041
ENCODING 65
SWIDTH 720 0
DWIDTH 18 0
BBX 18 18 0 0
BITMAP
00C000
01E000
01E000
033000
033000
073800
061800
061C00
0C0C00
0C0E00
180600
1FFE00
3FFF00
300300
700380
600180
E001C0
C000C0
ENDCHAR
STARTCHAR $0042
ENCODING 66
SWIDTH 760 0
DWIDTH 19 0
BBX 15 18 3 0
BITMAP
FFE0
FFF0
C038
C01C
C01C
C01C
C018
C038
FFF0
FFF8
C01C
C00C
C00E
C00E
C00E
C01C
FFF8
FFE0
ENDCHAR
STARTCHAR $0043
ENCODING 67
SWIDTH 720 0
DWIDTH 18 0
BBX 16 18 1 0
BITMAP
03F8
0FFE
1F1F
3802
7000
7000
6000
E000
E000
E000
E000
6000
7000
7000
3C02
1F0F
0FFE
03F8
ENDCHAR
STARTCHAR $0044
ENCODING 68
SWIDTH 840 0
DWIDTH 21 0
BBX 16 18 3 0
BITMAP
FFE0
FFF8
C07C
C01E
C00E
C007
C003
C003
C003
C003
C003
C003
C007
C00E
C01E
C07C
FFF8
FFE0
ENDCHAR
STARTCHAR $0045
ENCODING 69
SWIDTH 680 0
DWIDTH 17 0
BBX 12 18 3 0
BITMAP
FFF0
FFF0
C000
C000
C000
C000
C000
C000
FFE0
FFE0
C000
C000
C000
C000
C000
C000
FFF0
FFF0
ENDCHAR
STARTCHAR $0046
ENCODING 70
SWIDTH 640 0
DWIDTH 16 0
BBX 12 18 3 0
BITMAP
FFF0
FFF0
C000
C000
C000
C000
C000
C000
C000
FFE0
FFE0
C000
C000
C000
C000
C000
C000
C000
ENDCHAR
STARTCHAR $0047
ENCODING 71
SWIDTH 760 0
DWIDTH 19 0
BBX 16 18 1 0
BITMAP
03F8
0FFE
1F0F
3803
7000
7000
6000
E000
E000
E01F
E01F
6003
7003
7003
3C03
1F0F
0FFE
03F8
ENDCHAR
STARTCHAR $0048
ENCODING 72
SWIDTH 800 0
DWIDTH 20 0
BBX 14 18 3 0
BITMAP
C00C
C00C
C00C
C00C
C00C
C00C
C00C
C00C
FFFC
FFFC
C00C
C00C
C00C
C00C
C00C
C00C
C00C
C00C
ENDCHAR
STARTCHAR $0049
ENCODING 73
SWIDTH 320 0
DWIDTH 8 0
BBX 2 18 3 0
BITMAP
C0
C0
C0
C0
C0
C0
C0
C0
C0
C0
C0
C0
C0
C0
C0
C0
C0
C0
ENDCHAR
STARTCHAR $004A
ENCODING 74
SWIDTH 520 0
DWIDTH 13 0
BBX 10 18 0 0
BITMAP
3FC0
3FC0
00C0
00C0
00C0
00C0
00C0
00C0
00C0
00C0
00C0
00C0
00C0
00C0
40C0
E1C0
7F80
3F00
ENDCHAR
STARTCHAR $004B
ENCODING 75
SWIDTH 720 0
DWIDTH 18 0
BBX 15 18 3 0
BITMAP
C00C
C01C
C038
C070
C0E0
C1C0
C380
C700
CE00
DF00
FB80
F1C0
E0E0
C070
C038
C01C
C00E
C006
ENDCHAR
STARTCHAR $004C
ENCODING 76
SWIDTH 600 0
DWIDTH 15 0
BBX 12 18 3 0
BITMAP
C000
C000
C000
C000
C000
C000
C000
C000
C000
C000
C000
C000
C000
C000
C000
C000
FFF0
FFF0
ENDCHAR
STARTCHAR $004D
ENCODING 77
SWIDTH 960 0
DWIDTH 24 0
BBX 18 18 3 0
BITMAP
C000C0
E001C0
E001C0
F003C0
F003C0
F806C0
D80EC0
DC0CC0
CE1CC0
C618C0
C738C0
C330C0
C3E0C0
C1E0C0
C0C0C0
C0C0C0
C000C0
C000C0
ENDCHAR
STARTCHAR $004E
ENCODING 78
SWIDTH 800 0
DWIDTH 20 0
BBX 14 18 3 0
BITMAP
C00C
E00C
F00C
F00C
F80C
DC0C
CE0C
CF0C
C70C
C38C
C1CC
C1EC
C0EC
C07C
C03C
C01C
C01C
C00C
ENDCHAR
STARTCHAR $004F
ENCODING 79
SWIDTH 840 0
DWIDTH 21 0
BBX 19 18 1 0
BITMAP
03F800
0FFE00
1E0F00
380380
7001C0
7001C0
E000E0
E000E0
E000E0
E000E0
E000E0
E000E0
7001C0
7001C0
380380
1E0F00
0FFE00
03F800
ENDCHAR
STARTCHAR $0050
ENCODING 80
SWIDTH 720 0
DWIDTH 18 0
BBX 14 18 3 0
BITMAP
FFC0
FFF0
C078
C038
C01C
C01C
C01C
C01C
C038
C078
FFF0
FFC0
C000
C000
C000
C000
C000
C000
ENDCHAR
STARTCHAR $0051
ENCODING 81
SWIDTH 840 0
DWIDTH 21 0
BBX 19 22 1 -4
BITMAP
03F800
0FFE00
1F1F00
3C0780
7803C0
7001C0
E000E0
E000E0
E000E0
E000E0
E000E0
E000E0
7000C0
7001C0
380380
1E0700
0FFE00
07FC00
007020
003C60
001FE0
0007C0
ENDCHAR
STARTCHAR $0052
ENCODING 82
SWIDTH 720 0
DWIDTH 18 0
BBX 14 18 3 0
BITMAP
FFC0
FFF0
C078
C038
C01C
C01C
C01C
C01C
C018
C078
FFF0
FFC0
C0C0
C0E0
C070
C030
C038
C01C
ENDCHAR
STARTCHAR $0053
ENCODING 83
SWIDTH 640 0
DWIDTH 16 0
BBX 13 18 1 0
BITMAP
0FC0
3FF8
7830
6000
6000
E000
7000
7C00
3F80
0FF0
00F8
0038
0018
0018
4018
F078
7FF0
1FC0
ENDCHAR
STARTCHAR $0054
ENCODING 84
SWIDTH 600 0
DWIDTH 15 0
BBX 15 18 0 0
BITMAP
FFFE
FFFE
0380
0380
0380
0380
0380
0380
0380
0380
0380
0380
0380
0380
0380
0380
0380
0380
ENDCHAR
STARTCHAR $0055
ENCODING 85
SWIDTH 800 0
DWIDTH 20 0
BBX 15 18 2 0
BITMAP
E006
E006
E006
E006
E006
E006
E006
E006
E006
E006
E006
6006
6006
700E
701C
3C3C
1FF8
07E0
ENDCHAR
STARTCHAR $0056
ENCODING 86
SWIDTH 720 0
DWIDTH 18 0
BBX 18 18 0 0
BITMAP
E001C0
600180
700380
700300
380700
380600
180600
1C0E00
0C0C00
0E1C00
0E1800
073800
073000
033000
03F000
01E000
01E000
01C000
ENDCHAR
STARTCHAR $0057
ENCODING 87
SWIDTH 1120 0
DWIDTH 28 0
BBX 26 18 1 0
BITMAP
E00C00C0
E00E01C0
601E01C0
601E0180
701F0180
30330380
30330300
38338300
18618700
18618600
1C61C600
0CC0CE00
0CC0CC00
0EC0EC00
0F807C00
07807800
07807800
07003800
ENDCHAR
STARTCHAR $0058
ENCODING 88
SWIDTH 680 0
DWIDTH 17 0
BBX 15 18 1 0
BITMAP
E00E
701C
7018
3838
1C70
0CE0
0EC0
07C0
0380
0780
07C0
0EE0
1C70
1870
3838
701C
E00C
E00E
ENDCHAR
STARTCHAR $0059
ENCODING 89
SWIDTH 640 0
DWIDTH 16 0
BBX 16 18 0 0
BITMAP
E007
6006
700E
380C
181C
1C18
0C30
0E70
0760
03E0
03C0
0180
0180
0180
0180
0180
0180
0180
ENDCHAR
STARTCHAR $005A
ENCODING 90
SWIDTH 640 0
DWIDTH 16 0
BBX 15 18 1 0
BITMAP
FFFC
FFFC
001C
0038
0070
00E0
00E0
01C0
0380
0700
0700
0E00
1C00
3800
7000
7000
FFFE
FFFE
ENDCHAR
STARTCHAR $005B
ENCODING 91
SWIDTH 320 0
DWIDTH 8 0
BBX 6 24 2 -5
BITMAP
FC
FC
E0
E0
E0
E0
E0
E0
E0
E0
E0
E0
E0
E0
E0
E0
E0
E0
E0
E0
E0
E0
FC
FC
ENDCHAR
STARTCHAR $005C
ENCODING 92
SWIDTH 360 0
DWIDTH 9 0
BBX 10 24 -1 -3
BITMAP
C000
E000
6000
6000
7000
3000
3000
1800
1800
1800
0C00
0C00
0C00
0600
0600
0700
0300
0300
0380
0180
0180
01C0
00C0
00C0
ENDCHAR
STARTCHAR $005D
ENCODING 93
SWIDTH 320 0
DWIDTH 8 0
BBX 6 24 0 -5
BITMAP
FC
FC
1C
1C
1C
1C
1C
1C
1C
1C
1C
1C
1C
1C
1C
1C
1C
1C
1C
1C
1C
1C
FC
FC
ENDCHAR
STARTCHAR $005E
ENCODING 94
SWIDTH 600 0
DWIDTH 15 0
BBX 10 10 2 4
BITMAP
0E00
0E00
1A00
1B00
3300
3180
2180
6080
60C0
C0C0
ENDCHAR
STARTCHAR $005F
ENCODING 95
SWIDTH 520 0
DWIDTH 13 0
BBX 12 2 0 -2
BITMAP
FFF0
FFF0
ENDCHAR
STARTCHAR $0060
ENCODING 96
SWIDTH 600 0
DWIDTH 15 0
BBX 5 3 4 15
BITMAP
E0
70
38
ENDCHAR
STARTCHAR $0061
ENCODING 97
SWIDTH 600 0
DWIDTH 15 0
BBX 12 13 1 0
BITMAP
1F80
7FE0
60E0
0070
0070
0FF0
7FF0
6070
E070
E070
E0F0
7FF0
1F70
ENDCHAR
STARTCHAR $0062
ENCODING 98
SWIDTH 680 0
DWIDTH 17 0
BBX 14 19 2 0
BITMAP
E000
E000
E000
E000
E000
E000
E7C0
FFF0
F878
F038
E03C
E01C
E01C
E01C
E03C
F038
F878
FFF0
E7C0
ENDCHAR
STARTCHAR $0063
ENCODING 99
SWIDTH 560 0
DWIDTH 14 0
BBX 12 13 1 0
BITMAP
0FC0
3FE0
7870
7020
E000
E000
C000
E000
E000
7020
7870
3FE0
0FC0
ENDCHAR
STARTCHAR $0064
ENCODING 100
SWIDTH 680 0
DWIDTH 17 0
BBX 14 19 1 0
BITMAP
001C
001C
001C
001C
001C
001C
0F9C
3FFC
787C
703C
E01C
E01C
C01C
E01C
E01C
703C
787C
3FFC
0F9C
ENDCHAR
STARTCHAR $0065
ENCODING 101
SWIDTH 600 0
DWIDTH 15 0
BBX 13 13 1 0
BITMAP
0F80
3FE0
7070
6038
E018
FFF8
FFF8
E000
E000
7000
7870
3FF0
0FC0
ENDCHAR
STARTCHAR $0066
ENCODING 102
SWIDTH 360 0
DWIDTH 9 0
BBX 9 19 0 0
BITMAP
0780
0F80
1C00
1800
1800
1800
FF80
FF80
1800
1800
1800
1800
1800
1800
1800
1800
1800
1800
1800
ENDCHAR
STARTCHAR $0067
ENCODING 103
SWIDTH 680 0
DWIDTH 17 0
BBX 14 18 1 -5
BITMAP
0F8C
3FEC
787C
703C
E01C
C00C
C00C
C00C
E01C
701C
787C
3FEC
0F8C
001C
0018
7038
7FF0
1FC0
ENDCHAR
STARTCHAR $0068
ENCODING 104
SWIDTH 680 0
DWIDTH 17 0
BBX 13 19 2 0
BITMAP
E000
E000
E000
E000
E000
E000
E7C0
FFE0
F870
F038
E038
E038
E038
E038
E038
E038
E038
E038
E038
ENDCHAR
STARTCHAR $0069
ENCODING 105
SWIDTH 280 0
DWIDTH 7 0
BBX 3 19 2 0
BITMAP
E0
E0
E0
00
00
00
E0
E0
E0
E0
E0
E0
E0
E0
E0
E0
E0
E0
E0
ENDCHAR
STARTCHAR $006A
ENCODING 106
SWIDTH 280 0
DWIDTH 7 0
BBX 8 24 -3 -5
BITMAP
07
07
07
00
00
00
07
07
07
07
07
07
07
07
07
07
07
07
07
07
07
C7
FE
7C
ENDCHAR
STARTCHAR $006B
ENCODING 107
SWIDTH 600 0
DWIDTH 15 0
BBX 13 19 2 0
BITMAP
E000
E000
E000
E000
E000
E000
E070
E0E0
E1C0
E380
E700
EE00
FF00
FB80
F1C0
E0E0
E070
E038
E018
ENDCHAR
STARTCHAR $006C
ENCODING 108
SWIDTH 280 0
DWIDTH 7 0
BBX 3 19 2 0
BITMAP
E0
E0
E0
E0
E0
E0
E0
E0
E0
E0
E0
E0
E0
E0
E0
E0
E0
E0
E0
ENDCHAR
STARTCHAR $006D
ENCODING 109
SWIDTH 1040 0
DWIDTH 26 0
BBX 22 13 2 0
BITMAP
E7C3E0
FFE7F8
F8FE3C
F0781C
E0300C
E0300C
E0300C
E0300C
E0300C
E0300C
E0300C
E0300C
E0300C
ENDCHAR
STARTCHAR $006E
ENCODING 110
SWIDTH 680 0
DWIDTH 17 0
BBX 13 13 2 0
BITMAP
E7C0
FFE0
F8F0
F078
E038
E038
E038
E038
E038
E038
E038
E038
E038
ENDCHAR
STARTCHAR $006F
ENCODING 111
SWIDTH 640 0
DWIDTH 16 0
BBX 14 13 1 0
BITMAP
0FC0
3FF0
7878
7038
E01C
E01C
E01C
E01C
E01C
7038
7870
3FE0
0FC0
ENDCHAR
STARTCHAR $0070
ENCODING 112
SWIDTH 680 0
DWIDTH 17 0
BBX 14 18 2 -5
BITMAP
E7C0
FFF0
F878
F038
E01C
E01C
E00C
E01C
E01C
F018
F878
FFF0
E7C0
E000
E000
E000
E000
E000
ENDCHAR
STARTCHAR $0071
ENCODING 113
SWIDTH 680 0
DWIDTH 17 0
BBX 14 18 1 -5
BITMAP
0F9C
3FFC
787C
703C
E01C
E01C
C01C
E01C
E01C
703C
787C
3FFC
0F9C
001C
001C
001C
001C
001C
ENDCHAR
STARTCHAR $0072
ENCODING 114
SWIDTH 400 0
DWIDTH 10 0
BBX 8 13 2 0
BITMAP
E7
FF
FC
F0
E0
E0
E0
E0
E0
E0
E0
E0
E0
ENDCHAR
STARTCHAR $0073
ENCODING 115
SWIDTH 520 0
DWIDTH 13 0
BBX 11 13 1 0
BITMAP
1F80
7FC0
E0C0
C000
C000
F000
7F80
1FC0
00E0
00E0
C0E0
FFC0
3F00
ENDCHAR
STARTCHAR $0074
ENCODING 116
SWIDTH 400 0
DWIDTH 10 0
BBX 9 16 0 0
BITMAP
1800
1800
1800
FF80
FF80
1800
1800
1800
1800
1800
1800
1800
1800
1C00
1F80
0F80
ENDCHAR
STARTCHAR $0075
ENCODING 117
SWIDTH 680 0
DWIDTH 17 0
BBX 13 13 2 0
BITMAP
E038
E038
E038
E038
E038
E038
E038
E038
E038
F078
78F8
3FF8
1F38
ENDCHAR
STARTCHAR $0076
ENCODING 118
SWIDTH 560 0
DWIDTH 14 0
BBX 14 13 0 0
BITMAP
E01C
6018
7038
7038
3030
3870
1860
1CE0
0CC0
0FC0
0780
0780
0300
ENDCHAR
STARTCHAR $0077
ENCODING 119
SWIDTH 880 0
DWIDTH 22 0
BBX 23 13 0 0
BITMAP
E0100E
60380C
607C0C
706C1C
306C18
30C618
18C630
19C730
0DC760
0D8360
0783C0
0783C0
030180
ENDCHAR
STARTCHAR $0078
ENCODING 120
SWIDTH 560 0
DWIDTH 14 0
BBX 12 13 1 0
BITMAP
E070
70E0
30C0
3980
1F80
0F00
0600
0F00
1F80
39C0
70C0
6060
E070
ENDCHAR
STARTCHAR $0079
ENCODING 121
SWIDTH 560 0
DWIDTH 14 0
BBX 14 18 0 -5
BITMAP
E01C
6018
7018
7030
3030
3870
1860
1CE0
0CC0
0FC0
0780
0780
0300
0300
0700
8E00
FC00
7800
ENDCHAR
STARTCHAR $007A
ENCODING 122
SWIDTH 520 0
DWIDTH 13 0
BBX 11 13 1 0
BITMAP
FFE0
FFE0
01C0
0180
0300
0700
0E00
1C00
3800
3000
7000
FFE0
FFE0
ENDCHAR
STARTCHAR $007B
ENCODING 123
SWIDTH 360 0
DWIDTH 9 0
BBX 7 24 1 -5
BITMAP
1E
3E
38
30
30
30
30
30
30
30
70
E0
E0
70
30
30
30
30
30
30
30
38
3E
1E
ENDCHAR
STARTCHAR $007C
ENCODING 124
SWIDTH 280 0
DWIDTH 7 0
BBX 2 24 3 -5
BITMAP
C0
C0
C0
C0
C0
C0
C0
C0
C0
C0
C0
C0
C0
C0
C0
C0
C0
C0
C0
C0
C0
C0
C0
C0
ENDCHAR
STARTCHAR $007D
ENCODING 125
SWIDTH 360 0
DWIDTH 9 0
BBX 7 24 0 -5
BITMAP
F0
F8
38
18
18
18
18
18
18
18
1C
0E
0E
1C
18
18
18
18
18
18
18
18
F8
F0
ENDCHAR
STARTCHAR $007E
ENCODING 126
SWIDTH 600 0
DWIDTH 15 0
BBX 12 4 1 7
BITMAP
3C30
7E30
C3E0
C1E0
ENDCHAR
STARTCHAR $00A1
ENCODING 161
SWIDTH 280 0
DWIDTH 7 0
BBX 3 17 2 -4
BITMAP
E0
E0
E0
00
00
00
C0
C0
C0
C0
E0
E0
E0
E0
E0
E0
E0
ENDCHAR
STARTCHAR $00A2
ENCODING 162
SWIDTH 560 0
DWIDTH 14 0
BBX 12 19 1 -3
BITMAP
0300
0300
0300
1FE0
3FF0
7370
6320
E300
E300
C300
E300
E300
7320
7B70
3FF0
0FC0
0300
0300
0300
ENDCHAR
STARTCHAR $00A3
ENCODING 163
SWIDTH 640 0
DWIDTH 16 0
BBX 15 18 1 0
BITMAP
01F8
07FE
0F0C
1C00
1800
1800
3800
3800
FFF0
FFF0
3800
3800
3800
3800
3800
3800
FFFC
FFFC
ENDCHAR
STARTCHAR $00A4
ENCODING 164
SWIDTH 720 0
DWIDTH 18 0
BBX 15 15 1 0
BITMAP
C006
E7EE
7FFC
3C38
301C
600C
600E
6006
600C
700C
301C
3C38
7FFC
E7C6
C002
ENDCHAR
STARTCHAR $00A5
ENCODING 165
SWIDTH 720 0
DWIDTH 18 0
BBX 17 18 0 0
BITMAP
E00180
700380
300700
380600
1C0E00
0C1C00
0E1800
073800
037000
03E000
3FFE00
00C000
00C000
00C000
3FFE00
00C000
00C000
00C000
ENDCHAR
STARTCHAR $00A6
ENCODING 166
SWIDTH 280 0
DWIDTH 7 0
BBX 2 24 3 -5
BITMAP
C0
C0
C0
C0
C0
C0
C0
C0
C0
00
00
00
00
00
00
C0
C0
C0
C0
C0
C0
C0
C0
C0
ENDCHAR
STARTCHAR $00A7
ENCODING 167
SWIDTH 520 0
DWIDTH 13 0
BBX 11 21 1 -3
BITMAP
1F80
3FE0
6040
6000
E000
6000
7C00
7F80
E3C0
C0C0
C0E0
E0E0
78C0
3F80
0F80
01C0
00C0
00C0
C1C0
FF80
3E00
ENDCHAR
STARTCHAR $00A8
ENCODING 168
SWIDTH 600 0
DWIDTH 15 0
BBX 7 2 4 15
BITMAP
C6
C6
ENDCHAR
STARTCHAR $00A9
ENCODING 169
SWIDTH 800 0
DWIDTH 20 0
BBX 18 18 1 0
BITMAP
03F000
0E1C00
180600
300100
61F180
47F880
4618C0
CC0040
8C0040
8C0040
CC0040
460880
47F880
61E180
300300
180600
0E1C00
03F000
ENDCHAR
STARTCHAR $00AA
ENCODING 170
SWIDTH 400 0
DWIDTH 10 0
BBX 7 8 1 11
BITMAP
7C
E6
02
02
7E
C2
C6
7A
ENDCHAR
STARTCHAR $00AB
ENCODING 171
SWIDTH 520 0
DWIDTH 13 0
BBX 11 10 1 2
BITMAP
0CE0
18C0
3180
7300
6700
E600
6300
3180
19C0
1CC0
ENDCHAR
STARTCHAR $00AC
ENCODING 172
SWIDTH 600 0
DWIDTH 15 0
BBX 11 6 2 4
BITMAP
FFE0
FFE0
0060
0060
0060
0060
ENDCHAR
STARTCHAR $00AD
ENCODING 173
SWIDTH 400 0
DWIDTH 10 0
BBX 7 2 1 6
BITMAP
FE
FE
ENDCHAR
STARTCHAR $00AE
ENCODING 174
SWIDTH 800 0
DWIDTH 20 0
BBX 18 18 1 0
BITMAP
03F000
0E1C00
180600
300100
67F180
463880
4608C0
C60C40
860840
863840
C7F040
C630C0
461880
660980
200100
180200
0E1C00
03F000
ENDCHAR
STARTCHAR $00AF
ENCODING 175
SWIDTH 600 0
DWIDTH 15 0
BBX 9 1 3 17
BITMAP
FF80
ENDCHAR
STARTCHAR $00B0
ENCODING 176
SWIDTH 400 0
DWIDTH 10 0
BBX 8 8 1 10
BITMAP
3C
66
C3
C1
C1
C1
63
3E
ENDCHAR
STARTCHAR $00B1
ENCODING 177
SWIDTH 600 0
DWIDTH 15 0
BBX 11 15 2 0
BITMAP
0C00
0C00
0C00
0C00
FFE0
FFE0
0C00
0C00
0C00
0C00
0000
0000
0000
FFE0
FFE0
ENDCHAR
STARTCHAR $00B2
ENCODING 178
SWIDTH 440 0
DWIDTH 11 0
BBX 8 10 1 9
BITMAP
7C
FF
03
03
03
06
1C
38
60
FF
ENDCHAR
STARTCHAR $00B3
ENCODING 179
SWIDTH 440 0
DWIDTH 11 0
BBX 9 11 1 8
BITMAP
FF00
0300
0600
0C00
1800
1E00
0700
0180
0100
FF00
7E00
ENDCHAR
STARTCHAR $00B4
ENCODING 180
SWIDTH 600 0
DWIDTH 15 0
BBX 5 3 6 15
BITMAP
38
70
E0
ENDCHAR
STARTCHAR $00B5
ENCODING 181
SWIDTH 680 0
DWIDTH 17 0
BBX 13 18 2 -5
BITMAP
E038
E038
E038
E038
E038
E038
E038
E038
E038
E078
F8F8
FFF8
EFB8
E000
E000
E000
E000
E000
ENDCHAR
STARTCHAR $00B6
ENCODING 182
SWIDTH 640 0
DWIDTH 16 0
BBX 14 22 0 -3
BITMAP
1FFC
3FFC
7F0C
7F0C
FF0C
7F0C
7F0C
7F0C
1F0C
030C
030C
030C
030C
030C
030C
030C
030C
030C
030C
030C
030C
030C
ENDCHAR
STARTCHAR $00B7
ENCODING 183
SWIDTH 280 0
DWIDTH 7 0
BBX 3 3 2 5
BITMAP
E0
E0
E0
ENDCHAR
STARTCHAR $00B8
ENCODING 184
SWIDTH 600 0
DWIDTH 15 0
BBX 5 5 5 -5
BITMAP
20
60
38
18
F0
ENDCHAR
STARTCHAR $00B9
ENCODING 185
SWIDTH 440 0
DWIDTH 11 0
BBX 7 10 2 9
BITMAP
F8
18
18
18
18
18
18
18
18
FE
ENDCHAR
STARTCHAR $00BA
ENCODING 186
SWIDTH 400 0
DWIDTH 10 0
BBX 9 8 1 11
BITMAP
3E00
7700
C100
C180
C180
C100
7700
3C00
ENDCHAR
STARTCHAR $00BB
ENCODING 187
SWIDTH 520 0
DWIDTH 13 0
BBX 10 10 1 2
BITMAP
C600
6700
7300
3180
18C0
18C0
3980
3380
6300
C600
ENDCHAR
STARTCHAR $00BC
ENCODING 188
SWIDTH 1040 0
DWIDTH 26 0
BBX 23 18 2 0
BITMAP
F800C0
180180
180300
180300
180600
180C00
180C00
181830
183030
FE3060
0060C0
00C0C0
00C188
018308
0303FE
030018
060018
0C0018
ENDCHAR
STARTCHAR $00BD
ENCODING 189
SWIDTH 1040 0
DWIDTH 26 0
BBX 23 18 2 0
BITMAP
F800C0
180180
180300
180300
180600
180C00
180C00
1819F8
1833FC
FE300C
00600C
00C00C
00C018
018030
030060
0300C0
060180
0C03FE
ENDCHAR
STARTCHAR $00BE
ENCODING 190
SWIDTH 1040 0
DWIDTH 26 0
BBX 24 18 1 0
BITMAP
FF0060
0300C0
060180
0C0180
180300
1E0600
030600
018C00
811818
FF1830
7E3060
006060
0060C4
00C184
0181FF
01800C
03000C
06000C
ENDCHAR
STARTCHAR $00BF
ENCODING 191
SWIDTH 560 0
DWIDTH 14 0
BBX 12 17 2 -4
BITMAP
0E00
0E00
0E00
0000
0000
0000
0E00
1C00
3800
7000
E000
C000
C000
E020
F0F0
7FE0
1F80
ENDCHAR
STARTCHAR $00C0
ENCODING 192
SWIDTH 720 0
DWIDTH 18 0
BBX 18 23 0 0
BITMAP
070000
038000
00C000
000000
000000
00E000
01E000
01E000
03B000
033000
073800
061800
061C00
0C0C00
0C0E00
1C0600
1FFE00
3FFF00
300300
300380
700180
6001C0
E001C0
ENDCHAR
STARTCHAR $00C1
ENCODING 193
SWIDTH 720 0
DWIDTH 18 0
BBX 18 23 0 0
BITMAP
003800
007000
00C000
000000
000000
00E000
01E000
01E000
03B000
033000
073800
061800
061C00
0C0C00
0C0E00
1C0600
1FFE00
3FFF00
300300
300380
700180
6001C0
E001C0
ENDCHAR
STARTCHAR $00C2
ENCODING 194
SWIDTH 720 0
DWIDTH 18 0
BBX 18 23 0 0
BITMAP
01E000
03F000
071800
000000
000000
00E000
01E000
01E000
03B000
033000
073800
061800
061C00
0C0C00
0C0E00
1C0600
1FFE00
3FFF00
300300
300380
700180
6001C0
E001C0
ENDCHAR
STARTCHAR $00C3
ENCODING 195
SWIDTH 720 0
DWIDTH 18 0
BBX 18 22 0 0
BITMAP
038800
06F800
043000
000000
00E000
01E000
01E000
03B000
033000
073800
061800
061C00
0C0C00
0C0E00
1C0600
1FFE00
3FFF00
300300
300380
700180
6001C0
E001C0
ENDCHAR
STARTCHAR $00C4
ENCODING 196
SWIDTH 720 0
DWIDTH 18 0
BBX 18 23 0 0
BITMAP
001000
033800
033000
000000
000000
00E000
01E000
01E000
03B000
033000
073800
061800
061C00
0C0C00
0C0E00
1C0600
1FFE00
3FFF00
300300
300380
700180
6001C0
E001C0
ENDCHAR
STARTCHAR $00C5
ENCODING 197
SWIDTH 720 0
DWIDTH 18 0
BBX 18 25 0 0
BITMAP
01E000
013000
021000
013000
01E000
000000
000000
00E000
01E000
01E000
03B000
033000
073800
061800
061C00
0C0C00
0C0E00
1C0600
1FFE00
3FFF00
300300
300380
700180
6001C0
E001C0
ENDCHAR
STARTCHAR $00C6
ENCODING 198
SWIDTH 1040 0
DWIDTH 26 0
BBX 25 18 0 0
BITMAP
003FFF00
003FFF00
006E0000
00EE0000
00CE0000
01CE0000
018E0000
038E0000
070FFE00
070FFE00
0E0E0000
0E0E0000
1FFE0000
1FFE0000
380E0000
700E0000
700FFF80
E00FFF80
ENDCHAR
STARTCHAR $00C7
ENCODING 199
SWIDTH 720 0
DWIDTH 18 0
BBX 16 23 1 -5
BITMAP
03F8
0FFE
1F1F
3802
7000
7000
6000
E000
E000
E000
E000
6000
7000
7000
3C02
1F0F
0FFE
03F8
0080
00E0
0020
0020
03E0
ENDCHAR
STARTCHAR $00C8
ENCODING 200
SWIDTH 680 0
DWIDTH 17 0
BBX 12 23 3 0
BITMAP
3800
1C00
0E00
0000
0000
FFF0
FFF0
C000
C000
C000
C000
C000
C000
FFE0
FFE0
C000
C000
C000
C000
C000
C000
FFF0
FFF0
ENDCHAR
STARTCHAR $00C9
ENCODING 201
SWIDTH 680 0
DWIDTH 17 0
BBX 12 23 3 0
BITMAP
01C0
0300
0600
0800
0000
FFF0
FFF0
C000
C000
C000
C000
C000
C000
FFE0
FFE0
C000
C000
C000
C000
C000
C000
FFF0
FFF0
ENDCHAR
STARTCHAR $00CA
ENCODING 202
SWIDTH 680 0
DWIDTH 17 0
BBX 12 23 3 0
BITMAP
0E00
1F80
31C0
0000
0000
FFF0
FFF0
C000
C000
C000
C000
C000
C000
FFE0
FFE0
C000
C000
C000
C000
C000
C000
FFF0
FFF0
ENDCHAR
STARTCHAR $00CB
ENCODING 203
SWIDTH 680 0
DWIDTH 17 0
BBX 12 23 3 0
BITMAP
1000
3980
3180
0000
0000
FFF0
FFF0
C000
C000
C000
C000
C000
C000
FFE0
FFE0
C000
C000
C000
C000
C000
C000
FFF0
FFF0
ENDCHAR
STARTCHAR $00CC
ENCODING 204
SWIDTH 320 0
DWIDTH 8 0
BBX 5 23 0 0
BITMAP
E0
70
38
00
00
18
18
18
18
18
18
18
18
18
18
18
18
18
18
18
18
18
18
ENDCHAR
STARTCHAR $00CD
ENCODING 205
SWIDTH 320 0
DWIDTH 8 0
BBX 6 23 2 0
BITMAP
1C
30
60
80
00
60
60
60
60
60
60
60
60
60
60
60
60
60
60
60
60
60
60
ENDCHAR
STARTCHAR $00CE
ENCODING 206
SWIDTH 320 0
DWIDTH 8 0
BBX 8 23 0 0
BITMAP
3C
7E
C7
00
00
18
18
18
18
18
18
18
18
18
18
18
18
18
18
18
18
18
18
ENDCHAR
STARTCHAR $00CF
ENCODING 207
SWIDTH 320 0
DWIDTH 8 0
BBX 7 23 0 0
BITMAP
40
E6
66
00
00
18
18
18
18
18
18
18
18
18
18
18
18
18
18
18
18
18
18
ENDCHAR
STARTCHAR $00D0
ENCODING 208
SWIDTH 840 0
DWIDTH 21 0
BBX 20 18 0 0
BITMAP
1FFC00
1FFF00
180F80
1803C0
1800E0
1800E0
180060
180070
FFC070
FFC070
180070
180060
1800E0
1800E0
1801C0
180F80
1FFF00
1FF800
ENDCHAR
STARTCHAR $00D1
ENCODING 209
SWIDTH 800 0
DWIDTH 20 0
BBX 15 22 3 0
BITMAP
0E20
1BE0
10C0
0000
C00E
E00E
F00E
F00E
F80E
DC0E
CE0E
CF0E
C70E
C38E
C1CE
C1EE
C0EE
C07E
C03E
C01E
C01E
C00E
ENDCHAR
STARTCHAR $00D2
ENCODING 210
SWIDTH 840 0
DWIDTH 21 0
BBX 19 22 1 0
BITMAP
038000
01C000
00E000
000000
03F800
0FFE00
1F1F00
380380
7001C0
7001C0
6000E0
E000E0
E000E0
E000E0
E000E0
6000C0
7001C0
7001C0
380380
1F0F00
0FFE00
03F800
ENDCHAR
STARTCHAR $00D3
ENCODING 211
SWIDTH 840 0
DWIDTH 21 0
BBX 19 22 1 0
BITMAP
003800
007000
00E000
000000
03F800
0FFE00
1F1F00
380380
7001C0
7001C0
6000E0
E000E0
E000E0
E000E0
E000E0
6000C0
7001C0
7001C0
380380
1F0F00
0FFE00
03F800
ENDCHAR
STARTCHAR $00D4
ENCODING 212
SWIDTH 840 0
DWIDTH 21 0
BBX 19 22 1 0
BITMAP
00E000
01B000
031800
000000
03F800
0FFE00
1F1F00
380380
7001C0
7001C0
6000E0
E000E0
E000E0
E000E0
E000E0
6000C0
7001C0
7001C0
380380
1F0F00
0FFE00
03F800
ENDCHAR
STARTCHAR $00D5
ENCODING 213
SWIDTH 840 0
DWIDTH 21 0
BBX 19 23 1 0
BITMAP
018000
03CC00
067800
000000
000000
03F800
0FFE00
1F1F00
380380
7001C0
7001C0
6000E0
E000E0
E000E0
E000E0
E000E0
6000C0
7001C0
7001C0
380380
1F0F00
0FFE00
03F800
ENDCHAR
STARTCHAR $00D6
ENCODING 214
SWIDTH 840 0
DWIDTH 21 0
BBX 19 22 1 0
BITMAP
031800
031800
000000
000000
03F800
0FFE00
1F1F00
380380
7001C0
7001C0
6000E0
E000E0
E000E0
E000E0
E000E0
6000C0
7001C0
7001C0
380380
1F0F00
0FFE00
03F800
ENDCHAR
STARTCHAR $00D7
ENCODING 215
SWIDTH 600 0
DWIDTH 15 0
BBX 9 9 3 4
BITMAP
8100
C380
6700
3E00
1C00
3C00
7600
E300
C100
ENDCHAR
STARTCHAR $00D8
ENCODING 216
SWIDTH 840 0
DWIDTH 21 0
BBX 19 22 1 -2
BITMAP
0000C0
000180
03F980
0FFF00
1F1F00
380F80
700DC0
7019C0
6030C0
E030E0
E060E0
E0C0E0
E180E0
6180C0
7301C0
7601C0
3E0380
1F0F00
1FFE00
33F800
300000
600000
ENDCHAR
STARTCHAR $00D9
ENCODING 217
SWIDTH 800 0
DWIDTH 20 0
BBX 15 23 2 0
BITMAP
0E00
0700
0180
0000
0000
E006
E006
E006
E006
E006
E006
E006
E006
E006
E006
E006
6006
6006
700E
701C
3C3C
1FF8
07E0
ENDCHAR
STARTCHAR $00DA
ENCODING 218
SWIDTH 800 0
DWIDTH 20 0
BBX 15 23 2 0
BITMAP
0070
00E0
0180
0000
0000
E006
E006
E006
E006
E006
E006
E006
E006
E006
E006
E006
6006
6006
700E
701C
3C3C
1FF8
07E0
ENDCHAR
STARTCHAR $00DB
ENCODING 219
SWIDTH 800 0
DWIDTH 20 0
BBX 15 23 2 0
BITMAP
03C0
07E0
0C70
0000
0000
E006
E006
E006
E006
E006
E006
E006
E006
E006
E006
E006
6006
6006
700E
701C
3C3C
1FF8
07E0
ENDCHAR
STARTCHAR $00DC
ENCODING 220
SWIDTH 800 0
DWIDTH 20 0
BBX 15 23 2 0
BITMAP
0400
0E60
0660
0000
0000
E006
E006
E006
E006
E006
E006
E006
E006
E006
E006
E006
6006
6006
700E
701C
3C3C
1FF8
07E0
ENDCHAR
STARTCHAR $00DD
ENCODING 221
SWIDTH 640 0
DWIDTH 16 0
BBX 16 23 0 0
BITMAP
0070
00E0
0180
0000
0000
E007
6006
700E
380C
181C
1C18
0C30
0E70
0760
03E0
03C0
0180
0180
0180
0180
0180
0180
0180
ENDCHAR
STARTCHAR $00DE
ENCODING 222
SWIDTH 720 0
DWIDTH 18 0
BBX 14 18 3 0
BITMAP
C000
C000
C000
FFC0
FFF0
C078
C038
C01C
C01C
C01C
C01C
C038
C078
FFF0
FFC0
C000
C000
C000
ENDCHAR
STARTCHAR $00DF
ENCODING 223
SWIDTH 680 0
DWIDTH 17 0
BBX 14 19 2 0
BITMAP
0F80
3FE0
78F0
7030
6030
E030
E030
E070
E0E0
E3C0
E3F0
E038
E01C
E01C
E01C
E01C
E038
E7F0
E7E0
ENDCHAR
STARTCHAR $00E0
ENCODING 224
SWIDTH 600 0
DWIDTH 15 0
BBX 12 18 1 0
BITMAP
3800
0C00
0600
0100
0000
1F80
7FE0
60E0
0070
0070
0FF0
7FF0
6070
E070
E070
E0F0
7FF0
1F70
ENDCHAR
STARTCHAR $00E1
ENCODING 225
SWIDTH 600 0
DWIDTH 15 0
BBX 12 18 1 0
BITMAP
01C0
0380
0700
0000
0000
1F80
7FE0
60E0
0070
0070
0FF0
7FF0
6070
E070
E070
E0F0
7FF0
1F70
ENDCHAR
STARTCHAR $00E2
ENCODING 226
SWIDTH 600 0
DWIDTH 15 0
BBX 12 18 1 0
BITMAP
0700
0F80
18C0
2000
0000
1F80
7FE0
60E0
0070
0070
0FF0
7FF0
6070
E070
E070
E0F0
7FF0
1F70
ENDCHAR
STARTCHAR $00E3
ENCODING 227
SWIDTH 600 0
DWIDTH 15 0
BBX 12 18 1 0
BITMAP
1800
3E40
33C0
0000
0000
1F80
7FE0
60E0
0070
0070
0FF0
7FF0
6070
E070
E070
E0F0
7FF0
1F70
ENDCHAR
STARTCHAR $00E4
ENCODING 228
SWIDTH 600 0
DWIDTH 15 0
BBX 12 18 1 0
BITMAP
18C0
19C0
0080
0000
0000
1F80
7FE0
60E0
0070
0070
0FF0
7FF0
6070
E070
E070
E0F0
7FF0
1F70
ENDCHAR
STARTCHAR $00E5
ENCODING 229
SWIDTH 600 0
DWIDTH 15 0
BBX 12 20 1 0
BITMAP
0700
0980
0880
0880
0980
0700
0000
1F80
7FE0
60E0
0070
0070
0FF0
7FF0
6070
E070
E070
E0F0
7FF0
1F70
ENDCHAR
STARTCHAR $00E6
ENCODING 230
SWIDTH 1000 0
DWIDTH 25 0
BBX 23 13 1 0
BITMAP
1F83E0
7FCFF8
60FC38
00780C
00700C
0FFFFE
7FFFFE
607000
E07000
E07808
60FE18
7FCFF8
1F03E0
ENDCHAR
STARTCHAR $00E7
ENCODING 231
SWIDTH 560 0
DWIDTH 14 0
BBX 12 18 1 -5
BITMAP
0FC0
3FE0
7870
7020
E000
E000
C000
E000
E000
7020
7870
3FE0
0FC0
0200
0700
0180
0180
0F00
ENDCHAR
STARTCHAR $00E8
ENCODING 232
SWIDTH 600 0
DWIDTH 15 0
BBX 13 18 1 0
BITMAP
1C00
0E00
0700
0000
0000
0F80
3FE0
7070
6038
E018
FFF8
FFF8
E000
E000
7000
7870
3FF0
0FC0
ENDCHAR
STARTCHAR $00E9
ENCODING 233
SWIDTH 600 0
DWIDTH 15 0
BBX 13 18 1 0
BITMAP
00E0
0180
0300
0400
0000
0F80
3FE0
7070
6038
E018
FFF8
FFF8
E000
E000
7000
7870
3FF0
0FC0
ENDCHAR
STARTCHAR $00EA
ENCODING 234
SWIDTH 600 0
DWIDTH 15 0
BBX 13 18 1 0
BITMAP
0700
0D80
18C0
0020
0000
0F80
3FE0
7070
6038
E018
FFF8
FFF8
E000
E000
7000
7870
3FF0
0FC0
ENDCHAR
STARTCHAR $00EB
ENCODING 235
SWIDTH 600 0
DWIDTH 15 0
BBX 13 18 1 0
BITMAP
18C0
1CC0
0800
0000
0000
0F80
3FE0
7070
6038
E018
FFF8
FFF8
E000
E000
7000
7870
3FF0
0FC0
ENDCHAR
STARTCHAR $00EC
ENCODING 236
SWIDTH 280 0
DWIDTH 7 0
BBX 5 18 0 0
BITMAP
E0
70
38
00
00
38
38
38
38
38
38
38
38
38
38
38
38
38
ENDCHAR
STARTCHAR $00ED
ENCODING 237
SWIDTH 280 0
DWIDTH 7 0
BBX 5 18 2 0
BITMAP
38
70
E0
00
00
E0
E0
E0
E0
E0
E0
E0
E0
E0
E0
E0
E0
E0
ENDCHAR
STARTCHAR $00EE
ENCODING 238
SWIDTH 280 0
DWIDTH 7 0
BBX 7 18 0 0
BITMAP
38
6C
C6
00
00
38
38
38
38
38
38
38
38
38
38
38
38
38
ENDCHAR
STARTCHAR $00EF
ENCODING 239
SWIDTH 280 0
DWIDTH 7 0
BBX 6 18 0 0
BITMAP
6C
EC
00
00
00
38
38
38
38
38
38
38
38
38
38
38
38
38
ENDCHAR
STARTCHAR $00F0
ENCODING 240
SWIDTH 640 0
DWIDTH 16 0
BBX 14 18 1 0
BITMAP
7F88
7FF8
01F0
07B8
3E38
1018
001C
0F9C
3FEC
707C
E03C
E01C
C01C
E018
E038
7070
3FE0
0F80
ENDCHAR
STARTCHAR $00F1
ENCODING 241
SWIDTH 680 0
DWIDTH 17 0
BBX 13 18 2 0
BITMAP
0C00
1E60
33C0
0000
0000
E7C0
FFE0
F870
F038
E038
E038
E038
E038
E038
E038
E038
E038
E038
ENDCHAR
STARTCHAR $00F2
ENCODING 242
SWIDTH 640 0
DWIDTH 16 0
BBX 14 18 1 0
BITMAP
1C00
0E00
0300
0000
0000
0FC0
3FF0
7878
7038
E01C
E01C
C01C
E01C
E01C
7038
7870
3FE0
0FC0
ENDCHAR
STARTCHAR $00F3
ENCODING 243
SWIDTH 640 0
DWIDTH 16 0
BBX 14 18 1 0
BITMAP
00E0
01C0
0300
0000
0000
0FC0
3FF0
7878
7038
E01C
E01C
C01C
E01C
E01C
7038
7870
3FE0
0FC0
ENDCHAR
STARTCHAR $00F4
ENCODING 244
SWIDTH 640 0
DWIDTH 16 0
BBX 14 18 1 0
BITMAP
0780
0FC0
1CE0
0000
0000
0FC0
3FF0
7878
7038
E01C
E01C
C01C
E01C
E01C
7038
7870
3FE0
0FC0
ENDCHAR
STARTCHAR $00F5
ENCODING 245
SWIDTH 640 0
DWIDTH 16 0
BBX 14 18 1 0
BITMAP
1E20
1B60
11C0
0000
0000
0FC0
3FF0
7878
7038
E01C
E01C
C01C
E01C
E01C
7038
7870
3FE0
0FC0
ENDCHAR
STARTCHAR $00F6
ENCODING 246
SWIDTH 640 0
DWIDTH 16 0
BBX 14 18 1 0
BITMAP
0CC0
1CE0
0800
0000
0000
0FC0
3FF0
7878
7038
E01C
E01C
C01C
E01C
E01C
7038
7870
3FE0
0FC0
ENDCHAR
STARTCHAR $00F7
ENCODING 247
SWIDTH 600 0
DWIDTH 15 0
BBX 11 13 2 2
BITMAP
0C00
0E00
0C00
0000
0000
FFE0
FFE0
0000
0000
0000
0C00
0E00
0C00
ENDCHAR
STARTCHAR $00F8
ENCODING 248
SWIDTH 640 0
DWIDTH 16 0
BBX 14 17 1 -2
BITMAP
0008
0010
0FF0
3FE0
7878
70F8
E09C
E11C
C31C
E21C
E41C
7C38
7870
3FE0
3FC0
6000
4000
ENDCHAR
STARTCHAR $00F9
ENCODING 249
SWIDTH 680 0
DWIDTH 17 0
BBX 13 18 2 0
BITMAP
3C00
0E00
0700
0000
0000
E038
E038
E038
E038
E038
E038
E038
E038
E038
E078
70F8
3FF8
1F38
ENDCHAR
STARTCHAR $00FA
ENCODING 250
SWIDTH 680 0
DWIDTH 17 0
BBX 13 18 2 0
BITMAP
01C0
0380
0600
0000
0000
E038
E038
E038
E038
E038
E038
E038
E038
E038
E078
70F8
3FF8
1F38
ENDCHAR
STARTCHAR $00FB
ENCODING 251
SWIDTH 680 0
DWIDTH 17 0
BBX 13 18 2 0
BITMAP
0F00
1D80
38C0
0000
0000
E038
E038
E038
E038
E038
E038
E038
E038
E038
E078
70F8
3FF8
1F38
ENDCHAR
STARTCHAR $00FC
ENCODING 252
SWIDTH 680 0
DWIDTH 17 0
BBX 13 18 2 0
BITMAP
18C0
19C0
0000
0000
0000
E038
E038
E038
E038
E038
E038
E038
E038
E038
E078
70F8
3FF8
1F38
ENDCHAR
STARTCHAR $00FD
ENCODING 253
SWIDTH 560 0
DWIDTH 14 0
BBX 14 23 0 -5
BITMAP
01E0
0380
0700
0000
0000
E01C
6018
7018
7030
3030
3870
1860
1CE0
0CC0
0FC0
0780
0780
0300
0300
0700
8E00
FC00
7800
ENDCHAR
STARTCHAR $00FE
ENCODING 254
SWIDTH 680 0
DWIDTH 17 0
BBX 14 24 2 -5
BITMAP
E000
E000
E000
E000
E000
E000
E7C0
FFF0
F878
F038
E01C
E01C
E00C
E01C
E01C
F018
F878
FFF0
E7C0
E000
E000
E000
E000
E000
ENDCHAR
STARTCHAR $00FF
ENCODING 255
SWIDTH 560 0
DWIDTH 14 0
BBX 14 23 0 -5
BITMAP
18C0
1CC0
0800
0000
0000
E01C
6018
7018
7030
3030
3870
1860
1CE0
0CC0
0FC0
0780
0780
0300
0300
0700
8E00
FC00
7800
ENDCHAR
STARTCHAR $0100
ENCODING 256
SWIDTH 720 0
DWIDTH 18 0
BBX 18 22 0 0
BITMAP
07F800
07F800
000000
000000
00E000
01E000
01E000
03B000
033000
073800
061800
061C00
0C0C00
0C0E00
1C0600
1FFE00
3FFF00
300300
300380
700180
6001C0
E001C0
ENDCHAR
STARTCHAR $0101
ENCODING 257
SWIDTH 600 0
DWIDTH 15 0
BBX 12 18 1 0
BITMAP
3FC0
3FC0
0000
0000
0000
1F80
7FE0
60E0
0070
0070
0FF0
7FF0
6070
E070
E070
E0F0
7FF0
1F70
ENDCHAR
STARTCHAR $0102
ENCODING 258
SWIDTH 720 0
DWIDTH 18 0
BBX 18 22 0 0
BITMAP
061800
03B800
01E000
000000
00E000
01E000
01E000
03B000
033000
073800
061800
061C00
0C0C00
0C0E00
1C0600
1FFE00
3FFF00
300300
300380
700180
6001C0
E001C0
ENDCHAR
STARTCHAR $0103
ENCODING 259
SWIDTH 600 0
DWIDTH 15 0
BBX 12 18 1 0
BITMAP
3040
18C0
1F80
0000
0000
1F80
7FE0
60E0
0070
0070
0FF0
7FF0
6070
E070
E070
E0F0
7FF0
1F70
ENDCHAR
STARTCHAR $0104
ENCODING 260
SWIDTH 720 0
DWIDTH 18 0
BBX 19 23 0 -5
BITMAP
00E000
01E000
01E000
03B000
033000
073800
061800
061C00
0C0C00
0C0E00
1C0600
1FFE00
3FFF00
300300
300380
700180
6001C0
E001C0
000180
000300
000200
000300
0003E0
ENDCHAR
STARTCHAR $0105
ENCODING 261
SWIDTH 600 0
DWIDTH 15 0
BBX 12 18 1 -5
BITMAP
1F80
7FE0
60E0
0070
0070
0FF0
7FF0
6070
E070
E070
E0F0
7FF0
1F70
00E0
0180
0180
0180
00F0
ENDCHAR
STARTCHAR $0106
ENCODING 262
SWIDTH 720 0
DWIDTH 18 0
BBX 16 22 1 0
BITMAP
0038
0070
00C0
0000
03F8
0FFE
1F1F
3802
7000
7000
6000
E000
E000
E000
E000
6000
7000
7000
3C02
1F0F
0FFE
03F8
ENDCHAR
STARTCHAR $0107
ENCODING 263
SWIDTH 560 0
DWIDTH 14 0
BBX 12 18 1 0
BITMAP
00E0
0180
0700
0000
0000
0FC0
3FE0
7870
7020
E000
E000
C000
E000
E000
7020
7870
3FE0
0FC0
ENDCHAR
STARTCHAR $0108
ENCODING 264
SWIDTH 720 0
DWIDTH 18 0
BBX 16 22 1 0
BITMAP
01E0
03B0
0718
0000
03F8
0FFE
1F1F
3802
7000
7000
6000
E000
E000
E000
E000
6000
7000
7000
3C02
1F0F
0FFE
03F8
ENDCHAR
STARTCHAR $0109
ENCODING 265
SWIDTH 560 0
DWIDTH 14 0
BBX 12 18 1 0
BITMAP
0700
0D80
18C0
0020
0000
0FC0
3FE0
7870
7020
E000
E000
C000
E000
E000
7020
7870
3FE0
0FC0
ENDCHAR
STARTCHAR $010A
ENCODING 266
SWIDTH 720 0
DWIDTH 18 0
BBX 16 23 1 0
BITMAP
00C0
00E0
00C0
0000
0000
03F8
0FFE
1F1F
3802
7000
7000
6000
E000
E000
E000
E000
6000
7000
7000
3C02
1F0F
0FFE
03F8
ENDCHAR
STARTCHAR $010B
ENCODING 267
SWIDTH 560 0
DWIDTH 14 0
BBX 12 19 1 0
BITMAP
0700
0700
0700
0000
0000
0000
0FC0
3FE0
7870
7020
E000
E000
C000
E000
E000
7020
7870
3FE0
0FC0
ENDCHAR
STARTCHAR $010C
ENCODING 268
SWIDTH 720 0
DWIDTH 18 0
BBX 16 22 1 0
BITMAP
0718
01F0
00E0
0000
03F8
0FFE
1F1F
3802
7000
7000
6000
E000
E000
E000
E000
6000
7000
7000
3C02
1F0F
0FFE
03F8
ENDCHAR
STARTCHAR $010D
ENCODING 269
SWIDTH 560 0
DWIDTH 14 0
BBX 12 18 1 0
BITMAP
18E0
0DC0
0700
0000
0000
0FC0
3FE0
7870
7020
E000
E000
C000
E000
E000
7020
7870
3FE0
0FC0
ENDCHAR
STARTCHAR $010E
ENCODING 270
SWIDTH 840 0
DWIDTH 21 0
BBX 16 23 3 0
BITMAP
38C0
0D80
0700
0000
0000
FFC0
FFF8
C07C
C01E
C00E
C007
C003
C003
C003
C003
C003
C003
C007
C00E
C01E
C07C
FFF8
FFC0
ENDCHAR
STARTCHAR $010F
ENCODING 271
SWIDTH 680 0
DWIDTH 17 0
BBX 18 20 1 0
BITMAP
0000C0
001CC0
001CC0
001CC0
001CC0
001C00
001C00
0F9C00
3FFC00
787C00
703C00
E01C00
E01C00
C01C00
E01C00
E01C00
703C00
787C00
3FFC00
0F9C00
ENDCHAR
STARTCHAR $0110
ENCODING 272
SWIDTH 840 0
DWIDTH 21 0
BBX 20 18 0 0
BITMAP
1FFC00
1FFF00
180F80
1803C0
1800E0
1800E0
180060
180070
FFC070
FFC070
180070
180060
1800E0
1800E0
1801C0
180F80
1FFF00
1FF800
ENDCHAR
STARTCHAR $0111
ENCODING 273
SWIDTH 680 0
DWIDTH 17 0
BBX 16 19 1 0
BITMAP
001C
001C
03FF
03FF
001C
001C
0F9C
3FFC
787C
703C
E01C
E01C
C01C
E01C
E01C
703C
787C
3FFC
0F9C
ENDCHAR
STARTCHAR $0112
ENCODING 274
SWIDTH 680 0
DWIDTH 17 0
BBX 12 22 3 0
BITMAP
3FC0
3FC0
0000
0000
FFF0
FFF0
C000
C000
C000
C000
C000
C000
FFE0
FFE0
C000
C000
C000
C000
C000
C000
FFF0
FFF0
ENDCHAR
STARTCHAR $0113
ENCODING 275
SWIDTH 600 0
DWIDTH 15 0
BBX 13 18 1 0
BITMAP
1FE0
1FE0
0000
0000
0000
0F80
3FE0
7070
6038
E018
FFF8
FFF8
E000
E000
7000
7870
3FF0
0FC0
ENDCHAR
STARTCHAR $0114
ENCODING 276
SWIDTH 680 0
DWIDTH 17 0
BBX 12 22 3 0
BITMAP
30C0
3980
0F00
0000
FFF0
FFF0
C000
C000
C000
C000
C000
C000
FFE0
FFE0
C000
C000
C000
C000
C000
C000
FFF0
FFF0
ENDCHAR
STARTCHAR $0115
ENCODING 277
SWIDTH 600 0
DWIDTH 15 0
BBX 13 18 1 0
BITMAP
1060
18C0
0F80
0000
0000
0F80
3FE0
7070
6038
E018
FFF8
FFF8
E000
E000
7000
7870
3FF0
0FC0
ENDCHAR
STARTCHAR $0116
ENCODING 278
SWIDTH 680 0
DWIDTH 17 0
BBX 12 23 3 0
BITMAP
0600
0E00
0600
0000
0000
FFF0
FFF0
C000
C000
C000
C000
C000
C000
FFE0
FFE0
C000
C000
C000
C000
C000
C000
FFF0
FFF0
ENDCHAR
STARTCHAR $0117
ENCODING 279
SWIDTH 600 0
DWIDTH 15 0
BBX 13 19 1 0
BITMAP
0300
0700
0300
0000
0000
0000
0F80
3FE0
7070
6038
E018
FFF8
FFF8
E000
E000
7000
7870
3FF0
0FC0
ENDCHAR
STARTCHAR $0118
ENCODING 280
SWIDTH 680 0
DWIDTH 17 0
BBX 13 23 3 -5
BITMAP
FFF0
FFF0
C000
C000
C000
C000
C000
C000
FFE0
FFE0
C000
C000
C000
C000
C000
C000
FFF0
FFF0
0060
00C0
0080
00C0
00F8
ENDCHAR
STARTCHAR $0119
ENCODING 281
SWIDTH 600 0
DWIDTH 15 0
BBX 13 18 1 -5
BITMAP
0F80
3FE0
7070
6038
E018
FFF8
FFF8
E000
E000
7000
7870
3FF0
0FE0
00C0
0180
0180
0180
01F0
ENDCHAR
STARTCHAR $011A
ENCODING 282
SWIDTH 680 0
DWIDTH 17 0
BBX 12 23 3 0
BITMAP
31C0
1B80
0F00
0000
0000
FFF0
FFF0
C000
C000
C000
C000
C000
C000
FFE0
FFE0
C000
C000
C000
C000
C000
C000
FFF0
FFF0
ENDCHAR
STARTCHAR $011B
ENCODING 283
SWIDTH 600 0
DWIDTH 15 0
BBX 13 18 1 0
BITMAP
18E0
0DC0
0780
0000
0000
0F80
3FE0
7070
6038
E018
FFF8
FFF8
E000
E000
7000
7870
3FF0
0FC0
ENDCHAR
STARTCHAR $011C
ENCODING 284
SWIDTH 760 0
DWIDTH 19 0
BBX 16 22 1 0
BITMAP
01E0
03B0
0718
0000
03F8
0FFE
1F0F
3803
7000
7000
6000
E000
E000
E003
E003
6003
7003
7003
3C03
1F0F
0FFE
03F8
ENDCHAR
STARTCHAR $011D
ENCODING 285
SWIDTH 680 0
DWIDTH 17 0
BBX 14 23 1 -5
BITMAP
0380
07C0
1C60
0000
0000
0F8C
3FEC
787C
703C
E01C
E01C
C00C
E00C
E01C
701C
787C
3FEC
0F8C
001C
0018
7038
7FF0
1FC0
ENDCHAR
STARTCHAR $011E
ENCODING 286
SWIDTH 760 0
DWIDTH 19 0
BBX 16 22 1 0
BITMAP
0618
03B8
01E0
0000
03F8
0FFE
1F0F
3803
7000
7000
6000
E000
E000
E003
E003
6003
7003
7003
3C03
1F0F
0FFE
03F8
ENDCHAR
STARTCHAR $011F
ENCODING 287
SWIDTH 680 0
DWIDTH 17 0
BBX 14 23 1 -5
BITMAP
1820
0C60
0FC0
0000
0000
0F8C
3FEC
787C
703C
E01C
E01C
C00C
E00C
E01C
701C
787C
3FEC
0F8C
001C
0018
7038
7FF0
1FC0
ENDCHAR
STARTCHAR $0120
ENCODING 288
SWIDTH 760 0
DWIDTH 19 0
BBX 16 23 1 0
BITMAP
00C0
00E0
00C0
0000
0000
03F8
0FFE
1F0F
3803
7000
7000
6000
E000
E000
E003
E003
6003
7003
7003
3C03
1F0F
0FFE
03F8
ENDCHAR
STARTCHAR $0121
ENCODING 289
SWIDTH 680 0
DWIDTH 17 0
BBX 14 24 1 -5
BITMAP
0300
0380
0300
0000
0000
0000
0F8C
3FEC
787C
703C
E01C
E01C
C00C
E00C
E01C
701C
787C
3FEC
0F8C
001C
0018
7038
7FF0
1FC0
ENDCHAR
STARTCHAR $0122
ENCODING 290
SWIDTH 760 0
DWIDTH 19 0
BBX 16 24 1 -6
BITMAP
03F8
0FFE
1F0F
3803
7000
7000
6000
E000
E000
E003
E003
6003
7003
7003
3C03
1F0F
0FFE
03F8
0000
0000
00C0
00C0
0040
00C0
ENDCHAR
STARTCHAR $0123
ENCODING 291
SWIDTH 680 0
DWIDTH 17 0
BBX 14 25 1 -5
BITMAP
0100
0100
0300
0380
0300
0000
0000
0F8C
3FEC
787C
703C
E01C
E01C
C00C
E00C
E01C
701C
787C
3FEC
0F8C
001C
0018
7038
7FF0
1FC0
ENDCHAR
STARTCHAR $0124
ENCODING 292
SWIDTH 800 0
DWIDTH 20 0
BBX 15 23 3 0
BITMAP
0780
0FC0
1C60
0000
0000
C00E
C00E
C00E
C00E
C00E
C00E
C00E
C00E
FFFE
FFFE
C00E
C00E
C00E
C00E
C00E
C00E
C00E
C00E
ENDCHAR
STARTCHAR $0125
ENCODING 293
SWIDTH 680 0
DWIDTH 17 0
BBX 16 24 -1 0
BITMAP
1C00
3600
6300
8000
0000
1C00
1C00
1C00
1C00
1C00
1C00
1CF8
1FFC
1F0E
1E07
1C07
1C07
1C07
1C07
1C07
1C07
1C07
1C07
1C07
ENDCHAR
STARTCHAR $0126
ENCODING 294
SWIDTH 840 0
DWIDTH 21 0
BBX 20 18 0 0
BITMAP
1801C0
1801C0
1801C0
FFFFF0
FFFFF0
1801C0
1801C0
1801C0
1FFFC0
1FFFC0
1801C0
1801C0
1801C0
1801C0
1801C0
1801C0
1801C0
1801C0
ENDCHAR
STARTCHAR $0127
ENCODING 295
SWIDTH 680 0
DWIDTH 17 0
BBX 15 19 0 0
BITMAP
3800
3800
FFC0
FFC0
3800
3800
39F0
3FF8
3E1C
3C0E
380E
380E
380E
380E
380E
380E
380E
380E
380E
ENDCHAR
STARTCHAR $0128
ENCODING 296
SWIDTH 320 0
DWIDTH 8 0
BBX 8 23 0 0
BITMAP
60
FB
8E
00
00
18
18
18
18
18
18
18
18
18
18
18
18
18
18
18
18
18
18
ENDCHAR
STARTCHAR $0129
ENCODING 297
SWIDTH 280 0
DWIDTH 7 0
BBX 7 18 0 0
BITMAP
72
FE
8C
00
00
38
38
38
38
38
38
38
38
38
38
38
38
38
ENDCHAR
STARTCHAR $012A
ENCODING 298
SWIDTH 320 0
DWIDTH 8 0
BBX 6 22 1 0
BITMAP
FC
FC
00
00
30
30
30
30
30
30
30
30
30
30
30
30
30
30
30
30
30
30
ENDCHAR
STARTCHAR $012B
ENCODING 299
SWIDTH 280 0
DWIDTH 7 0
BBX 7 18 0 0
BITMAP
FE
FE
00
00
00
38
38
38
38
38
38
38
38
38
38
38
38
38
ENDCHAR
STARTCHAR $012C
ENCODING 300
SWIDTH 320 0
DWIDTH 8 0
BBX 8 22 0 0
BITMAP
C3
E6
3C
00
18
18
18
18
18
18
18
18
18
18
18
18
18
18
18
18
18
18
ENDCHAR
STARTCHAR $012D
ENCODING 301
SWIDTH 280 0
DWIDTH 7 0
BBX 7 18 0 0
BITMAP
C6
C6
7C
00
00
38
38
38
38
38
38
38
38
38
38
38
38
38
ENDCHAR
STARTCHAR $012E
ENCODING 302
SWIDTH 320 0
DWIDTH 8 0
BBX 4 23 2 -5
BITMAP
60
60
60
60
60
60
60
60
60
60
60
60
60
60
60
60
60
60
60
C0
C0
C0
F0
ENDCHAR
STARTCHAR $012F
ENCODING 303
SWIDTH 280 0
DWIDTH 7 0
BBX 3 24 2 -5
BITMAP
E0
E0
E0
00
00
00
E0
E0
E0
E0
E0
E0
E0
E0
E0
E0
E0
E0
E0
40
80
80
80
E0
ENDCHAR
STARTCHAR $0130
ENCODING 304
SWIDTH 320 0
DWIDTH 8 0
BBX 3 23 2 0
BITMAP
60
E0
60
00
00
60
60
60
60
60
60
60
60
60
60
60
60
60
60
60
60
60
60
ENDCHAR
STARTCHAR $0131
ENCODING 305
SWIDTH 280 0
DWIDTH 7 0
BBX 3 13 2 0
BITMAP
E0
E0
E0
E0
E0
E0
E0
E0
E0
E0
E0
E0
E0
ENDCHAR
STARTCHAR $0132
ENCODING 306
SWIDTH 720 0
DWIDTH 18 0
BBX 14 18 2 0
BITMAP
E01C
E01C
E01C
E01C
E01C
E01C
E01C
E01C
E01C
E01C
001C
0018
0018
0038
4038
70F0
7FE0
1F80
ENDCHAR
STARTCHAR $0133
ENCODING 307
SWIDTH 560 0
DWIDTH 14 0
BBX 10 24 2 -5
BITMAP
E1C0
E1C0
E1C0
0000
0000
0000
E1C0
E1C0
E1C0
E1C0
E1C0
E1C0
E1C0
E1C0
E1C0
E1C0
E1C0
E1C0
E1C0
01C0
01C0
1180
1F80
1F00
ENDCHAR
STARTCHAR $0134
ENCODING 308
SWIDTH 520 0
DWIDTH 13 0
BBX 10 23 0 0
BITMAP
0F00
1F80
39C0
0000
0000
3FC0
3FC0
00C0
00C0
00C0
00C0
00C0
00C0
00C0
00C0
00C0
00C0
00C0
00C0
41C0
E3C0
7F80
3F00
ENDCHAR
STARTCHAR $0135
ENCODING 309
SWIDTH 280 0
DWIDTH 7 0
BBX 9 23 -2 -5
BITMAP
0E00
1B00
3180
0000
0000
0E00
0E00
0E00
0E00
0E00
0E00
0E00
0E00
0E00
0E00
0E00
0E00
0E00
0E00
0E00
8E00
FC00
F800
ENDCHAR
STARTCHAR $0136
ENCODING 310
SWIDTH 720 0
DWIDTH 18 0
BBX 15 24 3 -6
BITMAP
C01C
C038
C070
C0E0
C1C0
C380
C700
C700
CE00
DF00
FB80
F1C0
E1E0
C0E0
C070
C038
C01C
C00E
0000
0000
0600
0700
0200
0200
ENDCHAR
STARTCHAR $0137
ENCODING 311
SWIDTH 600 0
DWIDTH 15 0
BBX 13 25 2 -6
BITMAP
E000
E000
E000
E000
E000
E000
E070
E0E0
E1C0
E380
E700
EE00
FF00
FB80
F1C0
E0E0
E0E0
E070
E038
0000
0000
0600
0600
0600
0400
ENDCHAR
STARTCHAR $0138
ENCODING 312
SWIDTH 600 0
DWIDTH 15 0
BBX 13 13 2 0
BITMAP
E070
E0E0
E1C0
E380
E700
EE00
FF00
FB80
F1C0
E0E0
E0E0
E070
E038
ENDCHAR
STARTCHAR $0139
ENCODING 313
SWIDTH 600 0
DWIDTH 15 0
BBX 13 23 2 0
BITMAP
1C00
3000
6000
8000
0000
6000
6000
6000
6000
6000
6000
6000
6000
6000
6000
6000
6000
6000
6000
6000
6000
7FF8
7FF8
ENDCHAR
STARTCHAR $013A
ENCODING 314
SWIDTH 280 0
DWIDTH 7 0
BBX 5 24 2 0
BITMAP
38
70
E0
00
00
E0
E0
E0
E0
E0
E0
E0
E0
E0
E0
E0
E0
E0
E0
E0
E0
E0
E0
E0
ENDCHAR
STARTCHAR $013B
ENCODING 315
SWIDTH 600 0
DWIDTH 15 0
BBX 12 24 3 -6
BITMAP
C000
C000
C000
C000
C000
C000
C000
C000
C000
C000
C000
C000
C000
C000
C000
C000
FFF0
FFF0
0000
0000
0600
0600
0600
0400
ENDCHAR
STARTCHAR $013C
ENCODING 316
SWIDTH 280 0
DWIDTH 7 0
BBX 3 25 2 -6
BITMAP
E0
E0
E0
E0
E0
E0
E0
E0
E0
E0
E0
E0
E0
E0
E0
E0
E0
E0
E0
00
00
E0
E0
40
40
ENDCHAR
STARTCHAR $013D
ENCODING 317
SWIDTH 600 0
DWIDTH 15 0
BBX 12 19 3 0
BITMAP
00C0
C0C0
C0C0
C0C0
C0C0
C000
C000
C000
C000
C000
C000
C000
C000
C000
C000
C000
C000
FFF0
FFF0
ENDCHAR
STARTCHAR $013E
ENCODING 318
SWIDTH 280 0
DWIDTH 7 0
BBX 7 20 2 0
BITMAP
06
E6
E6
E6
E6
E0
E0
E0
E0
E0
E0
E0
E0
E0
E0
E0
E0
E0
E0
E0
ENDCHAR
STARTCHAR $013F
ENCODING 319
SWIDTH 600 0
DWIDTH 15 0
BBX 12 18 3 0
BITMAP
C000
C000
C000
C000
C000
C000
C180
C1C0
C180
C000
C000
C000
C000
C000
C000
C000
FFF0
FFF0
ENDCHAR
STARTCHAR $0140
ENCODING 320
SWIDTH 360 0
DWIDTH 9 0
BBX 7 19 2 0
BITMAP
E0
E0
E0
E0
E0
E0
E0
E0
E6
EE
E6
E0
E0
E0
E0
E0
E0
E0
E0
ENDCHAR
STARTCHAR $0141
ENCODING 321
SWIDTH 600 0
DWIDTH 15 0
BBX 15 18 0 0
BITMAP
1800
1800
1800
1800
1800
1980
1B80
1F00
1C00
3800
F800
5800
1800
1800
1800
1800
1FFE
1FFE
ENDCHAR
STARTCHAR $0142
ENCODING 322
SWIDTH 280 0
DWIDTH 7 0
BBX 7 19 0 0
BITMAP
38
38
38
38
38
38
38
3E
3E
3C
78
F8
F8
38
38
38
38
38
38
ENDCHAR
STARTCHAR $0143
ENCODING 323
SWIDTH 800 0
DWIDTH 20 0
BBX 15 23 3 0
BITMAP
00E0
01C0
0300
0000
0000
C00E
E00E
F00E
F00E
F80E
DC0E
CE0E
CF0E
C70E
C38E
C1CE
C1EE
C0EE
C07E
C03E
C01E
C01E
C00E
ENDCHAR
STARTCHAR $0144
ENCODING 324
SWIDTH 680 0
DWIDTH 17 0
BBX 13 18 2 0
BITMAP
00E0
0180
0700
0000
0000
E7C0
FFE0
F870
F038
E038
E038
E038
E038
E038
E038
E038
E038
E038
ENDCHAR
STARTCHAR $0145
ENCODING 325
SWIDTH 800 0
DWIDTH 20 0
BBX 15 24 3 -6
BITMAP
C00E
E00E
F00E
F00E
F80E
DC0E
CE0E
CF0E
C70E
C38E
C1CE
C1EE
C0EE
C07E
C03E
C01E
C01E
C00E
0000
0000
0300
0300
0100
0300
ENDCHAR
STARTCHAR $0146
ENCODING 326
SWIDTH 680 0
DWIDTH 17 0
BBX 13 19 2 -6
BITMAP
E7C0
FFE0
F870
F038
E038
E038
E038
E038
E038
E038
E038
E038
E038
0000
0000
0300
0700
0200
0200
ENDCHAR
STARTCHAR $0147
ENCODING 327
SWIDTH 800 0
DWIDTH 20 0
BBX 15 23 3 0
BITMAP
1860
0EC0
0780
0000
0000
C00E
E00E
F00E
F00E
F80E
DC0E
CE0E
CF0E
C70E
C38E
C1CE
C1EE
C0EE
C07E
C03E
C01E
C01E
C00E
ENDCHAR
STARTCHAR $0148
ENCODING 328
SWIDTH 680 0
DWIDTH 17 0
BBX 13 18 2 0
BITMAP
18E0
0DC0
0700
0000
0000
E7C0
FFE0
F870
F038
E038
E038
E038
E038
E038
E038
E038
E038
E038
ENDCHAR
STARTCHAR $0149
ENCODING 329
SWIDTH 760 0
DWIDTH 19 0
BBX 16 18 1 0
BITMAP
C000
C000
C000
C000
C000
CCF8
CFFE
0F0E
0E07
0C03
0C03
0C03
0C03
0C03
0C03
0C03
0C03
0C03
ENDCHAR
STARTCHAR $014A
ENCODING 330
SWIDTH 800 0
DWIDTH 20 0
BBX 15 23 3 -5
BITMAP
C00E
E00E
F00E
F00E
F80E
DC0E
CE0E
CF0E
C70E
C38E
C1CE
C1EE
C0EE
C07E
C03E
C01E
C01E
C00E
000E
000C
071C
07F8
01F0
ENDCHAR
STARTCHAR $014B
ENCODING 331
SWIDTH 680 0
DWIDTH 17 0
BBX 13 18 2 -5
BITMAP
E7C0
FFE0
F870
F038
E038
E038
E038
E038
E038
E038
E038
E038
E038
0038
0038
0238
03F0
03E0
ENDCHAR
STARTCHAR $014C
ENCODING 332
SWIDTH 840 0
DWIDTH 21 0
BBX 19 21 1 0
BITMAP
07FC00
000000
000000
03F800
0FFE00
1F1F00
380380
7001C0
7001C0
6000E0
E000E0
E000E0
E000E0
E000E0
6000C0
7001C0
7001C0
380380
1F0F00
0FFE00
03F800
ENDCHAR
STARTCHAR $014D
ENCODING 333
SWIDTH 640 0
DWIDTH 16 0
BBX 14 18 1 0
BITMAP
1FE0
1FE0
0000
0000
0000
0FC0
3FF0
7878
7038
E01C
E01C
C01C
E01C
E01C
7038
7870
3FE0
0FC0
ENDCHAR
STARTCHAR $014E
ENCODING 334
SWIDTH 840 0
DWIDTH 21 0
BBX 19 22 1 0
BITMAP
020800
03B800
01F000
000000
03F800
0FFE00
1F1F00
380380
7001C0
7001C0
6000E0
E000E0
E000E0
E000E0
E000E0
6000C0
7001C0
7001C0
380380
1F0F00
0FFE00
03F800
ENDCHAR
STARTCHAR $014F
ENCODING 335
SWIDTH 640 0
DWIDTH 16 0
BBX 14 18 1 0
BITMAP
1860
1860
0FC0
0000
0000
0FC0
3FF0
7878
7038
E01C
E01C
C01C
E01C
E01C
7038
7870
3FE0
0FC0
ENDCHAR
STARTCHAR $0150
ENCODING 336
SWIDTH 840 0
DWIDTH 21 0
BBX 19 22 1 0
BITMAP
00EE00
01CC00
019800
000000
03F800
0FFE00
1F1F00
380380
7001C0
7001C0
6000E0
E000E0
E000E0
E000E0
E000E0
6000C0
7001C0
7001C0
380380
1F0F00
0FFE00
03F800
ENDCHAR
STARTCHAR $0151
ENCODING 337
SWIDTH 640 0
DWIDTH 16 0
BBX 14 18 1 0
BITMAP
0330
0670
0C60
0000
0000
0FC0
3FF0
7878
7038
E01C
E01C
C01C
E01C
E01C
7038
7870
3FE0
0FC0
ENDCHAR
STARTCHAR $0152
ENCODING 338
SWIDTH 1120 0
DWIDTH 28 0
BBX 26 18 1 0
BITMAP
03FFFF80
0FFFFF80
1F060000
38060000
70060000
70060000
60060000
E0060000
E007FF00
E007FF00
E0060000
E0060000
70060000
70060000
38060000
1F060000
0FFFFFC0
03FFFFC0
ENDCHAR
STARTCHAR $0153
ENCODING 339
SWIDTH 1080 0
DWIDTH 27 0
BBX 25 13 1 0
BITMAP
0FC1F800
3FE3FC00
78770E00
603E0300
E01C0300
E01FFF80
E01FFF80
E01C0000
E01C0000
703E0200
78778600
3FE3FE00
0FC0F800
ENDCHAR
STARTCHAR $0154
ENCODING 340
SWIDTH 720 0
DWIDTH 18 0
BBX 14 23 3 0
BITMAP
01C0
0380
0700
0000
0000
FFC0
FFF0
C078
C038
C01C
C01C
C01C
C01C
C018
C078
FFF0
FFC0
C0C0
C0E0
C070
C030
C038
C01C
ENDCHAR
STARTCHAR $0155
ENCODING 341
SWIDTH 400 0
DWIDTH 10 0
BBX 8 18 2 0
BITMAP
07
0C
18
20
00
E6
FE
FC
F0
E0
E0
E0
E0
E0
E0
E0
E0
E0
ENDCHAR
STARTCHAR $0156
ENCODING 342
SWIDTH 720 0
DWIDTH 18 0
BBX 14 24 3 -6
BITMAP
FFC0
FFF0
C078
C038
C01C
C01C
C01C
C01C
C018
C078
FFF0
FFC0
C0C0
C0E0
C070
C030
C038
C01C
0000
0000
0600
0700
0200
0600
ENDCHAR
STARTCHAR $0157
ENCODING 343
SWIDTH 400 0
DWIDTH 10 0
BBX 7 19 2 -6
BITMAP
E6
FE
FC
F0
E0
E0
E0
E0
E0
E0
E0
E0
E0
00
00
E0
E0
40
40
ENDCHAR
STARTCHAR $0158
ENCODING 344
SWIDTH 720 0
DWIDTH 18 0
BBX 14 23 3 0
BITMAP
38C0
1D80
0F00
0000
0000
FFC0
FFF0
C078
C038
C01C
C01C
C01C
C01C
C018
C078
FFF0
FFC0
C0C0
C0E0
C070
C030
C038
C01C
ENDCHAR
STARTCHAR $0159
ENCODING 345
SWIDTH 400 0
DWIDTH 10 0
BBX 8 18 2 0
BITMAP
C3
6E
3C
00
00
E6
FE
FC
F0
E0
E0
E0
E0
E0
E0
E0
E0
E0
ENDCHAR
STARTCHAR $015A
ENCODING 346
SWIDTH 640 0
DWIDTH 16 0
BBX 13 22 1 0
BITMAP
00E0
0180
0300
0000
0FC0
3FF8
7830
6000
6000
E000
7000
7C00
3F80
0FF0
00F8
0038
0018
0018
4018
F078
7FF0
1FC0
ENDCHAR
STARTCHAR $015B
ENCODING 347
SWIDTH 520 0
DWIDTH 13 0
BBX 11 18 1 0
BITMAP
0380
0700
0E00
0000
0000
1F80
7FC0
E0C0
C000
E000
F000
7F80
1FC0
00E0
00E0
C0E0
FFC0
3F00
ENDCHAR
STARTCHAR $015C
ENCODING 348
SWIDTH 640 0
DWIDTH 16 0
BBX 13 22 1 0
BITMAP
0780
0EC0
1860
0000
0FC0
3FF8
7830
6000
6000
E000
7000
7C00
3F80
0FF0
00F8
0038
0018
0018
4018
F078
7FF0
1FC0
ENDCHAR
STARTCHAR $015D
ENCODING 349
SWIDTH 520 0
DWIDTH 13 0
BBX 11 18 1 0
BITMAP
0E00
1F00
7180
0000
0000
1F80
7FC0
E0C0
C000
E000
F000
7F80
1FC0
00E0
00E0
C0E0
FFC0
3F00
ENDCHAR
STARTCHAR $015E
ENCODING 350
SWIDTH 640 0
DWIDTH 16 0
BBX 13 23 1 -5
BITMAP
0FC0
3FF8
7830
6000
6000
E000
7000
7C00
3F80
0FF0
00F8
0038
0018
0018
4018
F078
7FF0
1FC0
0200
0380
0080
0080
0F80
ENDCHAR
STARTCHAR $015F
ENCODING 351
SWIDTH 520 0
DWIDTH 13 0
BBX 11 18 1 -5
BITMAP
1F80
7FC0
E0C0
C000
E000
F000
7F80
1FC0
00E0
00E0
C0E0
FFC0
3F00
0C00
0E00
0300
0300
1E00
ENDCHAR
STARTCHAR $0160
ENCODING 352
SWIDTH 640 0
DWIDTH 16 0
BBX 13 22 1 0
BITMAP
1CE0
0FC0
0780
0000
0FC0
3FF8
7830
6000
6000
E000
7000
7C00
3F80
0FF0
00F8
0038
0018
0018
4018
F078
7FF0
1FC0
ENDCHAR
STARTCHAR $0161
ENCODING 353
SWIDTH 520 0
DWIDTH 13 0
BBX 11 18 1 0
BITMAP
7180
3B00
1E00
0000
0000
1F80
7FC0
E0C0
C000
E000
F000
7F80
1FC0
00E0
00E0
C0E0
FFC0
3F00
ENDCHAR
STARTCHAR $0162
ENCODING 354
SWIDTH 600 0
DWIDTH 15 0
BBX 15 23 0 -5
BITMAP
FFFE
FFFE
0380
0380
0380
0380
0380
0380
0380
0380
0380
0380
0380
0380
0380
0380
0380
0380
0300
0380
00C0
00C0
0780
ENDCHAR
STARTCHAR $0163
ENCODING 355
SWIDTH 400 0
DWIDTH 10 0
BBX 9 21 0 -5
BITMAP
1800
1800
1800
FF80
FF80
1800
1800
1800
1800
1800
1800
1800
1800
1C00
1F80
0F80
0600
0700
0180
0180
0F00
ENDCHAR
STARTCHAR $0164
ENCODING 356
SWIDTH 600 0
DWIDTH 15 0
BBX 15 23 0 0
BITMAP
1C60
0EC0
0780
0000
0000
FFFE
FFFE
0380
0380
0380
0380
0380
0380
0380
0380
0380
0380
0380
0380
0380
0380
0380
0380
ENDCHAR
STARTCHAR $0165
ENCODING 357
SWIDTH 400 0
DWIDTH 10 0
BBX 9 19 0 0
BITMAP
0180
0180
0180
1980
1800
1800
FF80
FF80
1800
1800
1800
1800
1800
1800
1800
1800
1C00
1F80
0F80
ENDCHAR
STARTCHAR $0166
ENCODING 358
SWIDTH 600 0
DWIDTH 15 0
BBX 15 18 0 0
BITMAP
FFFE
FFFE
0380
0380
0380
0380
0380
0380
3FF0
3FF0
0380
0380
0380
0380
0380
0380
0380
0380
ENDCHAR
STARTCHAR $0167
ENCODING 359
SWIDTH 440 0
DWIDTH 11 0
BBX 10 16 0 0
BITMAP
1800
1800
1800
FF80
FF80
1800
1800
1800
7F80
7F80
1800
1800
1800
1C00
1FC0
0780
ENDCHAR
STARTCHAR $0168
ENCODING 360
SWIDTH 800 0
DWIDTH 20 0
BBX 15 23 2 0
BITMAP
0600
0FB0
08E0
0000
0000
E006
E006
E006
E006
E006
E006
E006
E006
E006
E006
E006
6006
6006
700E
701C
3C3C
1FF8
07E0
ENDCHAR
STARTCHAR $0169
ENCODING 361
SWIDTH 680 0
DWIDTH 17 0
BBX 13 18 2 0
BITMAP
1800
1E40
33C0
0000
0000
E038
E038
E038
E038
E038
E038
E038
E038
E038
E078
70F8
3FF8
1F38
ENDCHAR
STARTCHAR $016A
ENCODING 362
SWIDTH 800 0
DWIDTH 20 0
BBX 15 22 2 0
BITMAP
0FF0
0FF0
0000
0000
E006
E006
E006
E006
E006
E006
E006
E006
E006
E006
E006
6006
6006
700E
701C
3C3C
1FF8
07E0
ENDCHAR
STARTCHAR $016B
ENCODING 363
SWIDTH 680 0
DWIDTH 17 0
BBX 13 18 2 0
BITMAP
3FC0
3FC0
0000
0000
0000
E038
E038
E038
E038
E038
E038
E038
E038
E038
E078
70F8
3FF8
1F38
ENDCHAR
STARTCHAR $016C
ENCODING 364
SWIDTH 800 0
DWIDTH 20 0
BBX 15 22 2 0
BITMAP
0C30
0E60
03C0
0000
E006
E006
E006
E006
E006
E006
E006
E006
E006
E006
E006
6006
6006
700E
701C
3C3C
1FF8
07E0
ENDCHAR
STARTCHAR $016D
ENCODING 365
SWIDTH 680 0
DWIDTH 17 0
BBX 13 18 2 0
BITMAP
3040
18C0
0F80
0000
0000
E038
E038
E038
E038
E038
E038
E038
E038
E038
E078
70F8
3FF8
1F38
ENDCHAR
STARTCHAR $016E
ENCODING 366
SWIDTH 800 0
DWIDTH 20 0
BBX 15 25 2 0
BITMAP
03C0
0640
0460
0640
03C0
0000
0000
E006
E006
E006
E006
E006
E006
E006
E006
E006
E006
E006
6006
6006
700E
701C
3C3C
1FF8
07E0
ENDCHAR
STARTCHAR $016F
ENCODING 367
SWIDTH 680 0
DWIDTH 17 0
BBX 13 20 2 0
BITMAP
0700
0880
0880
0880
0700
0000
0000
E038
E038
E038
E038
E038
E038
E038
E038
E038
E078
70F8
3FF8
1F38
ENDCHAR
STARTCHAR $0170
ENCODING 368
SWIDTH 800 0
DWIDTH 20 0
BBX 15 23 2 0
BITMAP
0198
0338
0630
0000
0000
E006
E006
E006
E006
E006
E006
E006
E006
E006
E006
E006
6006
6006
700E
701C
3C3C
1FF8
07E0
ENDCHAR
STARTCHAR $0171
ENCODING 369
SWIDTH 680 0
DWIDTH 17 0
BBX 13 18 2 0
BITMAP
0670
0C60
0CC0
0000
0000
E038
E038
E038
E038
E038
E038
E038
E038
E038
E078
70F8
3FF8
1F38
ENDCHAR
STARTCHAR $0172
ENCODING 370
SWIDTH 800 0
DWIDTH 20 0
BBX 15 23 2 -5
BITMAP
E006
E006
E006
E006
E006
E006
E006
E006
E006
E006
E006
6006
6006
700E
701C
3C3C
1FF8
07E0
0180
0300
0200
0600
03E0
ENDCHAR
STARTCHAR $0173
ENCODING 371
SWIDTH 680 0
DWIDTH 17 0
BBX 13 18 2 -5
BITMAP
E038
E038
E038
E038
E038
E038
E038
E038
E038
E078
70F8
3FF8
1F38
0070
00C0
00C0
00C0
00F8
ENDCHAR
STARTCHAR $0174
ENCODING 372
SWIDTH 1120 0
DWIDTH 28 0
BBX 26 23 1 0
BITMAP
001E0000
003F0000
00738000
00000000
00000000
E00C00C0
E00E01C0
601E01C0
601E0180
701F0180
30330380
30330300
38338300
18618700
18618600
1C61C600
0CC0CE00
0CC0CC00
0EC0EC00
0F807C00
07807800
07807800
07003800
ENDCHAR
STARTCHAR $0175
ENCODING 373
SWIDTH 880 0
DWIDTH 22 0
BBX 22 18 0 0
BITMAP
007800
00FC00
01C600
000000
000000
E0300C
60380C
607818
707C18
306C38
30CC30
18C630
19C660
1D8760
0D8360
0F03C0
0F03C0
0701C0
ENDCHAR
STARTCHAR $0176
ENCODING 374
SWIDTH 640 0
DWIDTH 16 0
BBX 16 23 0 0
BITMAP
03C0
07E0
0E70
0000
0000
E007
6006
700E
380C
181C
1C18
0C30
0E70
0760
03E0
03C0
0180
0180
0180
0180
0180
0180
0180
ENDCHAR
STARTCHAR $0177
ENCODING 375
SWIDTH 560 0
DWIDTH 14 0
BBX 14 23 0 -5
BITMAP
0780
0DC0
18E0
0000
0000
E01C
6018
7018
7030
3030
3870
1860
1CE0
0CC0
0FC0
0780
0780
0300
0300
0700
8E00
FC00
7800
ENDCHAR
STARTCHAR $0178
ENCODING 376
SWIDTH 640 0
DWIDTH 16 0
BBX 16 23 0 0
BITMAP
0020
0670
0660
0000
0000
E007
6006
700E
380C
181C
1C18
0C30
0E70
0760
03E0
03C0
0180
0180
0180
0180
0180
0180
0180
ENDCHAR
STARTCHAR $0179
ENCODING 377
SWIDTH 640 0
DWIDTH 16 0
BBX 15 23 1 0
BITMAP
00E0
01C0
0380
0000
0000
FFFC
FFFC
001C
0038
0070
00E0
00E0
01C0
0380
0700
0700
0E00
1C00
3800
7000
7000
FFFE
FFFE
ENDCHAR
STARTCHAR $017A
ENCODING 378
SWIDTH 520 0
DWIDTH 13 0
BBX 11 18 1 0
BITMAP
0380
0700
0E00
0000
0000
FFE0
FFE0
01C0
0180
0300
0700
0E00
1C00
3800
3000
7000
FFE0
FFE0
ENDCHAR
STARTCHAR $017B
ENCODING 379
SWIDTH 640 0
DWIDTH 16 0
BBX 15 23 1 0
BITMAP
0300
0380
0380
0000
0000
FFFC
FFFC
001C
0038
0070
00E0
00E0
01C0
0380
0700
0700
0E00
1C00
3800
7000
7000
FFFE
FFFE
ENDCHAR
STARTCHAR $017C
ENCODING 380
SWIDTH 520 0
DWIDTH 13 0
BBX 11 19 1 0
BITMAP
0E00
0E00
0E00
0000
0000
0000
FFE0
FFE0
01C0
0180
0300
0700
0E00
1C00
3800
3000
7000
FFE0
FFE0
ENDCHAR
STARTCHAR $017D
ENCODING 381
SWIDTH 640 0
DWIDTH 16 0
BBX 15 23 1 0
BITMAP
1C60
0EC0
0780
0000
0000
FFFC
FFFC
001C
0038
0070
00E0
00E0
01C0
0380
0700
0700
0E00
1C00
3800
7000
7000
FFFE
FFFE
ENDCHAR
STARTCHAR $017E
ENCODING 382
SWIDTH 520 0
DWIDTH 13 0
BBX 11 18 1 0
BITMAP
31C0
1B00
0E00
0000
0000
FFE0
FFE0
01C0
0180
0300
0700
0E00
1C00
3800
3000
7000
FFE0
FFE0
ENDCHAR
STARTCHAR $017F
ENCODING 383
SWIDTH 320 0
DWIDTH 8 0
BBX 9 19 1 0
BITMAP
0F80
1F80
3800
3000
3000
3000
F000
F000
3000
3000
3000
3000
3000
3000
3000
3000
3000
3000
3000
ENDCHAR
STARTCHAR $018F
ENCODING 399
SWIDTH 800 0
DWIDTH 20 0
BBX 18 18 1 0
BITMAP
03F000
1FFC00
3E1F00
100780
000380
0001C0
0001C0
0000C0
FFFFC0
FFFFC0
E000C0
6001C0
7001C0
700380
380700
1E1F00
0FFC00
03F000
ENDCHAR
STARTCHAR $0192
ENCODING 402
SWIDTH 440 0
DWIDTH 11 0
BBX 14 24 -2 -5
BITMAP
007C
00FC
01C0
0180
0180
0380
0FF8
0FF0
0380
0300
0300
0300
0300
0300
0700
0700
0700
0600
0600
0600
0600
0E00
FC00
F800
ENDCHAR
STARTCHAR $01A0
ENCODING 416
SWIDTH 840 0
DWIDTH 21 0
BBX 19 22 1 0
BITMAP
000040
000040
000040
0000C0
03FFC0
0FFF00
1F1F00
380380
7001C0
7001C0
6000E0
E000E0
E000E0
E000E0
E000E0
6000C0
7001C0
7001C0
3C0380
1F0F00
0FFE00
03F800
ENDCHAR
STARTCHAR $01A1
ENCODING 417
SWIDTH 640 0
DWIDTH 16 0
BBX 14 17 1 0
BITMAP
0008
0008
000C
0008
0FF8
3FE0
7870
7038
E01C
E01C
C01C
E01C
E01C
7038
7870
3FE0
0FC0
ENDCHAR
STARTCHAR $01AF
ENCODING 431
SWIDTH 800 0
DWIDTH 20 0
BBX 18 22 2 0
BITMAP
000080
0000C0
0000C0
0000C0
E00780
E00700
E00600
E00600
E00600
E00600
E00600
E00600
E00600
E00600
E00600
600600
600600
700E00
701C00
3C3C00
1FF800
07E000
ENDCHAR
STARTCHAR $01B0
ENCODING 432
SWIDTH 680 0
DWIDTH 17 0
BBX 15 17 2 0
BITMAP
0004
0006
0006
0006
E03C
E038
E038
E038
E038
E038
E038
E038
E038
E078
70F8
3FF8
1F38
ENDCHAR
STARTCHAR $01B7
ENCODING 439
SWIDTH 640 0
DWIDTH 16 0
BBX 13 18 1 0
BITMAP
FFF8
FFF8
0070
00E0
01C0
0380
0700
07C0
07F0
0078
0038
0018
0018
0018
C038
F070
7FF0
1FC0
ENDCHAR
STARTCHAR $01C4
ENCODING 452
SWIDTH 1440 0
DWIDTH 36 0
BBX 32 23 3 0
BITMAP
00000718
000003B0
000001E0
00000000
00000000
FFC03FFF
FFF83FFF
C07C0007
C01E000E
C00E001C
C0070038
C0030070
C0030070
C00300E0
C00301C0
C0030380
C0030380
C0070700
C00E0E00
C01E1C00
C07C3800
FFF83FFF
FFC03FFF
ENDCHAR
STARTCHAR $01C5
ENCODING 453
SWIDTH 1360 0
DWIDTH 34 0
BBX 30 19 3 0
BITMAP
00000E30
FFC00760
FFF003C0
C07C0000
C01E0000
C00E0000
C0071FFC
C0071FFC
C0030038
C0030070
C00300E0
C00300C0
C0030180
C0070380
C0060700
C00E0E00
C07C1C00
FFF81FFC
FFC01FFC
ENDCHAR
STARTCHAR $01C6
ENCODING 454
SWIDTH 1200 0
DWIDTH 30 0
BBX 28 19 1 0
BITMAP
001C18C0
001C0D80
001C0700
001C0000
001C0000
001C0000
0F9C7FF0
3FFC7FF0
787C00E0
603C00C0
E01C0180
E01C0380
C01C0700
E01C0E00
E01C1C00
703C1800
787C3000
3FFC7FF0
0F9C7FF0
ENDCHAR
STARTCHAR $01C7
ENCODING 455
SWIDTH 1120 0
DWIDTH 28 0
BBX 22 18 3 0
BITMAP
C007FC
C007FC
C0000C
C0000C
C0000C
C0000C
C0000C
C0000C
C0000C
C0000C
C0000C
C0000C
C0000C
C0000C
C00C1C
C00E3C
FFF7F8
FFF3E0
ENDCHAR
STARTCHAR $01C8
ENCODING 456
SWIDTH 880 0
DWIDTH 22 0
BBX 17 24 3 -5
BITMAP
000380
C00380
C00380
C00000
C00000
C00000
C00380
C00380
C00380
C00380
C00380
C00380
C00380
C00380
C00380
C00380
C00380
FFF380
FFF380
000380
000380
002300
003F00
003E00
ENDCHAR
STARTCHAR $01C9
ENCODING 457
SWIDTH 560 0
DWIDTH 14 0
BBX 10 24 2 -5
BITMAP
E1C0
E1C0
E1C0
E000
E000
E000
E1C0
E1C0
E1C0
E1C0
E1C0
E1C0
E1C0
E1C0
E1C0
E1C0
E1C0
E1C0
E1C0
01C0
01C0
1180
1F80
1F00
ENDCHAR
STARTCHAR $01CA
ENCODING 458
SWIDTH 1320 0
DWIDTH 33 0
BBX 28 18 3 0
BITMAP
C00E1FF0
E00E1FF0
F00E0070
F00E0070
F80E0070
DC0E0070
CE0E0070
CF0E0070
C70E0070
C38E0070
C1CE0070
C0EE0070
C0FE0070
C07E0070
C03E2060
C01E78E0
C01E3FC0
C00E0F80
ENDCHAR
STARTCHAR $01CB
ENCODING 459
SWIDTH 1080 0
DWIDTH 27 0
BBX 23 24 3 -5
BITMAP
00000C
C00E1E
E00E0C
F00E00
F00E00
F80E00
FC0E0C
DE0E0C
CE0E0C
C70E0C
C38E0C
C3CE0C
C1EE0C
C0EE0C
C07E0C
C03E0C
C01E0C
C01E0C
C00E0C
00000C
00000C
00001C
0001F8
0001F0
ENDCHAR
STARTCHAR $01CC
ENCODING 460
SWIDTH 960 0
DWIDTH 24 0
BBX 20 23 2 -5
BITMAP
000070
000070
000070
000000
000000
E7C070
FFE070
F87070
F03870
E03870
E03870
E03870
E03870
E03870
E03870
E03870
E03870
E03870
000070
000070
000470
0007E0
0007C0
ENDCHAR
STARTCHAR $01CD
ENCODING 461
SWIDTH 720 0
DWIDTH 18 0
BBX 18 23 0 0
BITMAP
061800
03B000
01E000
000000
000000
00E000
01E000
01E000
03B000
033000
073800
061800
061C00
0C0C00
0C0E00
1C0600
1FFE00
3FFF00
300300
300380
700180
6001C0
E001C0
ENDCHAR
STARTCHAR $01CE
ENCODING 462
SWIDTH 600 0
DWIDTH 15 0
BBX 12 18 1 0
BITMAP
38C0
1D80
0F00
0000
0000
1F80
7FE0
60E0
0070
0070
0FF0
7FF0
6070
E070
E070
E0F0
7FF0
1F70
ENDCHAR
STARTCHAR $01D3
ENCODING 467
SWIDTH 800 0
DWIDTH 20 0
BBX 15 23 2 0
BITMAP
0C30
06E0
03C0
0000
0000
E006
E006
E006
E006
E006
E006
E006
E006
E006
E006
E006
6006
6006
700E
701C
3C3C
1FF8
07E0
ENDCHAR
STARTCHAR $01D4
ENCODING 468
SWIDTH 680 0
DWIDTH 17 0
BBX 13 18 2 0
BITMAP
38C0
0D80
0700
0000
0000
E038
E038
E038
E038
E038
E038
E038
E038
E038
E078
70F8
3FF8
1F38
ENDCHAR
STARTCHAR $01E4
ENCODING 484
SWIDTH 800 0
DWIDTH 20 0
BBX 19 18 1 0
BITMAP
03F800
0FFE00
1F0F00
380300
700000
700000
600000
E00000
E00000
E00300
E00300
E07FE0
707FE0
700300
380300
1F0F00
0FFE00
03F800
ENDCHAR
STARTCHAR $01E5
ENCODING 485
SWIDTH 680 0
DWIDTH 17 0
BBX 16 18 1 -5
BITMAP
0FCC
3FEC
787C
601C
E01C
E00C
E00C
E01C
601C
787C
3FEC
0FCC
001C
03FF
03FF
7038
7FF0
1FC0
ENDCHAR
STARTCHAR $01E6
ENCODING 486
SWIDTH 760 0
DWIDTH 19 0
BBX 16 22 1 0
BITMAP
0718
01F0
00E0
0000
03F8
0FFE
1F0F
3803
7000
7000
6000
E000
E000
E003
E003
6003
7003
7003
3C03
1F0F
0FFE
03F8
ENDCHAR
STARTCHAR $01E7
ENCODING 487
SWIDTH 680 0
DWIDTH 17 0
BBX 14 23 1 -5
BITMAP
1C60
0EC0
0780
0000
0000
0F8C
3FEC
787C
703C
E01C
E01C
C00C
E00C
E01C
701C
787C
3FEC
0F8C
001C
0018
7038
7FF0
1FC0
ENDCHAR
STARTCHAR $01E8
ENCODING 488
SWIDTH 720 0
DWIDTH 18 0
BBX 15 23 3 0
BITMAP
38C0
1D80
0F00
0000
0000
C01C
C038
C070
C0E0
C1C0
C380
C700
C700
CE00
DF00
FB80
F1C0
E1E0
C0E0
C070
C038
C01C
C00E
ENDCHAR
STARTCHAR $01E9
ENCODING 489
SWIDTH 600 0
DWIDTH 15 0
BBX 15 24 0 0
BITMAP
C600
6C00
3800
0000
0000
3800
3800
3800
3800
3800
3800
381C
3838
3870
38E0
39C0
3B80
3FC0
3EE0
3C70
3838
3838
381C
380E
ENDCHAR
STARTCHAR $01EA
ENCODING 490
SWIDTH 840 0
DWIDTH 21 0
BBX 19 23 1 -5
BITMAP
03F800
0FFE00
1F1F00
380380
7001C0
7001C0
6000E0
E000E0
E000E0
E000E0
E000E0
E000C0
7001C0
7001C0
380380
1E0F00
0FFE00
03F800
00C000
018000
010000
018000
01F000
ENDCHAR
STARTCHAR $01EB
ENCODING 491
SWIDTH 640 0
DWIDTH 16 0
BBX 14 18 1 -5
BITMAP
0FC0
3FF0
7878
7038
E01C
E01C
C01C
E01C
E01C
7038
7870
3FE0
0FC0
0300
0600
0400
0600
07C0
ENDCHAR
STARTCHAR $01EE
ENCODING 494
SWIDTH 640 0
DWIDTH 16 0
BBX 13 23 1 0
BITMAP
18E0
0D80
0700
0000
0000
FFF8
FFF8
0070
00E0
01C0
0380
0700
07C0
07F0
0078
0038
0018
0018
0018
C038
F070
7FF0
1FC0
ENDCHAR
STARTCHAR $01EF
ENCODING 495
SWIDTH 520 0
DWIDTH 13 0
BBX 12 23 0 -5
BITMAP
31C0
1B00
0E00
0000
0000
FFF0
FFF0
00E0
00C0
0180
0300
0600
0F80
0FE0
00F0
0070
0030
0030
0030
8070
F0E0
FFE0
3F80
ENDCHAR
STARTCHAR $01FA
ENCODING 506
SWIDTH 720 0
DWIDTH 18 0
BBX 18 27 0 0
BITMAP
000800
001800
01F000
013000
021000
013000
01E000
000000
000000
00E000
01E000
01E000
03B000
033000
073800
061800
061C00
0C0C00
0C0E00
1C0600
1FFE00
3FFF00
300300
300380
700180
6001C0
E001C0
ENDCHAR
STARTCHAR $01FB
ENCODING 507
SWIDTH 600 0
DWIDTH 15 0
BBX 12 22 1 0
BITMAP
0040
00E0
0780
0980
0880
0880
0980
0700
0000
1F80
7FE0
60E0
0070
0070
0FF0
7FF0
6070
E070
E070
E0F0
7FF0
1F70
ENDCHAR
STARTCHAR $01FC
ENCODING 508
SWIDTH 1040 0
DWIDTH 26 0
BBX 25 23 0 0
BITMAP
00038000
00070000
000E0000
00000000
00000000
003FFF00
003FFF00
006E0000
00EE0000
00CE0000
01CE0000
018E0000
038E0000
070FFE00
070FFE00
0E0E0000
0E0E0000
1FFE0000
1FFE0000
380E0000
700E0000
700FFF80
E00FFF80
ENDCHAR
STARTCHAR $01FD
ENCODING 509
SWIDTH 1000 0
DWIDTH 25 0
BBX 23 18 1 0
BITMAP
000E00
001800
007000
000000
000000
1F83E0
7FCFF8
60FC38
00780C
00700C
0FFFFE
7FFFFE
607000
E07000
E07808
60FE18
7FCFF8
1F03E0
ENDCHAR
STARTCHAR $01FE
ENCODING 510
SWIDTH 840 0
DWIDTH 21 0
BBX 19 24 1 -2
BITMAP
003800
007000
00E000
0001C0
03F980
0FFF00
1F1F00
380F80
700DC0
7019C0
6030C0
E030E0
E060E0
E0C0E0
E180E0
6180C0
7301C0
7601C0
3E0380
1F0F00
1FFE00
33F800
300000
600000
ENDCHAR
STARTCHAR $01FF
ENCODING 511
SWIDTH 640 0
DWIDTH 16 0
BBX 14 20 1 -2
BITMAP
00E0
0180
0300
0408
0010
0FF0
3FE0
7878
70F8
E09C
E11C
C31C
E21C
E41C
7C38
7870
3FE0
3FC0
6000
4000
ENDCHAR
STARTCHAR $0200
ENCODING 512
SWIDTH 720 0
DWIDTH 18 0
BBX 18 23 0 0
BITMAP
0CC000
0E6000
063000
000000
000000
00E000
01E000
01E000
03B000
033000
073800
061800
061C00
0C0C00
0C0E00
1C0600
1FFE00
3FFF00
300300
300380
700180
6001C0
E001C0
ENDCHAR
STARTCHAR $0201
ENCODING 513
SWIDTH 600 0
DWIDTH 15 0
BBX 12 18 1 0
BITMAP
6700
3300
3980
0000
0000
1F80
7FE0
60E0
0070
0070
0FF0
7FF0
6070
E070
E070
E0F0
7FF0
1F70
ENDCHAR
STARTCHAR $0202
ENCODING 514
SWIDTH 720 0
DWIDTH 18 0
BBX 18 23 0 0
BITMAP
01E000
033800
061800
060800
000000
00E000
01E000
01E000
03B000
033000
073800
061800
061C00
0C0C00
0C0E00
1C0600
1FFE00
3FFF00
300300
300380
700180
6001C0
E001C0
ENDCHAR
STARTCHAR $0203
ENCODING 515
SWIDTH 600 0
DWIDTH 15 0
BBX 12 19 1 0
BITMAP
0F00
1DC0
30C0
3040
0000
0000
1F80
7FE0
60E0
0070
0070
0FF0
7FF0
6070
E070
E070
E0F0
7FF0
1F70
ENDCHAR
STARTCHAR $0204
ENCODING 516
SWIDTH 680 0
DWIDTH 17 0
BBX 12 23 3 0
BITMAP
E600
6700
3380
0000
0000
FFF0
FFF0
C000
C000
C000
C000
C000
C000
FFE0
FFE0
C000
C000
C000
C000
C000
C000
FFF0
FFF0
ENDCHAR
STARTCHAR $0205
ENCODING 517
SWIDTH 600 0
DWIDTH 15 0
BBX 13 18 1 0
BITMAP
7700
3380
1980
0000
0000
0F80
3FE0
7070
6038
E018
FFF8
FFF8
E000
E000
7000
7870
3FF0
0FC0
ENDCHAR
STARTCHAR $0206
ENCODING 518
SWIDTH 680 0
DWIDTH 17 0
BBX 12 23 3 0
BITMAP
0F00
3B80
30C0
20C0
0000
FFF0
FFF0
C000
C000
C000
C000
C000
C000
FFE0
FFE0
C000
C000
C000
C000
C000
C000
FFF0
FFF0
ENDCHAR
STARTCHAR $0207
ENCODING 519
SWIDTH 600 0
DWIDTH 15 0
BBX 13 19 1 0
BITMAP
0780
1DC0
1860
1060
0000
0000
0F80
3FE0
7070
6038
E018
FFF8
FFF8
E000
E000
7000
7870
3FF0
0FC0
ENDCHAR
STARTCHAR $0208
ENCODING 520
SWIDTH 320 0
DWIDTH 8 0
BBX 9 23 -2 0
BITMAP
E600
7300
3380
0000
0000
0600
0600
0600
0600
0600
0600
0600
0600
0600
0600
0600
0600
0600
0600
0600
0600
0600
0600
ENDCHAR
STARTCHAR $0209
ENCODING 521
SWIDTH 280 0
DWIDTH 7 0
BBX 8 18 -2 0
BITMAP
EE
67
33
00
00
0E
0E
0E
0E
0E
0E
0E
0E
0E
0E
0E
0E
0E
ENDCHAR
STARTCHAR $020A
ENCODING 522
SWIDTH 320 0
DWIDTH 8 0
BBX 8 23 0 0
BITMAP
3C
6E
C3
83
00
18
18
18
18
18
18
18
18
18
18
18
18
18
18
18
18
18
18
ENDCHAR
STARTCHAR $020B
ENCODING 523
SWIDTH 280 0
DWIDTH 7 0
BBX 7 19 0 0
BITMAP
38
6C
C6
C6
00
00
38
38
38
38
38
38
38
38
38
38
38
38
38
ENDCHAR
STARTCHAR $020C
ENCODING 524
SWIDTH 840 0
DWIDTH 21 0
BBX 19 22 1 0
BITMAP
0EE000
067000
033000
000000
03F800
0FFE00
1F1F00
380380
7001C0
7001C0
6000E0
E000E0
E000E0
E000E0
E000E0
6000C0
7001C0
7001C0
380380
1F0F00
0FFE00
03F800
ENDCHAR
STARTCHAR $020D
ENCODING 525
SWIDTH 640 0
DWIDTH 16 0
BBX 14 18 1 0
BITMAP
7300
3980
19C0
0000
0000
0FC0
3FF0
7878
7038
E01C
E01C
C01C
E01C
E01C
7038
7870
3FE0
0FC0
ENDCHAR
STARTCHAR $020E
ENCODING 526
SWIDTH 840 0
DWIDTH 21 0
BBX 19 22 1 0
BITMAP
01F000
031800
020C00
000000
03F800
0FFE00
1F1F00
380380
7001C0
7001C0
6000E0
E000E0
E000E0
E000E0
E000E0
6000C0
7001C0
7001C0
380380
1F0F00
0FFE00
03F800
ENDCHAR
STARTCHAR $020F
ENCODING 527
SWIDTH 640 0
DWIDTH 16 0
BBX 14 19 1 0
BITMAP
0780
0DC0
1860
1860
0000
0000
0FC0
3FF0
7878
7038
E01C
E01C
C01C
E01C
E01C
7038
7870
3FE0
0FC0
ENDCHAR
STARTCHAR $0210
ENCODING 528
SWIDTH 720 0
DWIDTH 18 0
BBX 14 23 3 0
BITMAP
6700
3300
3980
0000
0000
FFC0
FFF0
C078
C038
C01C
C01C
C01C
C01C
C018
C078
FFF0
FFC0
C0C0
C0E0
C070
C030
C038
C01C
ENDCHAR
STARTCHAR $0211
ENCODING 529
SWIDTH 400 0
DWIDTH 10 0
BBX 9 18 0 0
BITMAP
E600
6700
3380
0000
0000
3980
3F80
3F00
3C00
3800
3800
3800
3800
3800
3800
3800
3800
3800
ENDCHAR
STARTCHAR $0212
ENCODING 530
SWIDTH 720 0
DWIDTH 18 0
BBX 14 23 3 0
BITMAP
0F80
1DC0
30C0
3040
0000
FFC0
FFF0
C078
C038
C01C
C01C
C01C
C01C
C018
C078
FFF0
FFC0
C0C0
C0E0
C070
C030
C038
C01C
ENDCHAR
STARTCHAR $0213
ENCODING 531
SWIDTH 400 0
DWIDTH 10 0
BBX 8 19 2 0
BITMAP
3C
6E
C3
83
00
00
E6
FE
FC
F0
E0
E0
E0
E0
E0
E0
E0
E0
E0
ENDCHAR
STARTCHAR $0214
ENCODING 532
SWIDTH 800 0
DWIDTH 20 0
BBX 15 23 2 0
BITMAP
3980
1CC0
0CE0
0000
0000
E006
E006
E006
E006
E006
E006
E006
E006
E006
E006
E006
6006
6006
700E
701C
3C3C
1FF8
07E0
ENDCHAR
STARTCHAR $0215
ENCODING 533
SWIDTH 680 0
DWIDTH 17 0
BBX 13 18 2 0
BITMAP
7700
3380
1980
0000
0000
E038
E038
E038
E038
E038
E038
E038
E038
E038
E078
70F8
3FF8
1F38
ENDCHAR
STARTCHAR $0216
ENCODING 534
SWIDTH 800 0
DWIDTH 20 0
BBX 15 23 2 0
BITMAP
03C0
06E0
0C30
0830
0000
E006
E006
E006
E006
E006
E006
E006
E006
E006
E006
E006
6006
6006
700E
701C
3C3C
1FF8
07E0
ENDCHAR
STARTCHAR $0217
ENCODING 535
SWIDTH 680 0
DWIDTH 17 0
BBX 13 19 2 0
BITMAP
0F80
1DC0
10C0
3040
0000
0000
E038
E038
E038
E038
E038
E038
E038
E038
E038
E078
70F8
3FF8
1F38
ENDCHAR
STARTCHAR $0218
ENCODING 536
SWIDTH 640 0
DWIDTH 16 0
BBX 13 24 1 -6
BITMAP
0FC0
3FF8
7830
6000
6000
E000
7000
7C00
3F80
0FF0
00F8
0038
0018
0018
4018
F078
7FF0
1FC0
0000
0000
0300
0300
0300
0300
ENDCHAR
STARTCHAR $0219
ENCODING 537
SWIDTH 520 0
DWIDTH 13 0
BBX 11 19 1 -6
BITMAP
1F80
7FC0
E0C0
C000
E000
F000
7F80
1FC0
00E0
00E0
C0E0
FFC0
3F00
0000
0000
0C00
0C00
0400
0C00
ENDCHAR
STARTCHAR $021A
ENCODING 538
SWIDTH 600 0
DWIDTH 15 0
BBX 15 24 0 -6
BITMAP
FFFE
FFFE
0380
0380
0380
0380
0380
0380
0380
0380
0380
0380
0380
0380
0380
0380
0380
0380
0000
0000
0300
0380
0100
0300
ENDCHAR
STARTCHAR $021B
ENCODING 539
SWIDTH 400 0
DWIDTH 10 0
BBX 9 22 0 -6
BITMAP
1800
1800
1800
FF80
FF80
1800
1800
1800
1800
1800
1800
1800
1800
1C00
1F80
0F80
0000
0000
0600
0700
0200
0600
ENDCHAR
STARTCHAR $021E
ENCODING 542
SWIDTH 800 0
DWIDTH 20 0
BBX 15 23 3 0
BITMAP
1860
0EC0
0780
0000
0000
C00E
C00E
C00E
C00E
C00E
C00E
C00E
C00E
FFFE
FFFE
C00E
C00E
C00E
C00E
C00E
C00E
C00E
C00E
ENDCHAR
STARTCHAR $021F
ENCODING 543
SWIDTH 680 0
DWIDTH 17 0
BBX 15 24 0 0
BITMAP
C600
6C00
3800
0000
0000
3800
3800
3800
3800
3800
3800
39F0
3FF8
3E1C
3C0E
380E
380E
380E
380E
380E
380E
380E
380E
380E
ENDCHAR
STARTCHAR $022A
ENCODING 554
SWIDTH 840 0
DWIDTH 21 0
BBX 19 25 1 0
BITMAP
07FC00
000000
000000
031800
031800
000000
000000
03F800
0FFE00
1F1F00
380380
7001C0
7001C0
6000E0
E000E0
E000E0
E000E0
E000E0
6000C0
7001C0
7001C0
380380
1F0F00
0FFE00
03F800
ENDCHAR
STARTCHAR $022B
ENCODING 555
SWIDTH 640 0
DWIDTH 16 0
BBX 14 20 1 0
BITMAP
1FE0
0000
0000
1CC0
0CC0
0000
0000
0FC0
3FF0
7878
7038
E01C
E01C
C01C
E01C
E01C
7038
7870
3FE0
0FC0
ENDCHAR
STARTCHAR $022C
ENCODING 556
SWIDTH 840 0
DWIDTH 21 0
BBX 19 25 1 0
BITMAP
07FC00
000000
000000
03CC00
027800
060000
000000
03F800
0FFE00
1F1F00
380380
7001C0
7001C0
6000E0
E000E0
E000E0
E000E0
E000E0
6000C0
7001C0
7001C0
380380
1F0F00
0FFE00
03F800
ENDCHAR
STARTCHAR $022D
ENCODING 557
SWIDTH 640 0
DWIDTH 16 0
BBX 14 21 1 0
BITMAP
1FE0
0000
0000
0E20
1B60
11C0
0000
0000
0FC0
3FF0
7878
7038
E01C
E01C
C01C
E01C
E01C
7038
7870
3FE0
0FC0
ENDCHAR
STARTCHAR $0230
ENCODING 560
SWIDTH 840 0
DWIDTH 21 0
BBX 19 25 1 0
BITMAP
07FC00
000000
000000
006000
00E000
004000
000000
03F800
0FFE00
1F1F00
380380
7001C0
7001C0
6000E0
E000E0
E000E0
E000E0
E000E0
6000C0
7001C0
7001C0
380380
1F0F00
0FFE00
03F800
ENDCHAR
STARTCHAR $0231
ENCODING 561
SWIDTH 640 0
DWIDTH 16 0
BBX 14 20 1 0
BITMAP
1FE0
0000
0000
0300
0300
0000
0000
0FC0
3FF0
7878
7038
E01C
E01C
C01C
E01C
E01C
7038
7870
3FE0
0FC0
ENDCHAR
STARTCHAR $0232
ENCODING 562
SWIDTH 640 0
DWIDTH 16 0
BBX 16 22 0 0
BITMAP
0FF0
0FF0
0000
0000
E007
6006
700E
380C
181C
1C18
0C30
0E70
0760
03E0
03C0
0180
0180
0180
0180
0180
0180
0180
ENDCHAR
STARTCHAR $0233
ENCODING 563
SWIDTH 560 0
DWIDTH 14 0
BBX 14 23 0 -5
BITMAP
1FE0
1FE0
0000
0000
0000
E01C
6018
7018
7030
3030
3870
1860
1CE0
0CC0
0FC0
0780
0780
0300
0300
0700
8E00
FC00
7800
ENDCHAR
STARTCHAR $0237
ENCODING 567
SWIDTH 280 0
DWIDTH 7 0
BBX 7 18 -2 -5
BITMAP
0E
0E
0E
0E
0E
0E
0E
0E
0E
0E
0E
0E
0E
0E
0E
8E
FC
F8
ENDCHAR
STARTCHAR $0259
ENCODING 601
SWIDTH 600 0
DWIDTH 15 0
BBX 13 13 1 0
BITMAP
1F80
3FE0
70F0
0038
0038
0018
FFF8
FFF8
E018
6038
7070
3FE0
0F80
ENDCHAR
STARTCHAR $0292
ENCODING 658
SWIDTH 520 0
DWIDTH 13 0
BBX 12 18 0 -5
BITMAP
FFF0
FFF0
00E0
00C0
0180
0300
0600
0F80
0FE0
00F0
0070
0030
0030
0030
8070
F0E0
FFE0
3F80
ENDCHAR
STARTCHAR $02B9
ENCODING 697
SWIDTH 200 0
DWIDTH 5 0
BBX 2 7 2 11
BITMAP
C0
C0
C0
C0
C0
C0
80
ENDCHAR
STARTCHAR $02BA
ENCODING 698
SWIDTH 400 0
DWIDTH 10 0
BBX 6 7 2 11
BITMAP
CC
CC
CC
CC
CC
CC
8C
ENDCHAR
STARTCHAR $02BB
ENCODING 699
SWIDTH 280 0
DWIDTH 7 0
BBX 3 7 2 15
BITMAP
60
40
C0
C0
E0
E0
C0
ENDCHAR
STARTCHAR $02BC
ENCODING 700
SWIDTH 160 0
DWIDTH 4 0
BBX 2 7 1 11
BITMAP
C0
C0
C0
C0
C0
C0
C0
ENDCHAR
STARTCHAR $02BE
ENCODING 702
SWIDTH 600 0
DWIDTH 15 0
BBX 3 5 7 15
BITMAP
C0
20
20
20
C0
ENDCHAR
STARTCHAR $02BF
ENCODING 703
SWIDTH 600 0
DWIDTH 15 0
BBX 2 5 5 15
BITMAP
40
80
80
80
40
ENDCHAR
STARTCHAR $02C6
ENCODING 710
SWIDTH 600 0
DWIDTH 15 0
BBX 7 3 4 15
BITMAP
38
6C
C6
ENDCHAR
STARTCHAR $02C7
ENCODING 711
SWIDTH 600 0
DWIDTH 15 0
BBX 7 3 4 15
BITMAP
C6
6C
38
ENDCHAR
STARTCHAR $02C8
ENCODING 712
SWIDTH 160 0
DWIDTH 4 0
BBX 2 5 1 13
BITMAP
C0
C0
C0
C0
C0
ENDCHAR
STARTCHAR $02C9
ENCODING 713
SWIDTH 600 0
DWIDTH 15 0
BBX 9 1 3 17
BITMAP
FF80
ENDCHAR
STARTCHAR $02CA
ENCODING 714
SWIDTH 600 0
DWIDTH 15 0
BBX 5 3 6 15
BITMAP
38
70
E0
ENDCHAR
STARTCHAR $02CB
ENCODING 715
SWIDTH 600 0
DWIDTH 15 0
BBX 5 3 4 15
BITMAP
E0
70
38
ENDCHAR
STARTCHAR $02CC
ENCODING 716
SWIDTH 160 0
DWIDTH 4 0
BBX 2 5 1 -6
BITMAP
C0
C0
C0
C0
C0
ENDCHAR
STARTCHAR $02D8
ENCODING 728
SWIDTH 600 0
DWIDTH 15 0
BBX 7 3 4 15
BITMAP
82
EE
7C
ENDCHAR
STARTCHAR $02D9
ENCODING 729
SWIDTH 600 0
DWIDTH 15 0
BBX 3 3 6 16
BITMAP
E0
E0
E0
ENDCHAR
STARTCHAR $02DA
ENCODING 730
SWIDTH 600 0
DWIDTH 15 0
BBX 5 5 5 15
BITMAP
70
88
88
88
70
ENDCHAR
STARTCHAR $02DB
ENCODING 731
SWIDTH 600 0
DWIDTH 15 0
BBX 5 6 3 -5
BITMAP
10
60
C0
C0
C0
F8
ENDCHAR
STARTCHAR $02DC
ENCODING 732
SWIDTH 600 0
DWIDTH 15 0
BBX 9 3 3 15
BITMAP
7180
4F00
C700
ENDCHAR
STARTCHAR $02DD
ENCODING 733
SWIDTH 600 0
DWIDTH 15 0
BBX 8 3 5 15
BITMAP
77
E6
CC
ENDCHAR
STARTCHAR $0300
ENCODING 768
SWIDTH 0 0
DWIDTH 0 0
BBX 5 3 -11 15
BITMAP
E0
70
38
ENDCHAR
STARTCHAR $0301
ENCODING 769
SWIDTH 0 0
DWIDTH 0 0
BBX 5 3 -9 15
BITMAP
38
70
E0
ENDCHAR
STARTCHAR $0302
ENCODING 770
SWIDTH 0 0
DWIDTH 0 0
BBX 7 3 -11 15
BITMAP
38
6C
C6
ENDCHAR
STARTCHAR $0303
ENCODING 771
SWIDTH 0 0
DWIDTH 0 0
BBX 9 3 -12 15
BITMAP
7180
4F00
C700
ENDCHAR
STARTCHAR $0304
ENCODING 772
SWIDTH 0 0
DWIDTH 0 0
BBX 9 1 -12 17
BITMAP
FF80
ENDCHAR
STARTCHAR $0306
ENCODING 774
SWIDTH 0 0
DWIDTH 0 0
BBX 7 3 -11 15
BITMAP
82
EE
7C
ENDCHAR
STARTCHAR $0307
ENCODING 775
SWIDTH 0 0
DWIDTH 0 0
BBX 3 3 -9 16
BITMAP
E0
E0
E0
ENDCHAR
STARTCHAR $0308
ENCODING 776
SWIDTH 0 0
DWIDTH 0 0
BBX 7 2 -11 15
BITMAP
C6
C6
ENDCHAR
STARTCHAR $0309
ENCODING 777
SWIDTH 0 0
DWIDTH 0 0
BBX 5 5 -10 15
BITMAP
F0
58
08
18
30
ENDCHAR
STARTCHAR $030A
ENCODING 778
SWIDTH 0 0
DWIDTH 0 0
BBX 5 5 -10 15
BITMAP
70
88
88
88
70
ENDCHAR
STARTCHAR $030B
ENCODING 779
SWIDTH 0 0
DWIDTH 0 0
BBX 8 3 -10 15
BITMAP
77
E6
CC
ENDCHAR
STARTCHAR $030C
ENCODING 780
SWIDTH 0 0
DWIDTH 0 0
BBX 7 3 -11 15
BITMAP
C6
6C
38
ENDCHAR
STARTCHAR $030F
ENCODING 783
SWIDTH 0 0
DWIDTH 0 0
BBX 8 3 -13 15
BITMAP
EE
67
33
ENDCHAR
STARTCHAR $0311
ENCODING 785
SWIDTH 0 0
DWIDTH 0 0
BBX 7 3 -11 16
BITMAP
7C
EE
82
ENDCHAR
STARTCHAR $0312
ENCODING 786
SWIDTH 0 0
DWIDTH 0 0
BBX 3 5 -9 15
BITMAP
60
40
40
E0
E0
ENDCHAR
STARTCHAR $031B
ENCODING 795
SWIDTH 0 0
DWIDTH 0 0
BBX 4 6 -8 11
BITMAP
20
30
30
30
E0
C0
ENDCHAR
STARTCHAR $0323
ENCODING 803
SWIDTH 0 0
DWIDTH 0 0
BBX 3 3 -9 -5
BITMAP
40
E0
E0
ENDCHAR
STARTCHAR $0324
ENCODING 804
SWIDTH 0 0
DWIDTH 0 0
BBX 7 2 -11 -5
BITMAP
EE
C6
ENDCHAR
STARTCHAR $0326
ENCODING 806
SWIDTH 0 0
DWIDTH 0 0
BBX 3 4 -9 -6
BITMAP
E0
E0
40
40
ENDCHAR
STARTCHAR $0327
ENCODING 807
SWIDTH 0 0
DWIDTH 0 0
BBX 5 5 -10 -5
BITMAP
20
60
38
18
F0
ENDCHAR
STARTCHAR $0328
ENCODING 808
SWIDTH 0 0
DWIDTH 0 0
BBX 5 6 -12 -5
BITMAP
10
60
C0
C0
C0
F8
ENDCHAR
STARTCHAR $032E
ENCODING 814
SWIDTH 0 0
DWIDTH 0 0
BBX 9 3 -12 -5
BITMAP
C180
6300
3E00
ENDCHAR
STARTCHAR $0331
ENCODING 817
SWIDTH 0 0
DWIDTH 0 0
BBX 9 2 -12 -5
BITMAP
FF80
FF80
ENDCHAR
STARTCHAR $0335
ENCODING 821
SWIDTH 0 0
DWIDTH 0 0
BBX 9 2 -12 10
BITMAP
FF80
FF80
ENDCHAR
STARTCHAR $0336
ENCODING 822
SWIDTH 0 0
DWIDTH 0 0
BBX 20 2 -21 10
BITMAP
FFFFF0
FFFFF0
ENDCHAR
STARTCHAR $0337
ENCODING 823
SWIDTH 0 0
DWIDTH 0 0
BBX 7 6 -9 7
BITMAP
02
0E
1C
38
E0
C0
ENDCHAR
STARTCHAR $0338
ENCODING 824
SWIDTH 0 0
DWIDTH 0 0
BBX 12 17 -14 -2
BITMAP
0010
0030
0060
0040
00C0
0180
0100
0300
0600
0400
0C00
1800
1000
3000
6000
4000
C000
ENDCHAR
STARTCHAR $0394
ENCODING 916
SWIDTH 720 0
DWIDTH 18 0
BBX 18 18 0 0
BITMAP
00E000
01E000
01E000
03B000
033000
073800
061800
061C00
0E0C00
0C0E00
1C0E00
180600
380700
300300
300380
700180
7FFFC0
FFFFC0
ENDCHAR
STARTCHAR $03A9
ENCODING 937
SWIDTH 880 0
DWIDTH 22 0
BBX 22 18 0 0
BITMAP
00FC00
03FF80
07C7C0
0E01E0
1C00E0
180070
380030
380030
300030
300030
380030
380030
180070
1C0060
0E00E0
0703C0
FF83FC
FF83FC
ENDCHAR
STARTCHAR $03BC
ENCODING 956
SWIDTH 680 0
DWIDTH 17 0
BBX 13 18 2 -5
BITMAP
E038
E038
E038
E038
E038
E038
E038
E038
E038
E078
F8F8
FFF8
EFB8
E000
E000
E000
E000
E000
ENDCHAR
STARTCHAR $03C0
ENCODING 960
SWIDTH 720 0
DWIDTH 18 0
BBX 18 13 0 0
BITMAP
3FFFC0
7FFFC0
E30C00
C70C00
C70C00
C70C00
070C00
060C00
060C00
060C00
060C00
060C00
0E0C00
ENDCHAR
STARTCHAR $0400
ENCODING 1024
SWIDTH 680 0
DWIDTH 17 0
BBX 12 23 3 0
BITMAP
3800
1C00
0600
0000
0000
FFF0
FFF0
C000
C000
C000
C000
C000
C000
FFE0
FFE0
C000
C000
C000
C000
C000
C000
FFF0
FFF0
ENDCHAR
STARTCHAR $0401
ENCODING 1025
SWIDTH 680 0
DWIDTH 17 0
BBX 12 23 3 0
BITMAP
1000
39C0
1980
0000
0000
FFF0
FFF0
C000
C000
C000
C000
C000
C000
FFE0
FFE0
C000
C000
C000
C000
C000
C000
FFF0
FFF0
ENDCHAR
STARTCHAR $0402
ENCODING 1026
SWIDTH 840 0
DWIDTH 21 0
BBX 20 18 0 0
BITMAP
FFFE00
FFFE00
038000
038000
038000
038000
038000
03BF80
03FFC0
03E1E0
038070
038070
038070
038070
038070
0380E0
038FC0
038F80
ENDCHAR
STARTCHAR $0403
ENCODING 1027
SWIDTH 560 0
DWIDTH 14 0
BBX 11 23 3 0
BITMAP
0380
0700
0E00
0000
0000
FFE0
FFE0
C000
C000
C000
C000
C000
C000
C000
C000
C000
C000
C000
C000
C000
C000
C000
C000
ENDCHAR
STARTCHAR $0404
ENCODING 1028
SWIDTH 720 0
DWIDTH 18 0
BBX 16 18 1 0
BITMAP
03F8
0FFE
1F1F
3806
7000
7000
6000
E000
FFE0
FFE0
E000
6000
7000
7000
3C06
1F1F
0FFE
03F0
ENDCHAR
STARTCHAR $0405
ENCODING 1029
SWIDTH 640 0
DWIDTH 16 0
BBX 14 18 1 0
BITMAP
0FE0
3FF8
7838
7000
6000
6000
7000
7C00
3FC0
0FF0
00F8
0038
001C
001C
4018
F038
7FF0
1FC0
ENDCHAR
STARTCHAR $0406
ENCODING 1030
SWIDTH 320 0
DWIDTH 8 0
BBX 2 18 3 0
BITMAP
C0
C0
C0
C0
C0
C0
C0
C0
C0
C0
C0
C0
C0
C0
C0
C0
C0
C0
ENDCHAR
STARTCHAR $0407
ENCODING 1031
SWIDTH 320 0
DWIDTH 8 0
BBX 7 23 0 0
BITMAP
40
E6
66
00
00
18
18
18
18
18
18
18
18
18
18
18
18
18
18
18
18
18
18
ENDCHAR
STARTCHAR $0408
ENCODING 1032
SWIDTH 560 0
DWIDTH 14 0
BBX 11 18 0 0
BITMAP
3FE0
3FE0
0060
0060
0060
0060
0060
0060
0060
0060
0060
0060
0060
00E0
60E0
F1C0
7FC0
1F00
ENDCHAR
STARTCHAR $0409
ENCODING 1033
SWIDTH 1200 0
DWIDTH 30 0
BBX 29 18 0 0
BITMAP
07FF8000
07FF8000
06018000
06018000
06018000
0E018000
0E01FF80
0E01FFE0
0E0180F0
0E018030
0E018038
0C018038
0C018038
0C018038
1C018030
380180F0
F801FFE0
F001FF80
ENDCHAR
STARTCHAR $040A
ENCODING 1034
SWIDTH 1200 0
DWIDTH 30 0
BBX 26 18 3 0
BITMAP
C00C0000
C00C0000
C00C0000
C00C0000
C00C0000
C00C0000
C00C0000
FFFFFE00
FFFFFF00
C00C0780
C00C0180
C00C01C0
C00C01C0
C00C0180
C00C0180
C00C0780
C00FFF00
C00FFC00
ENDCHAR
STARTCHAR $040B
ENCODING 1035
SWIDTH 840 0
DWIDTH 21 0
BBX 20 18 0 0
BITMAP
FFFE00
FFFE00
038000
038000
038000
038000
038000
03BF80
03FFC0
03E1E0
0380E0
038070
038070
038070
038070
038070
038070
038070
ENDCHAR
STARTCHAR $040C
ENCODING 1036
SWIDTH 720 0
DWIDTH 18 0
BBX 14 23 3 0
BITMAP
01C0
0380
0600
0000
0000
C01C
C038
C030
C070
C0E0
C1C0
C180
C380
FF00
FF00
C380
C1C0
C0E0
C0E0
C070
C038
C038
C01C
ENDCHAR
STARTCHAR $040D
ENCODING 1037
SWIDTH 840 0
DWIDTH 21 0
BBX 15 23 3 0
BITMAP
1C00
0600
0300
0080
0000
C00E
C01E
C01E
C03E
C07E
C0EE
C0EE
C1CE
C38E
C70E
C70E
CE0E
DC0E
F80E
F80E
F00E
E00E
C00E
ENDCHAR
STARTCHAR $040E
ENCODING 1038
SWIDTH 680 0
DWIDTH 17 0
BBX 16 22 1 0
BITMAP
1830
0C60
07C0
0000
C007
E006
600E
700C
301C
3818
1838
1C30
0C70
0E60
06C0
07C0
0380
0380
0300
0F00
7E00
7800
ENDCHAR
STARTCHAR $040F
ENCODING 1039
SWIDTH 800 0
DWIDTH 20 0
BBX 14 22 3 -4
BITMAP
C00C
C00C
C00C
C00C
C00C
C00C
C00C
C00C
C00C
C00C
C00C
C00C
C00C
C00C
C00C
C00C
FFFC
FFFC
0300
0300
0300
0300
ENDCHAR
STARTCHAR $0410
ENCODING 1040
SWIDTH 760 0
DWIDTH 19 0
BBX 17 18 1 0
BITMAP
01C000
01C000
03E000
036000
077000
063000
0E3800
0C1800
1C1800
180C00
180C00
3FFE00
3FFE00
700700
600300
E00380
C00380
C00180
ENDCHAR
STARTCHAR $0411
ENCODING 1041
SWIDTH 720 0
DWIDTH 18 0
BBX 14 18 3 0
BITMAP
FFF8
FFF8
C000
C000
C000
C000
C000
FFE0
FFF8
C038
C01C
C01C
C00C
C01C
C01C
C038
FFF0
FFC0
ENDCHAR
STARTCHAR $0412
ENCODING 1042
SWIDTH 760 0
DWIDTH 19 0
BBX 14 18 3 0
BITMAP
FFE0
FFF0
C078
C038
C018
C018
C018
C070
FFE0
FFF0
C03C
C01C
C00C
C00C
C01C
C03C
FFF8
FFE0
ENDCHAR
STARTCHAR $0413
ENCODING 1043
SWIDTH 560 0
DWIDTH 14 0
BBX 11 18 3 0
BITMAP
FFE0
FFE0
C000
C000
C000
C000
C000
C000
C000
C000
C000
C000
C000
C000
C000
C000
C000
C000
ENDCHAR
STARTCHAR $0414
ENCODING 1044
SWIDTH 800 0
DWIDTH 20 0
BBX 19 22 0 -4
BITMAP
0FFF80
0FFF80
0E0380
0E0380
0E0380
0E0380
0E0380
0E0380
0C0380
0C0380
0C0380
0C0380
0C0380
1C0380
180380
380380
FFFFE0
FFFFE0
E00060
E00060
E00060
E00060
ENDCHAR
STARTCHAR $0415
ENCODING 1045
SWIDTH 680 0
DWIDTH 17 0
BBX 12 18 3 0
BITMAP
FFF0
FFF0
C000
C000
C000
C000
C000
C000
FFE0
FFE0
C000
C000
C000
C000
C000
C000
FFF0
FFF0
ENDCHAR
STARTCHAR $0416
ENCODING 1046
SWIDTH 1040 0
DWIDTH 26 0
BBX 24 18 1 0
BITMAP
E01807
60180E
70180C
38181C
181838
1C1830
0C1870
061860
07FFE0
07FFE0
0E1870
1C1870
1C1838
381818
38181C
70180E
E0180E
E01807
ENDCHAR
STARTCHAR $0417
ENCODING 1047
SWIDTH 640 0
DWIDTH 16 0
BBX 14 18 1 0
BITMAP
1F80
FFE0
70F0
0038
0038
0038
0038
0070
1FE0
1FF0
0038
0018
001C
001C
8038
F078
7FF0
1FC0
ENDCHAR
STARTCHAR $0418
ENCODING 1048
SWIDTH 840 0
DWIDTH 21 0
BBX 15 18 3 0
BITMAP
C00E
C01E
C01E
C03E
C07E
C0EE
C0EE
C1CE
C38E
C70E
C70E
CE0E
DC0E
F80E
F80E
F00E
E00E
C00E
ENDCHAR
STARTCHAR $0419
ENCODING 1049
SWIDTH 840 0
DWIDTH 21 0
BBX 15 22 3 0
BITMAP
1820
1CE0
07C0
0000
C00E
C01E
C01E
C03E
C07E
C0EE
C0EE
C1CE
C38E
C70E
C70E
CE0E
DC0E
F80E
F80E
F00E
E00E
C00E
ENDCHAR
STARTCHAR $041A
ENCODING 1050
SWIDTH 720 0
DWIDTH 18 0
BBX 14 18 3 0
BITMAP
C01C
C038
C030
C070
C0E0
C1C0
C180
C380
FF00
FF00
C380
C1C0
C0E0
C0E0
C070
C038
C038
C01C
ENDCHAR
STARTCHAR $041B
ENCODING 1051
SWIDTH 800 0
DWIDTH 20 0
BBX 17 18 0 0
BITMAP
07FF80
07FF80
060180
060180
060180
0E0180
0E0180
0E0180
0E0180
0E0180
0E0180
0C0180
0C0180
0C0180
1C0180
380180
F80180
F00180
ENDCHAR
STARTCHAR $041C
ENCODING 1052
SWIDTH 960 0
DWIDTH 24 0
BBX 18 18 3 0
BITMAP
C000C0
E001C0
E001C0
F003C0
F003C0
F807C0
DC06C0
CC0CC0
CE1CC0
C618C0
C738C0
C330C0
C3F0C0
C1E0C0
C0C0C0
C0C0C0
C000C0
C000C0
ENDCHAR
STARTCHAR $041D
ENCODING 1053
SWIDTH 840 0
DWIDTH 21 0
BBX 15 18 3 0
BITMAP
C00E
C00E
C00E
C00E
C00E
C00E
C00E
C00E
FFFE
FFFE
C00E
C00E
C00E
C00E
C00E
C00E
C00E
C00E
ENDCHAR
STARTCHAR $041E
ENCODING 1054
SWIDTH 840 0
DWIDTH 21 0
BBX 19 18 1 0
BITMAP
01F800
0FFE00
1F1F00
380380
7001C0
7001C0
6000E0
E000E0
E000E0
E000E0
E000E0
6000E0
7000C0
7001C0
3C0380
1F0F00
0FFE00
03F800
ENDCHAR
STARTCHAR $041F
ENCODING 1055
SWIDTH 840 0
DWIDTH 21 0
BBX 15 18 3 0
BITMAP
FFFE
FFFE
C00E
C00E
C00E
C00E
C00E
C00E
C00E
C00E
C00E
C00E
C00E
C00E
C00E
C00E
C00E
C00E
ENDCHAR
STARTCHAR $0420
ENCODING 1056
SWIDTH 720 0
DWIDTH 18 0
BBX 14 18 3 0
BITMAP
FFC0
FFF0
C078
C038
C01C
C01C
C01C
C01C
C018
C078
FFF0
FFC0
C000
C000
C000
C000
C000
C000
ENDCHAR
STARTCHAR $0421
ENCODING 1057
SWIDTH 720 0
DWIDTH 18 0
BBX 16 18 1 0
BITMAP
03F8
0FFE
1F1F
3C02
7000
7000
6000
E000
E000
E000
E000
6000
7000
7800
3C02
1F0F
0FFE
03F8
ENDCHAR
STARTCHAR $0422
ENCODING 1058
SWIDTH 600 0
DWIDTH 15 0
BBX 15 18 0 0
BITMAP
FFFE
FFFE
0380
0380
0380
0380
0380
0380
0380
0380
0380
0380
0380
0380
0380
0380
0380
0380
ENDCHAR
STARTCHAR $0423
ENCODING 1059
SWIDTH 680 0
DWIDTH 17 0
BBX 16 18 1 0
BITMAP
C007
E006
600E
700C
301C
3818
1838
1C30
0C70
0E60
06C0
07C0
0380
0380
0300
0F00
7E00
7800
ENDCHAR
STARTCHAR $0424
ENCODING 1060
SWIDTH 920 0
DWIDTH 23 0
BBX 21 19 1 -1
BITMAP
007000
007000
03FE00
0FFFC0
3C71E0
707070
607030
E07038
E07018
E07018
E07018
E07038
707030
787070
3E71E0
0FFFC0
03FE00
007000
007000
ENDCHAR
STARTCHAR $0425
ENCODING 1061
SWIDTH 680 0
DWIDTH 17 0
BBX 15 18 1 0
BITMAP
E00C
701C
3038
3870
1C70
0EE0
0FC0
07C0
0380
0780
07C0
0EE0
1CF0
1870
3838
701C
E01C
E00E
ENDCHAR
STARTCHAR $0426
ENCODING 1062
SWIDTH 840 0
DWIDTH 21 0
BBX 17 22 3 -4
BITMAP
C00C00
C00C00
C00C00
C00C00
C00C00
C00C00
C00C00
C00C00
C00C00
C00C00
C00C00
C00C00
C00C00
C00C00
C00C00
C00C00
FFFF80
FFFF80
000180
000180
000180
000180
ENDCHAR
STARTCHAR $0427
ENCODING 1063
SWIDTH 720 0
DWIDTH 18 0
BBX 15 18 1 0
BITMAP
E00E
E00E
E00E
E00E
E00E
E00E
E00E
600E
700E
783E
3FFE
0FCE
000E
000E
000E
000E
000E
000E
ENDCHAR
STARTCHAR $0428
ENCODING 1064
SWIDTH 1080 0
DWIDTH 27 0
BBX 22 18 3 0
BITMAP
C0701C
C0701C
C0701C
C0701C
C0701C
C0701C
C0701C
C0701C
C0701C
C0701C
C0701C
C0701C
C0701C
C0701C
C0701C
C0701C
FFFFFC
FFFFFC
ENDCHAR
STARTCHAR $0429
ENCODING 1065
SWIDTH 1120 0
DWIDTH 28 0
BBX 24 22 3 -4
BITMAP
C0701C
C0701C
C0701C
C0701C
C0701C
C0701C
C0701C
C0701C
C0701C
C0701C
C0701C
C0701C
C0701C
C0701C
C0701C
C0701C
FFFFFF
FFFFFF
000003
000003
000003
000003
ENDCHAR
STARTCHAR $042A
ENCODING 1066
SWIDTH 840 0
DWIDTH 21 0
BBX 20 18 0 0
BITMAP
FF0000
FF0000
030000
030000
030000
030000
03FF00
03FFC0
0301E0
030060
030070
030070
030070
030070
030060
0301E0
03FFC0
03FF00
ENDCHAR
STARTCHAR $042B
ENCODING 1067
SWIDTH 1000 0
DWIDTH 25 0
BBX 19 18 3 0
BITMAP
C00060
C00060
C00060
C00060
C00060
C00060
FFE060
FFF060
C07860
C01C60
C01C60
C01C60
C01C60
C01C60
C01860
C07860
FFF060
FFC060
ENDCHAR
STARTCHAR $042C
ENCODING 1068
SWIDTH 720 0
DWIDTH 18 0
BBX 14 18 3 0
BITMAP
C000
C000
C000
C000
C000
C000
FFE0
FFF0
C078
C01C
C01C
C01C
C01C
C01C
C018
C078
FFF0
FFC0
ENDCHAR
STARTCHAR $042D
ENCODING 1069
SWIDTH 720 0
DWIDTH 18 0
BBX 15 18 1 0
BITMAP
1FC0
7FF0
F0F8
C03C
001C
000E
000E
0006
0FFE
0FFE
0006
000E
000E
001C
C03C
F0F8
7FF0
1F80
ENDCHAR
STARTCHAR $042E
ENCODING 1070
SWIDTH 1080 0
DWIDTH 27 0
BBX 23 18 3 0
BITMAP
C01F80
C07FE0
C0F8F8
C1C038
C1801C
C3800E
C3000E
C7000E
FF0006
FF0006
C7000E
C3000E
C3800C
C3801C
C1C038
C0F8F8
C07FE0
C01F80
ENDCHAR
STARTCHAR $042F
ENCODING 1071
SWIDTH 720 0
DWIDTH 18 0
BBX 15 18 1 0
BITMAP
0FFE
1FFE
3C0E
700E
600E
600E
E00E
600E
600E
700E
780E
3FFE
0FFE
0C0E
1C0E
380E
300E
600E
ENDCHAR
STARTCHAR $0430
ENCODING 1072
SWIDTH 600 0
DWIDTH 15 0
BBX 12 13 1 0
BITMAP
1F80
7FE0
60E0
0070
0070
0FF0
7FF0
6070
E070
E070
E0F0
7FF0
3F70
ENDCHAR
STARTCHAR $0431
ENCODING 1073
SWIDTH 680 0
DWIDTH 17 0
BBX 13 19 2 1
BITMAP
01F8
0FF8
1F00
7800
7000
E000
C7C0
DFE0
F8F0
E038
E018
C018
C018
C018
E018
6038
7870
3FE0
0F80
ENDCHAR
STARTCHAR $0432
ENCODING 1074
SWIDTH 600 0
DWIDTH 15 0
BBX 12 13 2 0
BITMAP
FF80
FFE0
E060
E060
E060
FFC0
FFE0
E070
E070
E070
E070
FFE0
FFC0
ENDCHAR
STARTCHAR $0433
ENCODING 1075
SWIDTH 480 0
DWIDTH 12 0
BBX 10 13 2 0
BITMAP
FFC0
FFC0
E000
E000
E000
E000
E000
E000
E000
E000
E000
E000
E000
ENDCHAR
STARTCHAR $0434
ENCODING 1076
SWIDTH 680 0
DWIDTH 17 0
BBX 16 16 0 -3
BITMAP
1FFC
1FFC
1C1C
1C1C
181C
181C
181C
181C
181C
181C
301C
FFFF
FFFF
C003
C003
C003
ENDCHAR
STARTCHAR $0435
ENCODING 1077
SWIDTH 640 0
DWIDTH 16 0
BBX 13 13 1 0
BITMAP
0FC0
3FE0
7870
6038
E018
FFF8
FFF8
E000
E000
7000
3870
3FF0
0FC0
ENDCHAR
STARTCHAR $0436
ENCODING 1078
SWIDTH 840 0
DWIDTH 21 0
BBX 20 13 1 0
BITMAP
E0E060
60E0E0
70E1C0
30E180
38E380
1CE300
0FFF00
1FFF00
18E380
38E380
70E1C0
E0E0E0
E0E070
ENDCHAR
STARTCHAR $0437
ENCODING 1079
SWIDTH 560 0
DWIDTH 14 0
BBX 11 13 1 0
BITMAP
3F00
FFC0
41E0
00E0
00E0
1FC0
1FC0
00E0
0060
0060
C0E0
FFC0
3F00
ENDCHAR
STARTCHAR $0438
ENCODING 1080
SWIDTH 680 0
DWIDTH 17 0
BBX 13 13 2 0
BITMAP
E038
E038
E078
E0F8
E1D8
E398
E718
EE18
EC18
FC18
F818
F018
E018
ENDCHAR
STARTCHAR $0439
ENCODING 1081
SWIDTH 680 0
DWIDTH 17 0
BBX 13 18 2 0
BITMAP
1040
18C0
0F80
0000
0000
E038
E038
E078
E0F8
E1D8
E398
E718
EE18
EC18
FC18
F818
F018
E018
ENDCHAR
STARTCHAR $043A
ENCODING 1082
SWIDTH 600 0
DWIDTH 15 0
BBX 12 13 2 0
BITMAP
E070
E060
E0E0
E1C0
E180
E300
FF00
FF00
E380
E1C0
E0E0
E060
E070
ENDCHAR
STARTCHAR $043B
ENCODING 1083
SWIDTH 640 0
DWIDTH 16 0
BBX 14 13 0 0
BITMAP
1FFC
1FFC
1C1C
1C1C
181C
181C
181C
181C
181C
181C
381C
F01C
E01C
ENDCHAR
STARTCHAR $043C
ENCODING 1084
SWIDTH 800 0
DWIDTH 20 0
BBX 16 13 2 0
BITMAP
E007
F00F
F00F
F81F
F81F
EC37
EE77
E667
E3C7
E3C7
E187
E107
E007
ENDCHAR
STARTCHAR $043D
ENCODING 1085
SWIDTH 680 0
DWIDTH 17 0
BBX 13 13 2 0
BITMAP
E038
E038
E038
E038
E038
E038
FFF8
FFF8
E038
E038
E038
E038
E038
ENDCHAR
STARTCHAR $043E
ENCODING 1086
SWIDTH 640 0
DWIDTH 16 0
BBX 14 13 1 0
BITMAP
0FC0
1FF0
3878
7038
E01C
E01C
E01C
E01C
E01C
7038
7870
3FF0
0FC0
ENDCHAR
STARTCHAR $043F
ENCODING 1087
SWIDTH 680 0
DWIDTH 17 0
BBX 13 13 2 0
BITMAP
FFF8
FFF8
E038
E038
E038
E038
E038
E038
E038
E038
E038
E038
E038
ENDCHAR
STARTCHAR $0440
ENCODING 1088
SWIDTH 680 0
DWIDTH 17 0
BBX 14 18 2 -5
BITMAP
E7C0
FFF0
F878
F038
E01C
E00C
E00C
E00C
E01C
F018
F878
FFF0
E7C0
E000
E000
E000
E000
E000
ENDCHAR
STARTCHAR $0441
ENCODING 1089
SWIDTH 560 0
DWIDTH 14 0
BBX 12 13 1 0
BITMAP
0FC0
1FE0
3870
7020
E000
E000
E000
E000
E000
7020
7870
3FE0
0FC0
ENDCHAR
STARTCHAR $0442
ENCODING 1090
SWIDTH 480 0
DWIDTH 12 0
BBX 12 13 0 0
BITMAP
FFF0
FFF0
0600
0600
0600
0600
0600
0600
0600
0600
0600
0600
0600
ENDCHAR
STARTCHAR $0443
ENCODING 1091
SWIDTH 560 0
DWIDTH 14 0
BBX 14 18 0 -5
BITMAP
E00C
6018
7018
3038
3830
1870
1860
1C60
0CC0
0EC0
0780
0780
0380
0300
0700
8E00
FC00
7800
ENDCHAR
STARTCHAR $0444
ENCODING 1092
SWIDTH 800 0
DWIDTH 20 0
BBX 18 24 1 -5
BITMAP
00C000
00C000
00C000
00C000
00C000
00C000
07F800
1FFF00
3CCF80
70C380
E0C1C0
E0C0C0
C0C0C0
E0C0C0
E0C1C0
70C380
7CC780
1FFE00
07F800
00C000
00C000
00C000
00C000
00C000
ENDCHAR
STARTCHAR $0445
ENCODING 1093
SWIDTH 560 0
DWIDTH 14 0
BBX 12 13 1 0
BITMAP
E070
60E0
71C0
3980
1F80
0F00
0E00
0F00
1B80
39C0
70C0
E0E0
C070
ENDCHAR
STARTCHAR $0446
ENCODING 1094
SWIDTH 680 0
DWIDTH 17 0
BBX 14 16 2 -3
BITMAP
E030
E030
E030
E030
E030
E030
E030
E030
E030
E030
E030
FFFC
FFFC
000C
000C
000C
ENDCHAR
STARTCHAR $0447
ENCODING 1095
SWIDTH 600 0
DWIDTH 15 0
BBX 12 13 1 0
BITMAP
C070
C070
C070
C070
C070
E070
F070
7FF0
3F70
0070
0070
0070
0070
ENDCHAR
STARTCHAR $0448
ENCODING 1096
SWIDTH 960 0
DWIDTH 24 0
BBX 19 13 2 0
BITMAP
E06060
E06060
E06060
E06060
E06060
E06060
E06060
E06060
E06060
E06060
E06060
FFFFE0
FFFFE0
ENDCHAR
STARTCHAR $0449
ENCODING 1097
SWIDTH 960 0
DWIDTH 24 0
BBX 21 16 2 -3
BITMAP
E06060
E06060
E06060
E06060
E06060
E06060
E06060
E06060
E06060
E06060
E06060
FFFFF8
FFFFF8
000018
000018
000018
ENDCHAR
STARTCHAR $044A
ENCODING 1098
SWIDTH 640 0
DWIDTH 16 0
BBX 15 13 0 0
BITMAP
FE00
FE00
0E00
0E00
0FF0
0FFC
0E0E
0E06
0E06
0E06
0E0E
0FFC
0FF8
ENDCHAR
STARTCHAR $044B
ENCODING 1099
SWIDTH 800 0
DWIDTH 20 0
BBX 16 13 2 0
BITMAP
E007
E007
E007
E007
FF07
FFC7
E0E7
E067
E067
E067
E0E7
FFC7
FF87
ENDCHAR
STARTCHAR $044C
ENCODING 1100
SWIDTH 560 0
DWIDTH 14 0
BBX 12 13 2 0
BITMAP
E000
E000
E000
E000
FF00
FFC0
E0E0
E070
E070
E070
E0E0
FFE0
FF80
ENDCHAR
STARTCHAR $044D
ENCODING 1101
SWIDTH 560 0
DWIDTH 14 0
BBX 12 13 1 0
BITMAP
3F00
FFC0
C0E0
0070
0030
1FF0
1FF0
0030
0030
0060
E1E0
FFC0
3F00
ENDCHAR
STARTCHAR $044E
ENCODING 1102
SWIDTH 880 0
DWIDTH 22 0
BBX 19 13 2 0
BITMAP
E07E00
E0FF80
E1C3C0
E381C0
E300E0
FF00E0
FF00E0
E700E0
E300C0
E381C0
E1C380
E0FF00
E07E00
ENDCHAR
STARTCHAR $044F
ENCODING 1103
SWIDTH 600 0
DWIDTH 15 0
BBX 12 13 1 0
BITMAP
1FF0
3FF0
7030
E030
E030
E030
6030
7FF0
1FF0
1830
3830
7030
6030
ENDCHAR
STARTCHAR $0450
ENCODING 1104
SWIDTH 640 0
DWIDTH 16 0
BBX 13 18 1 0
BITMAP
1C00
0E00
0700
0000
0000
0FC0
3FE0
7870
6038
E018
FFF8
FFF8
E000
E000
7000
3870
3FF0
0FC0
ENDCHAR
STARTCHAR $0451
ENCODING 1105
SWIDTH 640 0
DWIDTH 16 0
BBX 13 18 1 0
BITMAP
18C0
1CC0
0800
0000
0000
0FC0
3FE0
7870
6038
E018
FFF8
FFF8
E000
E000
7000
3870
3FF0
0FC0
ENDCHAR
STARTCHAR $0452
ENCODING 1106
SWIDTH 680 0
DWIDTH 17 0
BBX 15 24 0 -5
BITMAP
3800
3800
FFE0
FFE0
3800
3800
39F0
3FF8
3E1C
3C0E
380E
3806
3806
3806
3806
3806
3806
3806
3806
0006
000E
008E
00FC
00F8
ENDCHAR
STARTCHAR $0453
ENCODING 1107
SWIDTH 480 0
DWIDTH 12 0
BBX 10 18 2 0
BITMAP
0380
0700
0E00
0000
0000
FFC0
FFC0
E000
E000
E000
E000
E000
E000
E000
E000
E000
E000
E000
ENDCHAR
STARTCHAR $0454
ENCODING 1108
SWIDTH 560 0
DWIDTH 14 0
BBX 12 13 1 0
BITMAP
0FC0
1FF0
3830
7000
6000
C000
FF80
FF80
E000
6000
7830
3FF0
0FC0
ENDCHAR
STARTCHAR $0455
ENCODING 1109
SWIDTH 520 0
DWIDTH 13 0
BBX 11 13 1 0
BITMAP
1F80
3FE0
70C0
6000
6000
7000
3F80
0FE0
00E0
0060
60E0
FFC0
3F80
ENDCHAR
STARTCHAR $0456
ENCODING 1110
SWIDTH 280 0
DWIDTH 7 0
BBX 3 19 2 0
BITMAP
E0
E0
E0
00
00
00
E0
E0
E0
E0
E0
E0
E0
E0
E0
E0
E0
E0
E0
ENDCHAR
STARTCHAR $0457
ENCODING 1111
SWIDTH 280 0
DWIDTH 7 0
BBX 6 18 0 0
BITMAP
6C
EC
00
00
00
38
38
38
38
38
38
38
38
38
38
38
38
38
ENDCHAR
STARTCHAR $0458
ENCODING 1112
SWIDTH 280 0
DWIDTH 7 0
BBX 7 24 -2 -5
BITMAP
0E
0E
0E
00
00
00
0E
0E
0E
0E
0E
0E
0E
0E
0E
0E
0E
0E
0E
0E
0E
8C
FC
F8
ENDCHAR
STARTCHAR $0459
ENCODING 1113
SWIDTH 920 0
DWIDTH 23 0
BBX 23 13 0 0
BITMAP
1FFC00
1FFC00
1C1C00
1C1C00
181FE0
181FF8
181C1C
181C0E
181C0E
181C0E
381C1C
F01FFC
E01FF0
ENDCHAR
STARTCHAR $045A
ENCODING 1114
SWIDTH 960 0
DWIDTH 24 0
BBX 21 13 2 0
BITMAP
E03000
E03000
E03000
E03000
E03000
FFFFE0
FFFFF0
E03038
E03018
E03018
E03038
E03FF0
E03FE0
ENDCHAR
STARTCHAR $045B
ENCODING 1115
SWIDTH 680 0
DWIDTH 17 0
BBX 16 19 -1 0
BITMAP
1C00
1C00
FFF0
1C00
1C00
1C00
1CF8
1FFC
1F0E
1E07
1C07
1C03
1C03
1C03
1C03
1C03
1C03
1C03
1C03
ENDCHAR
STARTCHAR $045C
ENCODING 1116
SWIDTH 600 0
DWIDTH 15 0
BBX 12 18 2 0
BITMAP
03C0
0700
0E00
0000
0000
E070
E060
E0E0
E1C0
E180
E300
FF00
FF00
E380
E1C0
E0E0
E060
E070
ENDCHAR
STARTCHAR $045D
ENCODING 1117
SWIDTH 680 0
DWIDTH 17 0
BBX 13 18 2 0
BITMAP
1C00
0E00
0700
0000
0000
E038
E038
E078
E0F8
E1D8
E398
E718
EE18
EC18
FC18
F818
F018
E018
ENDCHAR
STARTCHAR $045E
ENCODING 1118
SWIDTH 560 0
DWIDTH 14 0
BBX 14 23 0 -5
BITMAP
1860
18C0
0FC0
0000
0000
E00C
6018
7018
3038
3830
1870
1860
1C60
0CC0
0EC0
0780
0780
0380
0300
0700
8E00
FC00
7800
ENDCHAR
STARTCHAR $045F
ENCODING 1119
SWIDTH 640 0
DWIDTH 16 0
BBX 12 16 2 -3
BITMAP
E070
E070
E070
E070
E070
E070
E070
E070
E070
E070
E070
FFF0
FFF0
0600
0600
0600
ENDCHAR
STARTCHAR $0462
ENCODING 1122
SWIDTH 800 0
DWIDTH 20 0
BBX 19 19 0 0
BITMAP
070000
070000
070000
FFF800
FFF800
070000
070000
07FF00
07FFC0
0701E0
0700E0
070060
070060
070060
070060
0700E0
0701C0
07FF80
07FF00
ENDCHAR
STARTCHAR $0463
ENCODING 1123
SWIDTH 600 0
DWIDTH 15 0
BBX 15 19 0 0
BITMAP
1C00
1C00
1C00
1C00
1C00
FFE0
FFE0
1C00
1C00
1C00
1FF0
1FFC
1C1C
1C0E
1C0E
1C0C
1C1C
1FF8
1FF0
ENDCHAR
STARTCHAR $046A
ENCODING 1130
SWIDTH 920 0
DWIDTH 23 0
BBX 21 18 1 0
BITMAP
3FFFE0
3FFFE0
3800C0
1C0180
0E0300
070600
038C00
01D800
03FE00
0FFF80
1C63C0
3861C0
3060E0
706060
606070
E06070
E06030
C06038
ENDCHAR
STARTCHAR $046B
ENCODING 1131
SWIDTH 720 0
DWIDTH 18 0
BBX 16 13 1 0
BITMAP
7FFE
7FFE
301C
1838
0C70
06E0
1FF0
3FFC
718C
618E
E186
C187
C183
ENDCHAR
STARTCHAR $0472
ENCODING 1138
SWIDTH 840 0
DWIDTH 21 0
BBX 19 18 1 0
BITMAP
01F800
0FFE00
1F1F00
380380
7001C0
7001C0
6000E0
E000E0
FFFFE0
FFFFE0
E000E0
6000E0
7001C0
7001C0
3C0380
1F1F00
0FFE00
03F800
ENDCHAR
STARTCHAR $0473
ENCODING 1139
SWIDTH 640 0
DWIDTH 16 0
BBX 14 13 1 0
BITMAP
0FC0
3FF0
7838
601C
E00C
FFFC
FFFC
E00C
E01C
7018
3838
1FF0
0FC0
ENDCHAR
STARTCHAR $0474
ENCODING 1140
SWIDTH 760 0
DWIDTH 19 0
BBX 18 18 1 0
BITMAP
C003C0
E007C0
E00F80
600C00
701C00
301800
381800
383800
183000
1C3000
0C7000
0E6000
0EE000
06E000
07C000
03C000
03C000
038000
ENDCHAR
STARTCHAR $0475
ENCODING 1141
SWIDTH 600 0
DWIDTH 15 0
BBX 15 13 0 0
BITMAP
E00E
601E
703E
3030
3870
1860
1C60
1CE0
0CC0
0FC0
0780
0780
0380
ENDCHAR
STARTCHAR $048A
ENCODING 1162
SWIDTH 840 0
DWIDTH 21 0
BBX 17 26 3 -4
BITMAP
182000
1CE000
07C000
000000
C00E00
C01E00
C01E00
C03E00
C07E00
C0EE00
C0EE00
C1CE00
C38E00
C70E00
C70E00
CE0E00
DC0E00
D80E00
F80E00
F00E00
E00F80
C00F80
000380
000300
000300
000300
ENDCHAR
STARTCHAR $048B
ENCODING 1163
SWIDTH 720 0
DWIDTH 18 0
BBX 15 21 2 -3
BITMAP
1060
18C0
0F80
0000
0000
E038
E038
E078
E0F8
E1D8
E398
E718
EE18
EC18
FC18
F818
F01E
E01E
000C
000C
000C
ENDCHAR
STARTCHAR $048C
ENCODING 1164
SWIDTH 720 0
DWIDTH 18 0
BBX 16 19 1 0
BITMAP
3800
3800
3800
FFC0
FFC0
3800
3800
3FF8
3FFE
380F
3807
3803
3803
3803
3803
3807
380F
3FFE
3FF8
ENDCHAR
STARTCHAR $048D
ENCODING 1165
SWIDTH 600 0
DWIDTH 15 0
BBX 13 13 1 0
BITMAP
3800
FF80
FF80
3800
3800
3FE0
3FF8
3838
3818
3818
3838
3FF0
3FE0
ENDCHAR
STARTCHAR $048E
ENCODING 1166
SWIDTH 720 0
DWIDTH 18 0
BBX 14 18 3 0
BITMAP
FFC0
FFF0
C078
C038
C01C
C01C
C21C
C31C
C19C
C1B8
C0F8
FFF0
FFF0
C030
C018
C008
C000
C000
ENDCHAR
STARTCHAR $048F
ENCODING 1167
SWIDTH 680 0
DWIDTH 17 0
BBX 14 18 2 -5
BITMAP
E7C0
EFF0
F878
F018
E01C
E00C
E00C
E00C
E0DC
F0F8
F878
EFF0
E7D8
E00C
E008
E000
E000
E000
ENDCHAR
STARTCHAR $0490
ENCODING 1168
SWIDTH 600 0
DWIDTH 15 0
BBX 11 22 3 0
BITMAP
0060
0060
0060
0060
FFE0
FFE0
C000
C000
C000
C000
C000
C000
C000
C000
C000
C000
C000
C000
C000
C000
C000
C000
ENDCHAR
STARTCHAR $0491
ENCODING 1169
SWIDTH 480 0
DWIDTH 12 0
BBX 9 16 2 0
BITMAP
0180
0180
0180
FF80
FF80
E000
E000
E000
E000
E000
E000
E000
E000
E000
E000
E000
ENDCHAR
STARTCHAR $0492
ENCODING 1170
SWIDTH 600 0
DWIDTH 15 0
BBX 14 18 1 0
BITMAP
3FFC
3FFC
3800
3800
3800
3800
3800
3800
3800
FFF0
FFF0
3800
3800
3800
3800
3800
3800
3800
ENDCHAR
STARTCHAR $0493
ENCODING 1171
SWIDTH 520 0
DWIDTH 13 0
BBX 11 13 1 0
BITMAP
3FE0
3FE0
3000
3000
3000
3000
FFC0
FFC0
3000
3000
3000
3000
3000
ENDCHAR
STARTCHAR $0494
ENCODING 1172
SWIDTH 720 0
DWIDTH 18 0
BBX 13 22 3 -4
BITMAP
FFF0
FFF0
C000
C000
C000
C000
C000
C000
CFC0
FFE0
F0F0
C038
C038
C018
C018
C018
C018
C038
0030
00F0
07E0
0780
ENDCHAR
STARTCHAR $0495
ENCODING 1173
SWIDTH 600 0
DWIDTH 15 0
BBX 12 18 2 -5
BITMAP
FFC0
FFC0
E000
E000
E000
E000
EF80
FFE0
F0F0
E070
E030
E030
E030
0030
0070
00E0
0FC0
0F80
ENDCHAR
STARTCHAR $0496
ENCODING 1174
SWIDTH 1080 0
DWIDTH 27 0
BBX 25 22 1 -4
BITMAP
E0180700
60180E00
70180C00
38181C00
18183800
1C183000
0C187000
06186000
07FFE000
07FFE000
0E187000
1C187000
1C183800
38181800
38181C00
70180E00
E0180F80
E0180780
00000180
00000180
00000180
00000180
ENDCHAR
STARTCHAR $0497
ENCODING 1175
SWIDTH 880 0
DWIDTH 22 0
BBX 21 16 1 -3
BITMAP
E0E060
60E0E0
70E1C0
30E180
38E380
1CE300
0FFF00
1FFF00
18E380
38E380
70E1C0
E0E0F8
E0E078
000018
000018
000018
ENDCHAR
STARTCHAR $0498
ENCODING 1176
SWIDTH 640 0
DWIDTH 16 0
BBX 14 22 1 -4
BITMAP
1F80
FFE0
70F0
0038
0038
0038
0038
0070
1FE0
1FF0
0038
0018
001C
001C
8038
F078
7FF0
1FC0
0700
0700
0700
0700
ENDCHAR
STARTCHAR $0499
ENCODING 1177
SWIDTH 560 0
DWIDTH 14 0
BBX 11 16 1 -3
BITMAP
3F00
FFC0
41E0
00E0
00E0
1FC0
1FC0
00E0
0060
0060
80E0
FFC0
3F00
0C00
0C00
0C00
ENDCHAR
STARTCHAR $049A
ENCODING 1178
SWIDTH 760 0
DWIDTH 19 0
BBX 16 22 3 -4
BITMAP
C01C
C038
C030
C070
C0E0
C1C0
C180
C380
FF00
FF00
C380
C1C0
C0C0
C0E0
C070
C038
C03F
C01F
0007
0007
0007
0007
ENDCHAR
STARTCHAR $049B
ENCODING 1179
SWIDTH 600 0
DWIDTH 15 0
BBX 14 16 2 -3
BITMAP
E070
E060
E0E0
E1C0
E180
E300
FF00
FF00
E380
E1C0
E0E0
E07C
E07C
000C
000C
000C
ENDCHAR
STARTCHAR $049C
ENCODING 1180
SWIDTH 760 0
DWIDTH 19 0
BBX 15 18 3 0
BITMAP
C00C
C01C
C038
C030
C070
CC60
CCC0
CDC0
FF80
FF80
CDC0
CCE0
CCE0
CC70
C038
C038
C01C
C00E
ENDCHAR
STARTCHAR $049D
ENCODING 1181
SWIDTH 600 0
DWIDTH 15 0
BBX 13 13 2 0
BITMAP
E030
E070
E060
ECC0
EDC0
ED80
FF00
FF80
EDC0
ECC0
E0E0
E070
E038
ENDCHAR
STARTCHAR $049E
ENCODING 1182
SWIDTH 720 0
DWIDTH 18 0
BBX 17 18 1 0
BITMAP
380300
380700
380E00
FF8C00
FF9800
383800
387000
386000
3FE000
3FE000
387000
387000
383800
381C00
381C00
380E00
380700
380380
ENDCHAR
STARTCHAR $049F
ENCODING 1183
SWIDTH 600 0
DWIDTH 15 0
BBX 14 19 0 0
BITMAP
3800
3800
FF80
FF80
3800
3800
381C
3818
3838
3870
3860
38C0
3FC0
3FC0
38E0
3870
3838
3818
381C
ENDCHAR
STARTCHAR $04A0
ENCODING 1184
SWIDTH 840 0
DWIDTH 21 0
BBX 20 18 0 0
BITMAP
FF0070
FF00E0
0301C0
030180
030380
030700
030600
030E00
03FC00
03FC00
030E00
030700
030700
030380
0301C0
0300E0
0300E0
030070
ENDCHAR
STARTCHAR $04A1
ENCODING 1185
SWIDTH 680 0
DWIDTH 17 0
BBX 16 13 0 0
BITMAP
FE07
FE06
0E0C
0E1C
0E38
0E30
0FE0
0FF0
0E38
0E1C
0E1C
0E0E
0E07
ENDCHAR
STARTCHAR $04A2
ENCODING 1186
SWIDTH 840 0
DWIDTH 21 0
BBX 17 22 3 -4
BITMAP
C00E00
C00E00
C00E00
C00E00
C00E00
C00E00
C00E00
C00E00
FFFE00
FFFE00
C00E00
C00E00
C00E00
C00E00
C00E00
C00E00
C00F80
C00F80
000180
000180
000180
000180
ENDCHAR
STARTCHAR $04A3
ENCODING 1187
SWIDTH 720 0
DWIDTH 18 0
BBX 15 16 2 -3
BITMAP
E038
E038
E038
E038
E038
E038
FFF8
FFF8
E038
E038
E038
E03E
E03E
000E
000E
000E
ENDCHAR
STARTCHAR $04A4
ENCODING 1188
SWIDTH 1080 0
DWIDTH 27 0
BBX 24 18 3 0
BITMAP
C00FFF
C00FFF
C00E00
C00E00
C00E00
C00E00
C00E00
C00E00
FFFE00
FFFE00
C00E00
C00E00
C00E00
C00E00
C00E00
C00E00
C00E00
C00E00
ENDCHAR
STARTCHAR $04A5
ENCODING 1189
SWIDTH 880 0
DWIDTH 22 0
BBX 20 13 2 0
BITMAP
E03FF0
E03FF0
E03800
E03800
E03800
E03800
FFF800
FFF800
E03800
E03800
E03800
E03800
E03800
ENDCHAR
STARTCHAR $04A6
ENCODING 1190
SWIDTH 1200 0
DWIDTH 30 0
BBX 26 22 3 -4
BITMAP
FFFE0000
FFFE0000
C00E0000
C00E0000
C00E0000
C00E0000
C00E0000
C00E0000
C00EFC00
C00FFF00
C00F0780
C00E0380
C00E01C0
C00E01C0
C00E01C0
C00E01C0
C00E01C0
C00E0180
00000380
00000700
00003E00
00003C00
ENDCHAR
STARTCHAR $04A7
ENCODING 1191
SWIDTH 960 0
DWIDTH 24 0
BBX 22 18 2 -5
BITMAP
FFF000
FFF000
E03000
E03000
E03000
E03000
E037E0
E03FF0
E03838
E0301C
E0301C
E0301C
E0301C
00001C
000018
000078
0003F0
0003C0
ENDCHAR
STARTCHAR $04A8
ENCODING 1192
SWIDTH 960 0
DWIDTH 24 0
BBX 22 18 1 0
BITMAP
0C0F80
1C3FE0
3878F0
307038
70E038
60E018
60C018
60C018
E0C018
E0C018
60E038
60E038
707030
387060
3C38C0
1E1F80
07FFFC
01FDFC
ENDCHAR
STARTCHAR $04A9
ENCODING 1193
SWIDTH 800 0
DWIDTH 20 0
BBX 18 13 1 0
BITMAP
103C00
38FF00
71C380
618180
E38180
E38180
E38180
E18180
618380
71C700
38FE00
1FFFC0
07FFC0
ENDCHAR
STARTCHAR $04AA
ENCODING 1194
SWIDTH 720 0
DWIDTH 18 0
BBX 16 22 1 -4
BITMAP
03F8
0FFE
1F1F
3C02
7000
7000
6000
E000
E000
E000
E000
6000
7000
7000
3C02
1F0F
0FFE
03F8
00C0
00C0
00C0
00C0
ENDCHAR
STARTCHAR $04AB
ENCODING 1195
SWIDTH 560 0
DWIDTH 14 0
BBX 12 16 1 -3
BITMAP
0FC0
1FE0
3870
7020
E000
E000
E000
E000
E000
6000
7830
3FF0
0FC0
0300
0300
0300
ENDCHAR
STARTCHAR $04AC
ENCODING 1196
SWIDTH 600 0
DWIDTH 15 0
BBX 15 22 0 -4
BITMAP
FFFE
FFFE
0380
0380
0380
0380
0380
0380
0380
0380
0380
0380
0380
0380
0380
0380
03E0
03E0
0060
0060
0060
0060
ENDCHAR
STARTCHAR $04AD
ENCODING 1197
SWIDTH 480 0
DWIDTH 12 0
BBX 12 16 0 -3
BITMAP
FFF0
FFF0
0600
0600
0600
0600
0600
0600
0600
0600
0600
0780
0780
0180
0180
0180
ENDCHAR
STARTCHAR $04AE
ENCODING 1198
SWIDTH 680 0
DWIDTH 17 0
BBX 16 18 0 0
BITMAP
E003
7007
3006
380C
181C
1C18
0E38
0630
0770
03E0
03C0
01C0
01C0
01C0
01C0
01C0
01C0
01C0
ENDCHAR
STARTCHAR $04AF
ENCODING 1199
SWIDTH 560 0
DWIDTH 14 0
BBX 14 18 0 -5
BITMAP
E00C
601C
7018
3038
3830
1870
1860
1C60
0CC0
0EC0
07C0
0780
0380
0300
0300
0300
0300
0300
ENDCHAR
STARTCHAR $04B0
ENCODING 1200
SWIDTH 680 0
DWIDTH 17 0
BBX 16 18 0 0
BITMAP
E003
7007
3006
380C
181C
1C18
0E38
0E30
0770
0360
03C0
1FFC
1FFC
01C0
01C0
01C0
01C0
01C0
ENDCHAR
STARTCHAR $04B1
ENCODING 1201
SWIDTH 560 0
DWIDTH 14 0
BBX 14 18 0 -5
BITMAP
E00C
601C
7018
3038
3830
1870
1860
1C60
0CC0
0EC0
07C0
0780
3FF8
3FF8
0300
0300
0300
0300
ENDCHAR
STARTCHAR $04B2
ENCODING 1202
SWIDTH 720 0
DWIDTH 18 0
BBX 16 22 1 -4
BITMAP
E00C
701C
3038
3870
1C70
0EE0
0FC0
07C0
0380
0780
07C0
0EE0
1CE0
1870
3838
701C
E01F
E00F
0003
0003
0003
0003
ENDCHAR
STARTCHAR $04B3
ENCODING 1203
SWIDTH 560 0
DWIDTH 14 0
BBX 13 16 1 -3
BITMAP
E070
60E0
71C0
3980
1F00
0F00
0E00
0F00
1B80
39C0
70C0
E0F8
C078
0018
0018
0018
ENDCHAR
STARTCHAR $04B4
ENCODING 1204
SWIDTH 960 0
DWIDTH 24 0
BBX 24 22 0 -4
BITMAP
FFFC18
FFFC18
038018
038018
038018
038018
038018
038018
038018
038018
038018
038018
038018
038018
038018
038018
03FFFF
03FFFF
000007
000007
000007
000007
ENDCHAR
STARTCHAR $04B5
ENCODING 1205
SWIDTH 760 0
DWIDTH 19 0
BBX 18 16 0 -3
BITMAP
FFE300
FFE300
060300
060300
060300
060300
060300
060300
060300
060300
060300
07FFC0
07FFC0
0000C0
0000C0
0000C0
ENDCHAR
STARTCHAR $04B6
ENCODING 1206
SWIDTH 760 0
DWIDTH 19 0
BBX 17 22 1 -4
BITMAP
E00E00
E00E00
E00E00
E00E00
E00E00
E00E00
E00E00
600E00
700E00
783E00
3FFE00
0FCE00
000E00
000E00
000E00
000E00
000F80
000F80
000180
000180
000180
000180
ENDCHAR
STARTCHAR $04B7
ENCODING 1207
SWIDTH 640 0
DWIDTH 16 0
BBX 14 16 1 -3
BITMAP
C070
C070
C070
C070
C070
E070
F070
7FF0
3F70
0070
0070
007C
007C
000C
000C
000C
ENDCHAR
STARTCHAR $04B8
ENCODING 1208
SWIDTH 720 0
DWIDTH 18 0
BBX 15 18 1 0
BITMAP
E00E
E00E
E00E
E00E
E00E
E00E
E30E
E30E
730E
7B3E
3FFE
0FEE
030E
030E
030E
030E
000E
000E
ENDCHAR
STARTCHAR $04B9
ENCODING 1209
SWIDTH 600 0
DWIDTH 15 0
BBX 12 13 1 0
BITMAP
C070
C070
C070
C070
C670
E670
F670
7FF0
3F70
0670
0670
0070
0070
ENDCHAR
STARTCHAR $04BA
ENCODING 1210
SWIDTH 720 0
DWIDTH 18 0
BBX 14 18 3 0
BITMAP
C000
C000
C000
C000
C000
C000
CFC0
FFF0
F878
C01C
C01C
C00C
C00C
C00C
C00C
C00C
C00C
C00C
ENDCHAR
STARTCHAR $04BB
ENCODING 1211
SWIDTH 680 0
DWIDTH 17 0
BBX 13 19 2 0
BITMAP
E000
E000
E000
E000
E000
E000
E7C0
FFE0
F870
F038
E038
E038
E038
E038
E038
E038
E038
E038
E038
ENDCHAR
STARTCHAR $04BC
ENCODING 1212
SWIDTH 1000 0
DWIDTH 25 0
BBX 23 18 1 0
BITMAP
001F80
007FE0
00F1F0
01C078
E38038
C3001C
C7000C
C7000E
E6000E
7FFFFE
3FFFFE
070000
070000
038000
03C030
01F0F8
00FFE0
001F80
ENDCHAR
STARTCHAR $04BD
ENCODING 1213
SWIDTH 760 0
DWIDTH 19 0
BBX 17 13 1 0
BITMAP
00F800
03FE00
070700
CE0380
CC0180
FFFF80
7FFF80
0C0000
0E0000
0E0000
078700
03FF00
00FC00
ENDCHAR
STARTCHAR $04BE
ENCODING 1214
SWIDTH 1000 0
DWIDTH 25 0
BBX 23 22 1 -4
BITMAP
001F80
007FE0
00F1F0
01C078
E38038
C3001C
C7000C
C7000E
E6000E
7FFFFE
3FFFFE
070000
070000
038000
03C010
01F0F8
00FFF0
003F80
000600
000600
000600
000600
ENDCHAR
STARTCHAR $04BF
ENCODING 1215
SWIDTH 760 0
DWIDTH 19 0
BBX 17 16 1 -3
BITMAP
00F800
03FE00
070F00
CE0380
CE0380
CC0180
FFFF80
7FFF80
0C0000
0E0000
070300
03FF00
00FC00
007000
007000
007000
ENDCHAR
STARTCHAR $04C0
ENCODING 1216
SWIDTH 320 0
DWIDTH 8 0
BBX 2 18 3 0
BITMAP
C0
C0
C0
C0
C0
C0
C0
C0
C0
C0
C0
C0
C0
C0
C0
C0
C0
C0
ENDCHAR
STARTCHAR $04C1
ENCODING 1217
SWIDTH 1040 0
DWIDTH 26 0
BBX 24 22 1 0
BITMAP
00C300
00E700
007C00
000000
E01807
60180E
70180C
38181C
181838
1C1830
0C1870
061860
07FFE0
07FFE0
0E1870
1C1870
1C1838
381818
38181C
70180E
E0180E
E01807
ENDCHAR
STARTCHAR $04C2
ENCODING 1218
SWIDTH 840 0
DWIDTH 21 0
BBX 20 18 1 0
BITMAP
020C00
031800
01F000
000000
000000
E0E060
60E0E0
70E1C0
30E180
38E380
1CE300
0FFF00
1FFF00
18E380
38E380
70E1C0
E0E0E0
E0E070
ENDCHAR
STARTCHAR $04C3
ENCODING 1219
SWIDTH 720 0
DWIDTH 18 0
BBX 14 23 3 -5
BITMAP
C01C
C038
C030
C070
C0E0
C1C0
C180
C380
FF00
FF80
C3C0
C1C0
C0E0
C070
C038
C038
C01C
C01C
000C
001C
001C
01F8
00F0
ENDCHAR
STARTCHAR $04C4
ENCODING 1220
SWIDTH 600 0
DWIDTH 15 0
BBX 12 18 2 -5
BITMAP
E070
E060
E0C0
E180
E300
FF00
FF00
E380
E1C0
E0E0
E060
E070
E030
0030
0030
0070
03F0
03C0
ENDCHAR
STARTCHAR $04C6
ENCODING 1222
SWIDTH 680 0
DWIDTH 17 0
BBX 16 16 0 -3
BITMAP
1FFC
1FFC
1C1C
1C1C
181C
181C
181C
181C
181C
181C
381C
F01F
E01E
0006
0006
0004
ENDCHAR
STARTCHAR $04C7
ENCODING 1223
SWIDTH 800 0
DWIDTH 20 0
BBX 15 23 3 -5
BITMAP
C00E
C00E
C00E
C00E
C00E
C00E
C00E
C00E
FFFE
FFFE
C00E
C00E
C00E
C00E
C00E
C00E
C00E
C00E
000E
000E
009C
00FC
00F8
ENDCHAR
STARTCHAR $04C8
ENCODING 1224
SWIDTH 680 0
DWIDTH 17 0
BBX 13 18 2 -5
BITMAP
E038
E038
E038
E038
E038
E038
FFF8
FFF8
E038
E038
E038
E038
E038
0038
0038
0238
03F0
03E0
ENDCHAR
STARTCHAR $04C9
ENCODING 1225
SWIDTH 840 0
DWIDTH 21 0
BBX 17 22 3 -4
BITMAP
C00E00
C00E00
C00E00
C00E00
C00E00
C00E00
C00E00
C00E00
FFFE00
FFFE00
C00E00
C00E00
C00E00
C00E00
C00E00
C00E00
C00F80
C00F80
000380
000300
000300
000300
ENDCHAR
STARTCHAR $04CA
ENCODING 1226
SWIDTH 720 0
DWIDTH 18 0
BBX 15 16 2 -3
BITMAP
E038
E038
E038
E038
E038
E038
FFF8
FFF8
E038
E038
E038
E03E
E03C
000C
000C
0018
ENDCHAR
STARTCHAR $04CB
ENCODING 1227
SWIDTH 720 0
DWIDTH 18 0
BBX 15 22 1 -4
BITMAP
E00E
E00E
E00E
E00E
E00E
E00E
E00E
700E
781E
3FFE
1FEE
000E
000E
000E
000E
000E
007E
007E
0060
0060
0060
0060
ENDCHAR
STARTCHAR $04CC
ENCODING 1228
SWIDTH 600 0
DWIDTH 15 0
BBX 12 16 1 -3
BITMAP
C070
C070
C070
C070
E070
F070
7FF0
3F70
0070
0070
0070
01F0
01F0
0180
0180
0180
ENDCHAR
STARTCHAR $04CD
ENCODING 1229
SWIDTH 1000 0
DWIDTH 25 0
BBX 21 22 3 -4
BITMAP
C000C0
E001C0
E001C0
F003C0
F003C0
F807C0
DC06C0
CC0CC0
CE1CC0
C618C0
C738C0
C330C0
C3F0C0
C1E0C0
C0C0C0
C0C0C0
C000F8
C000F8
000030
000030
000030
000060
ENDCHAR
STARTCHAR $04CE
ENCODING 1230
SWIDTH 840 0
DWIDTH 21 0
BBX 18 16 2 -3
BITMAP
E00700
F00F00
F00F00
F81F00
F81F00
EC3700
EE7700
E66700
E3C700
E3C700
E18700
E107C0
E00780
000180
000180
000180
ENDCHAR
STARTCHAR $04CF
ENCODING 1231
SWIDTH 280 0
DWIDTH 7 0
BBX 3 19 2 0
BITMAP
E0
E0
E0
E0
E0
E0
E0
E0
E0
E0
E0
E0
E0
E0
E0
E0
E0
E0
E0
ENDCHAR
STARTCHAR $04D0
ENCODING 1232
SWIDTH 760 0
DWIDTH 19 0
BBX 17 22 1 0
BITMAP
0C1800
063000
03E000
000000
01C000
01C000
03E000
036000
077000
063000
0E3800
0C1800
1C1800
180C00
180C00
3FFE00
3FFE00
700700
600300
E00380
C00380
C00180
ENDCHAR
STARTCHAR $04D1
ENCODING 1233
SWIDTH 600 0
DWIDTH 15 0
BBX 12 18 1 0
BITMAP
30C0
18C0
1F80
0000
0000
1F80
7FE0
60E0
0070
0070
0FF0
7FF0
6070
E070
E070
E0F0
7FF0
3F70
ENDCHAR
STARTCHAR $04D2
ENCODING 1234
SWIDTH 760 0
DWIDTH 19 0
BBX 17 22 1 1
BITMAP
063000
063000
000000
000000
01C000
01C000
03E000
036000
077000
063000
0E3800
0C1800
1C1800
180C00
180C00
3FFE00
3FFE00
700700
600300
E00380
C00380
C00180
ENDCHAR
STARTCHAR $04D3
ENCODING 1235
SWIDTH 600 0
DWIDTH 15 0
BBX 12 18 1 0
BITMAP
18C0
19C0
0080
0000
0000
1F80
7FE0
60E0
0070
0070
0FF0
7FF0
6070
E070
E070
E0F0
7FF0
3F70
ENDCHAR
STARTCHAR $04D4
ENCODING 1236
SWIDTH 1040 0
DWIDTH 26 0
BBX 25 18 0 0
BITMAP
003FFF80
003FFF80
007E0000
006E0000
00EE0000
01CE0000
018E0000
038E0000
030FFF00
070FFF00
060E0000
0E0E0000
1FFE0000
1FFE0000
380E0000
300E0000
700FFF80
E00FFF80
ENDCHAR
STARTCHAR $04D5
ENCODING 1237
SWIDTH 1000 0
DWIDTH 25 0
BBX 23 13 1 0
BITMAP
1F83E0
7FCFF0
60FC38
00781C
00700C
0FFFFE
7FFFFE
607000
E07000
E07808
E0FC18
7FCFF8
1F07E0
ENDCHAR
STARTCHAR $04D6
ENCODING 1238
SWIDTH 680 0
DWIDTH 17 0
BBX 12 22 3 0
BITMAP
30C0
39C0
1F00
0000
FFF0
FFF0
C000
C000
C000
C000
C000
C000
FFE0
FFE0
C000
C000
C000
C000
C000
C000
FFF0
FFF0
ENDCHAR
STARTCHAR $04D7
ENCODING 1239
SWIDTH 640 0
DWIDTH 16 0
BBX 13 18 1 0
BITMAP
1860
18C0
0FC0
0000
0000
0FC0
3FE0
7870
6038
E018
FFF8
FFF8
E000
E000
7000
3870
3FF0
0FC0
ENDCHAR
STARTCHAR $04D8
ENCODING 1240
SWIDTH 840 0
DWIDTH 21 0
BBX 18 18 1 0
BITMAP
03F000
1FFC00
3E3F00
180780
000380
0001C0
0001C0
0000C0
FFFFC0
FFFFC0
E000C0
E001C0
6001C0
700380
380700
1E1F00
0FFC00
03F000
ENDCHAR
STARTCHAR $04D9
ENCODING 1241
SWIDTH 640 0
DWIDTH 16 0
BBX 14 13 1 0
BITMAP
0F80
3FE0
30F0
2038
0018
001C
FFFC
FFFC
6018
7038
3870
1FE0
0FC0
ENDCHAR
STARTCHAR $04DA
ENCODING 1242
SWIDTH 840 0
DWIDTH 21 0
BBX 18 22 1 0
BITMAP
031800
033800
001000
000000
03F000
1FFC00
3E3F00
180780
000380
0001C0
0001C0
0000C0
FFFFC0
FFFFC0
E000C0
E001C0
6001C0
700380
380700
1E1F00
0FFC00
03F000
ENDCHAR
STARTCHAR $04DB
ENCODING 1243
SWIDTH 640 0
DWIDTH 16 0
BBX 14 18 1 0
BITMAP
0800
1CE0
0CC0
0000
0000
0F80
3FE0
30F0
2038
0018
001C
FFFC
FFFC
6018
7038
3870
1FE0
0FC0
ENDCHAR
STARTCHAR $04DC
ENCODING 1244
SWIDTH 1040 0
DWIDTH 26 0
BBX 24 23 1 0
BITMAP
004000
00E600
006600
000000
000000
E01807
60180E
70180C
38181C
181838
1C1830
0C1870
061860
07FFE0
07FFE0
0E1870
1C1870
1C1838
381818
38181C
70180E
E0180E
E01807
ENDCHAR
STARTCHAR $04DD
ENCODING 1245
SWIDTH 840 0
DWIDTH 21 0
BBX 20 18 1 0
BITMAP
031800
039800
000000
000000
000000
E0E060
60E0E0
70E1C0
30E180
38E380
1CE300
0FFF00
1FFF00
18E380
38E380
70E1C0
E0E0E0
E0E070
ENDCHAR
STARTCHAR $04DE
ENCODING 1246
SWIDTH 640 0
DWIDTH 16 0
BBX 14 22 1 0
BITMAP
0CC0
1CE0
0800
0000
1F80
FFE0
70F0
0038
0038
0038
0038
0070
1FE0
1FF0
0038
0018
001C
001C
8038
F078
7FF0
1FC0
ENDCHAR
STARTCHAR $04DF
ENCODING 1247
SWIDTH 560 0
DWIDTH 14 0
BBX 11 17 1 1
BITMAP
3980
3180
0000
0000
3F00
FFC0
41E0
00E0
00E0
1FC0
1FC0
00E0
0060
0060
C0E0
FFC0
3F00
ENDCHAR
STARTCHAR $04E0
ENCODING 1248
SWIDTH 640 0
DWIDTH 16 0
BBX 13 18 1 0
BITMAP
FFF8
FFF8
0070
00E0
01C0
0380
0700
07C0
07F0
0078
0038
0018
0018
0018
C038
F070
7FF0
1FC0
ENDCHAR
STARTCHAR $04E1
ENCODING 1249
SWIDTH 520 0
DWIDTH 13 0
BBX 12 18 0 -5
BITMAP
FFF0
FFF0
00E0
00C0
0180
0300
0600
0F80
0FE0
00F0
0070
0030
0030
0030
8070
F0E0
FFE0
3F80
ENDCHAR
STARTCHAR $04E2
ENCODING 1250
SWIDTH 840 0
DWIDTH 21 0
BBX 15 22 3 0
BITMAP
1FE0
1FE0
0000
0000
C00E
C01E
C01E
C03E
C07E
C0EE
C0EE
C1CE
C38E
C70E
C70E
CE0E
DC0E
F80E
F80E
F00E
E00E
C00E
ENDCHAR
STARTCHAR $04E3
ENCODING 1251
SWIDTH 680 0
DWIDTH 17 0
BBX 13 18 2 0
BITMAP
3FE0
3FE0
0000
0000
0000
E038
E038
E078
E0F8
E1D8
E398
E718
EE18
EC18
FC18
F818
F018
E018
ENDCHAR
STARTCHAR $04E4
ENCODING 1252
SWIDTH 840 0
DWIDTH 21 0
BBX 15 23 3 0
BITMAP
0040
0CE0
0C60
0000
0000
C00E
C01E
C01E
C03E
C07E
C0EE
C0EE
C1CE
C38E
C70E
C70E
CE0E
DC0E
F80E
F80E
F00E
E00E
C00E
ENDCHAR
STARTCHAR $04E5
ENCODING 1253
SWIDTH 680 0
DWIDTH 17 0
BBX 13 18 2 0
BITMAP
18C0
18C0
0000
0000
0000
E038
E038
E078
E0F8
E1D8
E398
E718
EE18
EC18
FC18
F818
F018
E018
ENDCHAR
STARTCHAR $04E6
ENCODING 1254
SWIDTH 840 0
DWIDTH 21 0
BBX 19 22 1 0
BITMAP
031800
039800
000000
000000
01F800
0FFE00
1F1F00
380380
7001C0
7001C0
6000E0
E000E0
E000E0
E000E0
E000E0
6000E0
7000C0
7001C0
3C0380
1F0F00
0FFE00
03F800
ENDCHAR
STARTCHAR $04E7
ENCODING 1255
SWIDTH 640 0
DWIDTH 16 0
BBX 14 18 1 0
BITMAP
0CC0
1CE0
0800
0000
0000
0FC0
1FF0
3878
7038
E01C
E01C
E01C
E01C
E01C
7038
7870
3FF0
0FC0
ENDCHAR
STARTCHAR $04E8
ENCODING 1256
SWIDTH 840 0
DWIDTH 21 0
BBX 19 18 1 0
BITMAP
01F800
0FFE00
1F1F00
380380
7001C0
7001C0
6000E0
E000E0
FFFFE0
FFFFE0
E000E0
6000E0
7001C0
7001C0
3C0380
1F1F00
0FFE00
03F800
ENDCHAR
STARTCHAR $04E9
ENCODING 1257
SWIDTH 640 0
DWIDTH 16 0
BBX 14 13 1 0
BITMAP
0FC0
3FF0
7838
601C
E00C
FFFC
FFFC
E00C
E01C
7018
3838
1FF0
0FC0
ENDCHAR
STARTCHAR $04EA
ENCODING 1258
SWIDTH 840 0
DWIDTH 21 0
BBX 19 22 1 0
BITMAP
031800
039800
000000
000000
01F800
0FFE00
1F1F00
380380
7001C0
7001C0
6000E0
E000E0
FFFFE0
FFFFE0
E000E0
6000E0
7001C0
7001C0
3C0380
1F1F00
0FFE00
03F800
ENDCHAR
STARTCHAR $04EB
ENCODING 1259
SWIDTH 640 0
DWIDTH 16 0
BBX 14 18 1 0
BITMAP
0CC0
0CE0
0040
0000
0000
0FC0
3FF0
7838
601C
E00C
FFFC
FFFC
E00C
E01C
7018
3838
1FF0
0FC0
ENDCHAR
STARTCHAR $04EC
ENCODING 1260
SWIDTH 720 0
DWIDTH 18 0
BBX 15 22 1 0
BITMAP
0CC0
1CE0
0840
0000
1FC0
7FF0
F0F8
C03C
001C
000E
000E
0006
0FFE
0FFE
0006
000E
000E
001C
C03C
F0F8
7FF0
1F80
ENDCHAR
STARTCHAR $04ED
ENCODING 1261
SWIDTH 560 0
DWIDTH 14 0
BBX 12 17 1 1
BITMAP
3980
3180
0000
0000
3F00
FFC0
C0E0
0070
0030
1FF0
1FF0
0030
0030
0060
E1E0
FFC0
3F00
ENDCHAR
STARTCHAR $04EE
ENCODING 1262
SWIDTH 680 0
DWIDTH 17 0
BBX 16 22 1 0
BITMAP
1FF0
1FF0
0000
0000
C007
E006
600E
700C
301C
3818
1838
1C30
0C70
0E60
06C0
07C0
0380
0380
0300
0F00
7E00
7800
ENDCHAR
STARTCHAR $04EF
ENCODING 1263
SWIDTH 560 0
DWIDTH 14 0
BBX 14 23 0 -5
BITMAP
1FE0
1FE0
0000
0000
0000
E00C
6018
7018
3038
3830
1870
1860
1C60
0CC0
0EC0
0780
0780
0380
0300
0700
8E00
FC00
7800
ENDCHAR
STARTCHAR $04F0
ENCODING 1264
SWIDTH 680 0
DWIDTH 17 0
BBX 16 22 1 1
BITMAP
0C60
0C60
0000
0000
C007
E006
600E
700C
301C
3818
1838
1C30
0C70
0E60
06C0
07C0
0380
0380
0300
0F00
7E00
7800
ENDCHAR
STARTCHAR $04F1
ENCODING 1265
SWIDTH 560 0
DWIDTH 14 0
BBX 14 23 0 -5
BITMAP
18C0
1CC0
0800
0000
0000
E00C
6018
7018
3038
3830
1870
1860
1C60
0CC0
0EC0
0780
0780
0380
0300
0700
8E00
FC00
7800
ENDCHAR
STARTCHAR $04F2
ENCODING 1266
SWIDTH 680 0
DWIDTH 17 0
BBX 16 23 1 0
BITMAP
0398
0330
0660
0000
0000
C007
E006
600E
700C
301C
3818
1838
1C30
0C70
0E60
06C0
07C0
0380
0380
0300
0F00
7E00
7800
ENDCHAR
STARTCHAR $04F3
ENCODING 1267
SWIDTH 560 0
DWIDTH 14 0
BBX 14 23 0 -5
BITMAP
0730
0660
0CC0
0000
0000
E00C
6018
7018
3038
3830
1870
1860
1C60
0CC0
0EC0
0780
0780
0380
0300
0700
8E00
FC00
7800
ENDCHAR
STARTCHAR $04F4
ENCODING 1268
SWIDTH 720 0
DWIDTH 18 0
BBX 15 22 1 1
BITMAP
0C60
0C60
0000
0000
E00E
E00E
E00E
E00E
E00E
E00E
E00E
600E
700E
783E
3FFE
0FCE
000E
000E
000E
000E
000E
000E
ENDCHAR
STARTCHAR $04F5
ENCODING 1269
SWIDTH 600 0
DWIDTH 15 0
BBX 12 18 1 0
BITMAP
1980
3980
1000
0000
0000
C070
C070
C070
C070
C070
E070
F070
7FF0
3F70
0070
0070
0070
0070
ENDCHAR
STARTCHAR $04F6
ENCODING 1270
SWIDTH 560 0
DWIDTH 14 0
BBX 11 22 3 -4
BITMAP
FFE0
FFE0
C000
C000
C000
C000
C000
C000
C000
C000
C000
C000
C000
C000
C000
C000
F800
F800
1800
1800
1800
1800
ENDCHAR
STARTCHAR $04F7
ENCODING 1271
SWIDTH 480 0
DWIDTH 12 0
BBX 10 16 2 -3
BITMAP
FFC0
FFC0
E000
E000
E000
E000
E000
E000
E000
E000
E000
F800
F800
1800
1800
1800
ENDCHAR
STARTCHAR $04F8
ENCODING 1272
SWIDTH 1000 0
DWIDTH 25 0
BBX 19 22 3 1
BITMAP
031800
031800
000000
000000
C00060
C00060
C00060
C00060
C00060
C00060
FFE060
FFF060
C07860
C01C60
C01C60
C01C60
C01C60
C01C60
C01860
C07860
FFF060
FFC060
ENDCHAR
STARTCHAR $04F9
ENCODING 1273
SWIDTH 800 0
DWIDTH 20 0
BBX 16 18 2 0
BITMAP
0630
0670
0000
0000
0000
E007
E007
E007
E007
FF07
FFC7
E0E7
E067
E067
E067
E0E7
FFC7
FF87
ENDCHAR
STARTCHAR $04FA
ENCODING 1274
SWIDTH 600 0
DWIDTH 15 0
BBX 14 23 1 -5
BITMAP
3FFC
3FFC
3800
3800
3800
3800
3800
3800
3800
FFF0
FFF0
3800
3800
3800
3800
3800
3E00
3E00
0600
0600
0E00
FE00
7800
ENDCHAR
STARTCHAR $04FB
ENCODING 1275
SWIDTH 480 0
DWIDTH 12 0
BBX 11 18 1 -5
BITMAP
3FE0
3FE0
3000
3000
3000
3000
FFC0
FFC0
3000
3000
3000
3C00
3C00
0C00
0C00
1C00
FC00
F000
ENDCHAR
STARTCHAR $04FC
ENCODING 1276
SWIDTH 680 0
DWIDTH 17 0
BBX 15 23 1 -5
BITMAP
E00E
701C
7018
3838
1C70
0CE0
0EC0
07C0
0380
07C0
07C0
0EE0
1C70
1838
3838
701C
E00C
E00E
000E
000E
000E
00FC
00F8
ENDCHAR
STARTCHAR $04FD
ENCODING 1277
SWIDTH 560 0
DWIDTH 14 0
BBX 12 18 1 -5
BITMAP
E070
60E0
71C0
3980
1F80
0F00
0E00
0F00
1B80
39C0
70E0
E060
C070
0030
0030
0070
03F0
03C0
ENDCHAR
STARTCHAR $04FE
ENCODING 1278
SWIDTH 680 0
DWIDTH 17 0
BBX 15 18 1 0
BITMAP
E00E
701C
3838
3838
1C70
0EE0
0EE0
07C0
7FFC
7FFC
07C0
0EE0
1C70
1C70
3838
701C
701C
E00E
ENDCHAR
STARTCHAR $04FF
ENCODING 1279
SWIDTH 560 0
DWIDTH 14 0
BBX 12 13 1 0
BITMAP
E070
7060
38C0
1980
1F80
7FE0
7FE0
0F80
1D80
39C0
70E0
6070
E070
ENDCHAR
STARTCHAR $0510
ENCODING 1296
SWIDTH 640 0
DWIDTH 16 0
BBX 14 18 1 0
BITMAP
07E0
1FFC
3C38
7000
7000
7000
7000
3800
1FE0
1FE0
7000
6000
E000
E000
7004
7C3C
3FF8
0FE0
ENDCHAR
STARTCHAR $0511
ENCODING 1297
SWIDTH 560 0
DWIDTH 14 0
BBX 12 13 1 0
BITMAP
1FC0
3FE0
7060
6000
7000
3F00
3F00
7000
E000
E000
7070
3FF0
1FC0
ENDCHAR
STARTCHAR $0512
ENCODING 1298
SWIDTH 800 0
DWIDTH 20 0
BBX 17 23 0 -5
BITMAP
07FF80
07FF80
060180
060180
060180
0E0180
0E0180
0E0180
0E0180
0E0180
0C0180
0C0180
0C0180
0C0180
1C0180
380180
F80180
F00180
000180
000380
000380
003F00
001E00
ENDCHAR
STARTCHAR $0513
ENCODING 1299
SWIDTH 640 0
DWIDTH 16 0
BBX 14 18 0 -5
BITMAP
1FFC
1FFC
1C1C
1C1C
181C
181C
181C
181C
181C
181C
381C
F01C
E01C
001C
001C
0118
01F8
01F0
ENDCHAR
STARTCHAR $051A
ENCODING 1306
SWIDTH 840 0
DWIDTH 21 0
BBX 19 22 1 -4
BITMAP
01F800
0FFE00
1F1F00
3C0380
3001C0
7001C0
6000E0
E000E0
E000E0
E000E0
E000E0
6000E0
7000C0
7001C0
380380
1E0780
0FFE00
07FC00
007020
003C60
001FE0
0007C0
ENDCHAR
STARTCHAR $051B
ENCODING 1307
SWIDTH 680 0
DWIDTH 17 0
BBX 14 18 1 -5
BITMAP
0F8C
3FEC
787C
703C
E01C
E01C
E01C
E01C
E01C
703C
787C
3FFC
0F9C
001C
001C
001C
001C
001C
ENDCHAR
STARTCHAR $051C
ENCODING 1308
SWIDTH 1080 0
DWIDTH 27 0
BBX 25 18 1 0
BITMAP
C01C0180
E01C0180
E01E0380
603E0300
70360300
70370700
30770700
38630600
38638E00
18E38E00
18C18C00
1CC1DC00
0DC1DC00
0D80D800
0F80D800
0F80F800
07007000
07007000
ENDCHAR
STARTCHAR $051D
ENCODING 1309
SWIDTH 920 0
DWIDTH 23 0
BBX 23 13 0 0
BITMAP
E03806
60380E
703C0C
307C1C
306E18
38E618
18C638
1CC730
0DC330
0D83E0
0F81E0
0701E0
0701C0
ENDCHAR
STARTCHAR $0524
ENCODING 1316
SWIDTH 840 0
DWIDTH 21 0
BBX 17 22 3 -4
BITMAP
FFFE00
FFFE00
C00E00
C00E00
C00E00
C00E00
C00E00
C00E00
C00E00
C00E00
C00E00
C00E00
C00E00
C00E00
C00E00
C00E00
C00F80
C00F80
000180
000180
000180
000180
ENDCHAR
STARTCHAR $0525
ENCODING 1317
SWIDTH 680 0
DWIDTH 17 0
BBX 15 16 2 -3
BITMAP
FFF8
FFF8
E038
E038
E038
E038
E038
E038
E038
E038
E038
E03E
E03E
000E
000E
000E
ENDCHAR
STARTCHAR $0526
ENCODING 1318
SWIDTH 800 0
DWIDTH 20 0
BBX 17 22 3 -4
BITMAP
C00000
C00000
C00000
C00000
C00000
C00000
CFC000
FFF000
F87800
C01C00
C01C00
C00C00
C00C00
C00C00
C00C00
C00C00
C00F80
C00F80
000380
000380
000380
000380
ENDCHAR
STARTCHAR $0527
ENCODING 1319
SWIDTH 720 0
DWIDTH 18 0
BBX 15 22 2 -3
BITMAP
E000
E000
E000
E000
E000
E000
E7C0
EFF0
F8F0
F038
E038
E038
E038
E038
E038
E038
E038
E03E
E03E
0006
0006
0006
ENDCHAR
STARTCHAR $0528
ENCODING 1320
SWIDTH 800 0
DWIDTH 20 0
BBX 20 23 -2 -5
BITMAP
060070
060070
060070
060070
060070
060070
060070
060070
07FFF0
07FFF0
060070
060070
060070
060070
060070
060070
060070
060070
060000
060000
0E0000
FC0000
780000
ENDCHAR
STARTCHAR $0529
ENCODING 1321
SWIDTH 680 0
DWIDTH 17 0
BBX 17 18 -2 -5
BITMAP
0E0380
0E0380
0E0380
0E0380
0E0380
0E0380
0FFF80
0FFF80
0E0380
0E0380
0E0380
0E0380
0E0380
0E0000
0E0000
8C0000
FC0000
F80000
ENDCHAR
STARTCHAR $052E
ENCODING 1326
SWIDTH 800 0
DWIDTH 20 0
BBX 20 22 0 -4
BITMAP
07FF80
07FF80
060180
060180
060180
0E0180
0E0180
0E0180
0E0180
0E0180
0E0180
0C0180
0C0180
0C0180
1C0180
380180
F801F0
F001F0
000070
000070
000070
000070
ENDCHAR
STARTCHAR $052F
ENCODING 1327
SWIDTH 680 0
DWIDTH 17 0
BBX 16 16 0 -3
BITMAP
1FFC
1FFC
1C1C
1C1C
181C
181C
181C
181C
181C
181C
381C
F01F
E01F
0003
0003
0003
ENDCHAR
STARTCHAR $1E08
ENCODING 7688
SWIDTH 720 0
DWIDTH 18 0
BBX 16 27 1 -5
BITMAP
0038
0070
00C0
0000
03F8
0FFE
1F1F
3802
7000
7000
6000
E000
E000
E000
E000
6000
7000
7000
3C02
1F0F
0FFE
03F8
0080
00E0
0020
0020
03E0
ENDCHAR
STARTCHAR $1E09
ENCODING 7689
SWIDTH 560 0
DWIDTH 14 0
BBX 12 23 1 -5
BITMAP
00E0
0180
0700
0000
0000
0FC0
3FE0
7870
7020
E000
E000
C000
E000
E000
7020
7870
3FE0
0FC0
0200
0700
0180
0180
0F00
ENDCHAR
STARTCHAR $1E0C
ENCODING 7692
SWIDTH 840 0
DWIDTH 21 0
BBX 16 23 3 -5
BITMAP
FFC0
FFF8
C07C
C01E
C00E
C007
C003
C003
C003
C003
C003
C003
C007
C00E
C01E
C07C
FFF8
FFC0
0000
0000
0200
0700
0300
ENDCHAR
STARTCHAR $1E0D
ENCODING 7693
SWIDTH 680 0
DWIDTH 17 0
BBX 14 24 1 -5
BITMAP
001C
001C
001C
001C
001C
001C
0F9C
3FFC
787C
703C
E01C
E01C
C01C
E01C
E01C
703C
787C
3FFC
0F9C
0000
0000
0000
0380
0180
ENDCHAR
STARTCHAR $1E0E
ENCODING 7694
SWIDTH 840 0
DWIDTH 21 0
BBX 16 23 3 -5
BITMAP
FFC0
FFF8
C07C
C01E
C00E
C007
C003
C003
C003
C003
C003
C003
C007
C00E
C01E
C07C
FFF8
FFC0
0000
0000
0000
3FE0
3FE0
ENDCHAR
STARTCHAR $1E0F
ENCODING 7695
SWIDTH 680 0
DWIDTH 17 0
BBX 14 23 1 -4
BITMAP
001C
001C
001C
001C
001C
001C
0F9C
3FFC
787C
703C
E01C
E01C
C01C
E01C
E01C
703C
787C
3FFC
0F9C
0000
0000
0FF0
0FF0
ENDCHAR
STARTCHAR $1E14
ENCODING 7700
SWIDTH 680 0
DWIDTH 17 0
BBX 12 26 3 0
BITMAP
3800
0C00
0600
0000
0000
3FC0
0000
0000
FFF0
FFF0
C000
C000
C000
C000
C000
C000
FFE0
FFE0
C000
C000
C000
C000
C000
C000
FFF0
FFF0
ENDCHAR
STARTCHAR $1E15
ENCODING 7701
SWIDTH 600 0
DWIDTH 15 0
BBX 13 21 1 0
BITMAP
1C00
0600
0300
0000
1FE0
0000
0000
0000
0F80
3FE0
7070
6038
E018
FFF8
FFF8
E000
E000
7000
7870
3FF0
0FC0
ENDCHAR
STARTCHAR $1E16
ENCODING 7702
SWIDTH 680 0
DWIDTH 17 0
BBX 12 26 3 0
BITMAP
0180
0300
0600
0000
0000
3FC0
0000
0000
FFF0
FFF0
C000
C000
C000
C000
C000
C000
FFE0
FFE0
C000
C000
C000
C000
C000
C000
FFF0
FFF0
ENDCHAR
STARTCHAR $1E17
ENCODING 7703
SWIDTH 600 0
DWIDTH 15 0
BBX 13 21 1 0
BITMAP
01C0
0380
0600
0000
1FE0
0000
0000
0000
0F80
3FE0
7070
6038
E018
FFF8
FFF8
E000
E000
7000
7870
3FF0
0FC0
ENDCHAR
STARTCHAR $1E1C
ENCODING 7708
SWIDTH 680 0
DWIDTH 17 0
BBX 12 27 3 -5
BITMAP
30C0
3980
0F00
0000
FFF0
FFF0
C000
C000
C000
C000
C000
C000
FFE0
FFE0
C000
C000
C000
C000
C000
C000
FFF0
FFF0
0600
0700
0180
0180
1F00
ENDCHAR
STARTCHAR $1E1D
ENCODING 7709
SWIDTH 600 0
DWIDTH 15 0
BBX 13 23 1 -5
BITMAP
1060
18C0
0F80
0000
0000
0F80
3FE0
7070
6038
E018
FFF8
FFF8
E000
E000
7000
7870
3FF0
0FC0
0200
0700
0180
0180
0F80
ENDCHAR
STARTCHAR $1E20
ENCODING 7712
SWIDTH 760 0
DWIDTH 19 0
BBX 16 21 1 0
BITMAP
07F8
0000
0000
03F8
0FFE
1F0F
3803
7000
7000
6000
E000
E000
E003
E003
6003
7003
7003
3C03
1F0F
0FFE
03F8
ENDCHAR
STARTCHAR $1E21
ENCODING 7713
SWIDTH 680 0
DWIDTH 17 0
BBX 14 23 1 -5
BITMAP
1FE0
1FE0
0000
0000
0000
0F8C
3FEC
787C
703C
E01C
E01C
C00C
E00C
E01C
701C
787C
3FEC
0F8C
001C
0018
7038
7FF0
1FC0
ENDCHAR
STARTCHAR $1E24
ENCODING 7716
SWIDTH 800 0
DWIDTH 20 0
BBX 15 23 3 -5
BITMAP
C00E
C00E
C00E
C00E
C00E
C00E
C00E
C00E
FFFE
FFFE
C00E
C00E
C00E
C00E
C00E
C00E
C00E
C00E
0000
0000
0000
0300
0300
ENDCHAR
STARTCHAR $1E25
ENCODING 7717
SWIDTH 680 0
DWIDTH 17 0
BBX 13 24 2 -5
BITMAP
E000
E000
E000
E000
E000
E000
E7C0
FFE0
F870
F038
E038
E038
E038
E038
E038
E038
E038
E038
E038
0000
0000
0200
0700
0300
ENDCHAR
STARTCHAR $1E2A
ENCODING 7722
SWIDTH 800 0
DWIDTH 20 0
BBX 15 23 3 -5
BITMAP
C00E
C00E
C00E
C00E
C00E
C00E
C00E
C00E
FFFE
FFFE
C00E
C00E
C00E
C00E
C00E
C00E
C00E
C00E
0000
0000
1820
1860
0FC0
ENDCHAR
STARTCHAR $1E2B
ENCODING 7723
SWIDTH 680 0
DWIDTH 17 0
BBX 13 24 2 -5
BITMAP
E000
E000
E000
E000
E000
E000
E7C0
FFE0
F870
F038
E038
E038
E038
E038
E038
E038
E038
E038
E038
0000
0000
1060
18C0
0F80
ENDCHAR
STARTCHAR $1E2E
ENCODING 7726
SWIDTH 320 0
DWIDTH 8 0
BBX 7 26 0 0
BITMAP
06
0C
18
00
E6
66
00
00
18
18
18
18
18
18
18
18
18
18
18
18
18
18
18
18
18
18
ENDCHAR
STARTCHAR $1E2F
ENCODING 7727
SWIDTH 280 0
DWIDTH 7 0
BBX 7 21 0 0
BITMAP
0E
18
30
00
C6
C6
00
00
38
38
38
38
38
38
38
38
38
38
38
38
38
ENDCHAR
STARTCHAR $1E36
ENCODING 7734
SWIDTH 600 0
DWIDTH 15 0
BBX 12 23 3 -5
BITMAP
C000
C000
C000
C000
C000
C000
C000
C000
C000
C000
C000
C000
C000
C000
C000
C000
FFF0
FFF0
0000
0000
0000
0600
0600
ENDCHAR
STARTCHAR $1E37
ENCODING 7735
SWIDTH 280 0
DWIDTH 7 0
BBX 3 24 2 -5
BITMAP
E0
E0
E0
E0
E0
E0
E0
E0
E0
E0
E0
E0
E0
E0
E0
E0
E0
E0
E0
00
00
40
E0
C0
ENDCHAR
STARTCHAR $1E3A
ENCODING 7738
SWIDTH 600 0
DWIDTH 15 0
BBX 12 23 3 -5
BITMAP
C000
C000
C000
C000
C000
C000
C000
C000
C000
C000
C000
C000
C000
C000
C000
C000
FFF0
FFF0
0000
0000
0000
3FC0
3FC0
ENDCHAR
STARTCHAR $1E3B
ENCODING 7739
SWIDTH 280 0
DWIDTH 7 0
BBX 9 24 -1 -5
BITMAP
1C00
1C00
1C00
1C00
1C00
1C00
1C00
1C00
1C00
1C00
1C00
1C00
1C00
1C00
1C00
1C00
1C00
1C00
1C00
0000
0000
0000
FF80
FF80
ENDCHAR
STARTCHAR $1E42
ENCODING 7746
SWIDTH 960 0
DWIDTH 24 0
BBX 18 23 3 -5
BITMAP
C000C0
E001C0
E001C0
F003C0
F003C0
F806C0
D80EC0
DC0CC0
CE1CC0
C618C0
C738C0
C330C0
C3E0C0
C1E0C0
C0C0C0
C0C0C0
C000C0
C000C0
000000
000000
000000
00C000
00C000
ENDCHAR
STARTCHAR $1E43
ENCODING 7747
SWIDTH 1040 0
DWIDTH 26 0
BBX 22 18 2 -5
BITMAP
E7C3E0
FFE7F8
F8FE3C
F0781C
E0380C
E0380C
E0300C
E0300C
E0300C
E0300C
E0300C
E0300C
E0300C
000000
000000
000000
003800
003000
ENDCHAR
STARTCHAR $1E44
ENCODING 7748
SWIDTH 800 0
DWIDTH 20 0
BBX 15 23 3 0
BITMAP
0300
0380
0300
0000
0000
C00E
E00E
F00E
F00E
F80E
DC0E
CE0E
CF0E
C70E
C38E
C1CE
C1EE
C0EE
C07E
C03E
C01E
C01E
C00E
ENDCHAR
STARTCHAR $1E45
ENCODING 7749
SWIDTH 680 0
DWIDTH 17 0
BBX 13 19 2 0
BITMAP
0700
0700
0700
0000
0000
0000
E7C0
FFE0
F870
F038
E038
E038
E038
E038
E038
E038
E038
E038
E038
ENDCHAR
STARTCHAR $1E46
ENCODING 7750
SWIDTH 800 0
DWIDTH 20 0
BBX 15 23 3 -5
BITMAP
C00E
E00E
F00E
F00E
F80E
DC0E
CE0E
CF0E
C70E
C38E
C1CE
C1EE
C0EE
C07E
C03E
C01E
C01E
C00E
0000
0000
0000
0300
0300
ENDCHAR
STARTCHAR $1E47
ENCODING 7751
SWIDTH 680 0
DWIDTH 17 0
BBX 13 18 2 -5
BITMAP
E7C0
FFE0
F870
F038
E038
E038
E038
E038
E038
E038
E038
E038
E038
0000
0000
0200
0700
0300
ENDCHAR
STARTCHAR $1E48
ENCODING 7752
SWIDTH 800 0
DWIDTH 20 0
BBX 15 23 3 -5
BITMAP
C00E
E00E
F00E
F00E
F80E
DC0E
CE0E
CF0E
C70E
C38E
C1CE
C1EE
C0EE
C07E
C03E
C01E
C01E
C00E
0000
0000
0000
1FE0
1FE0
ENDCHAR
STARTCHAR $1E49
ENCODING 7753
SWIDTH 680 0
DWIDTH 17 0
BBX 13 18 2 -5
BITMAP
E7C0
FFE0
F870
F038
E038
E038
E038
E038
E038
E038
E038
E038
E038
0000
0000
0000
3FE0
3FE0
ENDCHAR
STARTCHAR $1E4C
ENCODING 7756
SWIDTH 840 0
DWIDTH 21 0
BBX 19 26 1 0
BITMAP
003800
007000
00C000
000000
03CC00
027800
060000
000000
03F800
0FFE00
1F1F00
380380
7001C0
7001C0
6000E0
E000E0
E000E0
E000E0
E000E0
6000C0
7001C0
7001C0
380380
1F0F00
0FFE00
03F800
ENDCHAR
STARTCHAR $1E4D
ENCODING 7757
SWIDTH 640 0
DWIDTH 16 0
BBX 14 22 1 0
BITMAP
00C0
0180
0300
0000
0E20
1B60
11C0
0000
0000
0FC0
3FF0
7878
7038
E01C
E01C
C01C
E01C
E01C
7038
7870
3FE0
0FC0
ENDCHAR
STARTCHAR $1E4E
ENCODING 7758
SWIDTH 840 0
DWIDTH 21 0
BBX 19 25 1 0
BITMAP
031800
031800
000000
03CC00
027800
060000
000000
03F800
0FFE00
1F1F00
380380
7001C0
7001C0
6000E0
E000E0
E000E0
E000E0
E000E0
6000C0
7001C0
7001C0
380380
1F0F00
0FFE00
03F800
ENDCHAR
STARTCHAR $1E4F
ENCODING 7759
SWIDTH 640 0
DWIDTH 16 0
BBX 14 22 1 0
BITMAP
0CC0
1CC0
0000
0000
0E20
1B60
11C0
0000
0000
0FC0
3FF0
7878
7038
E01C
E01C
C01C
E01C
E01C
7038
7870
3FE0
0FC0
ENDCHAR
STARTCHAR $1E50
ENCODING 7760
SWIDTH 840 0
DWIDTH 21 0
BBX 19 26 1 0
BITMAP
038000
01C000
006000
000000
000000
07FC00
000000
000000
03F800
0FFE00
1F1F00
380380
7001C0
7001C0
6000E0
E000E0
E000E0
E000E0
E000E0
6000C0
7001C0
7001C0
380380
1F0F00
0FFE00
03F800
ENDCHAR
STARTCHAR $1E51
ENCODING 7761
SWIDTH 640 0
DWIDTH 16 0
BBX 14 21 1 0
BITMAP
0C00
0600
0300
0000
1FE0
0000
0000
0000
0FC0
3FF0
7878
7038
E01C
E01C
C01C
E01C
E01C
7038
7870
3FE0
0FC0
ENDCHAR
STARTCHAR $1E52
ENCODING 7762
SWIDTH 840 0
DWIDTH 21 0
BBX 19 26 1 0
BITMAP
003800
007000
00C000
000000
000000
07FC00
000000
000000
03F800
0FFE00
1F1F00
380380
7001C0
7001C0
6000E0
E000E0
E000E0
E000E0
E000E0
6000C0
7001C0
7001C0
380380
1F0F00
0FFE00
03F800
ENDCHAR
STARTCHAR $1E53
ENCODING 7763
SWIDTH 640 0
DWIDTH 16 0
BBX 14 21 1 0
BITMAP
00C0
0180
0300
0000
1FE0
0000
0000
0000
0FC0
3FF0
7878
7038
E01C
E01C
C01C
E01C
E01C
7038
7870
3FE0
0FC0
ENDCHAR
STARTCHAR $1E5A
ENCODING 7770
SWIDTH 720 0
DWIDTH 18 0
BBX 14 23 3 -5
BITMAP
FFC0
FFF0
C078
C038
C01C
C01C
C01C
C01C
C018
C078
FFF0
FFC0
C0C0
C0E0
C070
C030
C038
C01C
0000
0000
0000
0700
0600
ENDCHAR
STARTCHAR $1E5B
ENCODING 7771
SWIDTH 400 0
DWIDTH 10 0
BBX 7 18 2 -5
BITMAP
E6
FE
FC
F0
E0
E0
E0
E0
E0
E0
E0
E0
E0
00
00
40
E0
C0
ENDCHAR
STARTCHAR $1E5E
ENCODING 7774
SWIDTH 720 0
DWIDTH 18 0
BBX 14 23 3 -5
BITMAP
FFC0
FFF0
C078
C038
C01C
C01C
C01C
C01C
C018
C078
FFF0
FFC0
C0C0
C0E0
C070
C030
C038
C01C
0000
0000
0000
3FC0
3FC0
ENDCHAR
STARTCHAR $1E5F
ENCODING 7775
SWIDTH 400 0
DWIDTH 10 0
BBX 10 18 -1 -5
BITMAP
1CC0
1FC0
1F80
1E00
1C00
1C00
1C00
1C00
1C00
1C00
1C00
1C00
1C00
0000
0000
0000
FF80
FF80
ENDCHAR
STARTCHAR $1E60
ENCODING 7776
SWIDTH 640 0
DWIDTH 16 0
BBX 13 23 1 0
BITMAP
0300
0380
0300
0000
0000
0FC0
3FF8
7830
6000
6000
E000
7000
7C00
3F80
0FF0
00F8
0038
0018
0018
4018
F078
7FF0
1FC0
ENDCHAR
STARTCHAR $1E61
ENCODING 7777
SWIDTH 520 0
DWIDTH 13 0
BBX 11 19 1 0
BITMAP
0C00
0E00
0C00
0000
0000
0000
1F80
7FC0
E0C0
C000
E000
F000
7F80
1FC0
00E0
00E0
C0E0
FFC0
3F00
ENDCHAR
STARTCHAR $1E62
ENCODING 7778
SWIDTH 640 0
DWIDTH 16 0
BBX 13 23 1 -5
BITMAP
0FC0
3FF8
7830
6000
6000
E000
7000
7C00
3F80
0FF0
00F8
0038
0018
0018
4018
F078
7FF0
1FC0
0000
0000
0000
0300
0300
ENDCHAR
STARTCHAR $1E63
ENCODING 7779
SWIDTH 520 0
DWIDTH 13 0
BBX 11 18 1 -5
BITMAP
1F80
7FC0
E0C0
C000
E000
F000
7F80
1FC0
00E0
00E0
C0E0
FFC0
3F00
0000
0000
0000
0C00
0C00
ENDCHAR
STARTCHAR $1E64
ENCODING 7780
SWIDTH 640 0
DWIDTH 16 0
BBX 13 25 1 1
BITMAP
0300
0300
0000
00C0
0180
0300
0000
0FC0
3FF8
7830
6000
6000
E000
7000
7C00
3F80
0FF0
00F8
0038
0018
0018
4018
F078
7FF0
1FC0
ENDCHAR
STARTCHAR $1E65
ENCODING 7781
SWIDTH 520 0
DWIDTH 13 0
BBX 11 21 1 1
BITMAP
0C00
0C00
0000
0380
0600
0C00
0000
0000
1F80
7FC0
E0C0
C000
E000
F000
7F80
1FC0
00E0
00E0
C0E0
FFC0
3F00
ENDCHAR
STARTCHAR $1E66
ENCODING 7782
SWIDTH 640 0
DWIDTH 16 0
BBX 13 25 1 0
BITMAP
0300
0300
0000
0000
1CE0
0780
0000
0FC0
3FF8
7830
6000
6000
E000
7000
7C00
3F80
0FF0
00F8
0038
0018
0018
4018
F078
7FF0
1FC0
ENDCHAR
STARTCHAR $1E67
ENCODING 7783
SWIDTH 520 0
DWIDTH 13 0
BBX 11 21 1 1
BITMAP
0C00
0C00
0000
7180
1F00
0C00
0000
0000
1F80
7FC0
E0C0
C000
E000
F000
7F80
1FC0
00E0
00E0
C0E0
FFC0
3F00
ENDCHAR
STARTCHAR $1E68
ENCODING 7784
SWIDTH 640 0
DWIDTH 16 0
BBX 13 28 1 -5
BITMAP
0300
0380
0300
0000
0000
0FC0
3FF8
7830
6000
6000
E000
7000
7C00
3F80
0FF0
00F8
0038
0018
0018
4018
F078
7FF0
1FC0
0000
0000
0000
0300
0300
ENDCHAR
STARTCHAR $1E69
ENCODING 7785
SWIDTH 520 0
DWIDTH 13 0
BBX 11 24 1 -5
BITMAP
0C00
0E00
0C00
0000
0000
0000
1F80
7FC0
E0C0
C000
E000
F000
7F80
1FC0
00E0
00E0
C0E0
FFC0
3F00
0000
0000
0000
0C00
0C00
ENDCHAR
STARTCHAR $1E6C
ENCODING 7788
SWIDTH 600 0
DWIDTH 15 0
BBX 15 23 0 -5
BITMAP
FFFE
FFFE
0380
0380
0380
0380
0380
0380
0380
0380
0380
0380
0380
0380
0380
0380
0380
0380
0000
0000
0000
0380
0300
ENDCHAR
STARTCHAR $1E6D
ENCODING 7789
SWIDTH 400 0
DWIDTH 10 0
BBX 9 21 0 -5
BITMAP
1800
1800
1800
FF80
FF80
1800
1800
1800
1800
1800
1800
1800
1800
1C00
1F80
0F80
0000
0000
0000
0700
0600
ENDCHAR
STARTCHAR $1E6E
ENCODING 7790
SWIDTH 600 0
DWIDTH 15 0
BBX 15 23 0 -5
BITMAP
FFFE
FFFE
0380
0380
0380
0380
0380
0380
0380
0380
0380
0380
0380
0380
0380
0380
0380
0380
0000
0000
0000
1FE0
1FE0
ENDCHAR
STARTCHAR $1E6F
ENCODING 7791
SWIDTH 400 0
DWIDTH 10 0
BBX 10 20 0 -4
BITMAP
1800
1800
1800
FF80
FF80
1800
1800
1800
1800
1800
1800
1800
1800
1C00
1F80
0F80
0000
0000
3FC0
3FC0
ENDCHAR
STARTCHAR $1E78
ENCODING 7800
SWIDTH 800 0
DWIDTH 20 0
BBX 15 26 2 0
BITMAP
0060
00C0
0180
0000
0F10
09E0
0000
0000
E006
E006
E006
E006
E006
E006
E006
E006
E006
E006
E006
6006
6006
700E
701C
3C3C
1FF8
07E0
ENDCHAR
STARTCHAR $1E79
ENCODING 7801
SWIDTH 680 0
DWIDTH 17 0
BBX 13 22 2 0
BITMAP
01C0
0380
0600
0000
1C60
37C0
31C0
0000
0000
E038
E038
E038
E038
E038
E038
E038
E038
E038
E078
70F8
3FF8
1F38
ENDCHAR
STARTCHAR $1E7A
ENCODING 7802
SWIDTH 800 0
DWIDTH 20 0
BBX 15 26 2 0
BITMAP
0660
0E60
0000
0000
0000
0FF0
0000
0000
E006
E006
E006
E006
E006
E006
E006
E006
E006
E006
E006
6006
6006
700E
701C
3C3C
1FF8
07E0
ENDCHAR
STARTCHAR $1E7B
ENCODING 7803
SWIDTH 680 0
DWIDTH 17 0
BBX 13 21 2 0
BITMAP
18C0
18C0
0000
0000
3FC0
0000
0000
0000
E038
E038
E038
E038
E038
E038
E038
E038
E038
E078
70F8
3FF8
1F38
ENDCHAR
STARTCHAR $1E80
ENCODING 7808
SWIDTH 1120 0
DWIDTH 28 0
BBX 26 23 1 0
BITMAP
00700000
00380000
000C0000
00000000
00000000
E00C00C0
E00E01C0
601E01C0
601E0180
701F0180
30330380
30330300
38338300
18618700
18618600
1C61C600
0CC0CE00
0CC0CC00
0EC0EC00
0F807C00
07807800
07807800
07003800
ENDCHAR
STARTCHAR $1E81
ENCODING 7809
SWIDTH 880 0
DWIDTH 22 0
BBX 22 18 0 0
BITMAP
01C000
006000
003000
000800
000000
E0300C
60380C
607818
707C18
306C38
30CC30
18C630
19C660
1D8760
0D8360
0F03C0
0F03C0
0701C0
ENDCHAR
STARTCHAR $1E82
ENCODING 7810
SWIDTH 1120 0
DWIDTH 28 0
BBX 26 23 1 0
BITMAP
00038000
00070000
000C0000
00000000
00000000
E00C00C0
E00E01C0
601E01C0
601E0180
701F0180
30330380
30330300
38338300
18618700
18618600
1C61C600
0CC0CE00
0CC0CC00
0EC0EC00
0F807C00
07807800
07807800
07003800
ENDCHAR
STARTCHAR $1E83
ENCODING 7811
SWIDTH 880 0
DWIDTH 22 0
BBX 22 18 0 0
BITMAP
000E00
001C00
003800
000000
000000
E0300C
60380C
607818
707C18
306C38
30CC30
18C630
19C660
1D8760
0D8360
0F03C0
0F03C0
0701C0
ENDCHAR
STARTCHAR $1E84
ENCODING 7812
SWIDTH 1120 0
DWIDTH 28 0
BBX 26 23 1 0
BITMAP
00010000
00338000
00330000
00000000
00000000
E00C00C0
E00E01C0
601E01C0
601E0180
701F0180
30330380
30330300
38338300
18618700
18618600
1C61C600
0CC0CE00
0CC0CC00
0EC0EC00
0F807C00
07807800
07807800
07003800
ENDCHAR
STARTCHAR $1E85
ENCODING 7813
SWIDTH 880 0
DWIDTH 22 0
BBX 22 18 0 0
BITMAP
00C600
00CE00
000400
000000
000000
E0300C
60380C
607818
707C18
306C38
30CC30
18C630
19C660
1D8760
0D8360
0F03C0
0F03C0
0701C0
ENDCHAR
STARTCHAR $1E8E
ENCODING 7822
SWIDTH 640 0
DWIDTH 16 0
BBX 16 23 0 0
BITMAP
0180
01C0
0180
0000
0000
E007
6006
700E
380C
181C
1C18
0C30
0E70
0760
03E0
03C0
0180
0180
0180
0180
0180
0180
0180
ENDCHAR
STARTCHAR $1E8F
ENCODING 7823
SWIDTH 560 0
DWIDTH 14 0
BBX 14 24 0 -5
BITMAP
0300
0700
0300
0000
0000
0000
E01C
6018
7018
7030
3030
3870
1860
1CE0
0CC0
0FC0
0780
0780
0300
0300
0700
8E00
FC00
7800
ENDCHAR
STARTCHAR $1E92
ENCODING 7826
SWIDTH 640 0
DWIDTH 16 0
BBX 15 23 1 -5
BITMAP
FFFC
FFFC
001C
0038
0070
00E0
00E0
01C0
0380
0700
0700
0E00
1C00
3800
7000
7000
FFFE
FFFE
0000
0000
0100
0380
0180
ENDCHAR
STARTCHAR $1E93
ENCODING 7827
SWIDTH 520 0
DWIDTH 13 0
BBX 11 18 1 -5
BITMAP
FFE0
FFE0
01C0
0180
0300
0700
0E00
1C00
3800
3000
7000
FFE0
FFE0
0000
0000
0000
0E00
0600
ENDCHAR
STARTCHAR $1E97
ENCODING 7831
SWIDTH 400 0
DWIDTH 10 0
BBX 9 21 0 0
BITMAP
6600
E600
4000
0000
0000
1800
1800
1800
FF80
FF80
1800
1800
1800
1800
1800
1800
1800
1800
1C00
1F80
0F80
ENDCHAR
STARTCHAR $1E9E
ENCODING 7838
SWIDTH 760 0
DWIDTH 19 0
BBX 16 18 2 0
BITMAP
07F0
1FFC
3C1C
701C
7038
6070
60E0
E1F8
E1FC
E00E
E007
E007
E007
E007
E006
E20E
E3FC
E1F8
ENDCHAR
STARTCHAR $1EA0
ENCODING 7840
SWIDTH 720 0
DWIDTH 18 0
BBX 18 23 0 -5
BITMAP
00E000
01E000
01E000
03B000
033000
073800
061800
061C00
0C0C00
0C0E00
1C0600
1FFE00
3FFF00
300300
300380
700180
6001C0
E001C0
000000
000000
000000
00C000
00C000
ENDCHAR
STARTCHAR $1EA1
ENCODING 7841
SWIDTH 600 0
DWIDTH 15 0
BBX 12 18 1 -5
BITMAP
1F80
7FE0
60E0
0070
0070
0FF0
7FF0
6070
E070
E070
E0F0
7FF0
1F70
0000
0000
0000
0600
0600
ENDCHAR
STARTCHAR $1EA2
ENCODING 7842
SWIDTH 720 0
DWIDTH 18 0
BBX 18 24 0 0
BITMAP
01E000
003000
003000
006000
004000
000000
00E000
01E000
01E000
03B000
033000
073800
061800
061C00
0C0C00
0C0E00
1C0600
1FFE00
3FFF00
300300
300380
700180
6001C0
E001C0
ENDCHAR
STARTCHAR $1EA3
ENCODING 7843
SWIDTH 600 0
DWIDTH 15 0
BBX 12 20 1 0
BITMAP
0F00
0B80
0180
0180
0300
0000
0000
1F80
7FE0
60E0
0070
0070
0FF0
7FF0
6070
E070
E070
E0F0
7FF0
1F70
ENDCHAR
STARTCHAR $1EA4
ENCODING 7844
SWIDTH 720 0
DWIDTH 18 0
BBX 18 25 0 0
BITMAP
000380
000700
000C00
01E000
033000
061C00
000000
00E000
01E000
01E000
03B000
033000
073800
061800
061C00
0C0C00
0C0E00
1C0600
1FFE00
3FFF00
300300
300380
700180
6001C0
E001C0
ENDCHAR
STARTCHAR $1EA5
ENCODING 7845
SWIDTH 600 0
DWIDTH 15 0
BBX 14 21 1 0
BITMAP
001C
0038
0070
0F00
1D80
3060
0000
0000
1F80
7FE0
60E0
0070
0070
0FF0
7FF0
6070
E070
E070
E0F0
7FF0
1F70
ENDCHAR
STARTCHAR $1EA6
ENCODING 7846
SWIDTH 720 0
DWIDTH 18 0
BBX 18 25 0 0
BITMAP
003000
001C00
000E00
01E000
033000
061C00
000000
00E000
01E000
01E000
03B000
033000
073800
061800
061C00
0C0C00
0C0E00
1C0600
1FFE00
3FFF00
300300
300380
700180
6001C0
E001C0
ENDCHAR
STARTCHAR $1EA7
ENCODING 7847
SWIDTH 600 0
DWIDTH 15 0
BBX 12 21 1 0
BITMAP
01C0
00E0
0030
0F00
1D80
3060
0000
0000
1F80
7FE0
60E0
0070
0070
0FF0
7FF0
6070
E070
E070
E0F0
7FF0
1F70
ENDCHAR
STARTCHAR $1EA8
ENCODING 7848
SWIDTH 720 0
DWIDTH 18 0
BBX 18 25 0 0
BITMAP
001C00
000400
000400
01E000
033000
061C00
000000
00E000
01E000
01E000
03B000
033000
073800
061800
061C00
0C0C00
0C0E00
1C0600
1FFE00
3FFF00
300300
300380
700180
6001C0
E001C0
ENDCHAR
STARTCHAR $1EA9
ENCODING 7849
SWIDTH 600 0
DWIDTH 15 0
BBX 12 21 1 0
BITMAP
00E0
0020
0020
0F00
1D80
3060
0000
0000
1F80
7FE0
60E0
0070
0070
0FF0
7FF0
6070
E070
E070
E0F0
7FF0
1F70
ENDCHAR
STARTCHAR $1EAA
ENCODING 7850
SWIDTH 720 0
DWIDTH 18 0
BBX 18 25 0 0
BITMAP
03C800
067800
000000
01E000
033000
061C00
000000
00E000
01E000
01E000
03B000
033000
073800
061800
061C00
0C0C00
0C0E00
1C0600
1FFE00
3FFF00
300300
300380
700180
6001C0
E001C0
ENDCHAR
STARTCHAR $1EAB
ENCODING 7851
SWIDTH 600 0
DWIDTH 15 0
BBX 12 22 1 0
BITMAP
0840
1EC0
33C0
0000
0F00
1D80
3060
0000
0000
1F80
7FE0
60E0
0070
0070
0FF0
7FF0
6070
E070
E070
E0F0
7FF0
1F70
ENDCHAR
STARTCHAR $1EAC
ENCODING 7852
SWIDTH 720 0
DWIDTH 18 0
BBX 18 28 0 -5
BITMAP
01E000
03F000
071800
000000
000000
00E000
01E000
01E000
03B000
033000
073800
061800
061C00
0C0C00
0C0E00
1C0600
1FFE00
3FFF00
300300
300380
700180
6001C0
E001C0
000000
000000
000000
00C000
00C000
ENDCHAR
STARTCHAR $1EAD
ENCODING 7853
SWIDTH 600 0
DWIDTH 15 0
BBX 12 23 1 -5
BITMAP
0700
0F80
18C0
2000
0000
1F80
7FE0
60E0
0070
0070
0FF0
7FF0
6070
E070
E070
E0F0
7FF0
1F70
0000
0000
0000
0600
0600
ENDCHAR
STARTCHAR $1EAE
ENCODING 7854
SWIDTH 720 0
DWIDTH 18 0
BBX 18 25 0 0
BITMAP
003000
006000
00C000
060800
033800
01F000
000000
00E000
01E000
01E000
03B000
033000
073800
061800
061C00
0C0C00
0C0E00
1C0600
1FFE00
3FFF00
300300
300380
700180
6001C0
E001C0
ENDCHAR
STARTCHAR $1EAF
ENCODING 7855
SWIDTH 600 0
DWIDTH 15 0
BBX 12 22 1 0
BITMAP
01C0
0300
0600
0000
30C0
1FC0
0700
0000
0000
1F80
7FE0
60E0
0070
0070
0FF0
7FF0
6070
E070
E070
E0F0
7FF0
1F70
ENDCHAR
STARTCHAR $1EB0
ENCODING 7856
SWIDTH 720 0
DWIDTH 18 0
BBX 18 25 0 0
BITMAP
030000
018000
00E000
060800
033800
01F000
000000
00E000
01E000
01E000
03B000
033000
073800
061800
061C00
0C0C00
0C0E00
1C0600
1FFE00
3FFF00
300300
300380
700180
6001C0
E001C0
ENDCHAR
STARTCHAR $1EB1
ENCODING 7857
SWIDTH 600 0
DWIDTH 15 0
BBX 12 22 1 0
BITMAP
1800
0C00
0600
0000
30C0
1FC0
0700
0000
0000
1F80
7FE0
60E0
0070
0070
0FF0
7FF0
6070
E070
E070
E0F0
7FF0
1F70
ENDCHAR
STARTCHAR $1EB2
ENCODING 7858
SWIDTH 720 0
DWIDTH 18 0
BBX 18 26 0 0
BITMAP
01E000
002000
002000
006000
060800
033800
01F000
000000
00E000
01E000
01E000
03B000
033000
073800
061800
061C00
0C0C00
0C0E00
1C0600
1FFE00
3FFF00
300300
300380
700180
6001C0
E001C0
ENDCHAR
STARTCHAR $1EB3
ENCODING 7859
SWIDTH 600 0
DWIDTH 15 0
BBX 12 22 1 0
BITMAP
0700
0100
0100
0300
30C0
1FC0
0700
0000
0000
1F80
7FE0
60E0
0070
0070
0FF0
7FF0
6070
E070
E070
E0F0
7FF0
1F70
ENDCHAR
STARTCHAR $1EB4
ENCODING 7860
SWIDTH 720 0
DWIDTH 18 0
BBX 18 25 0 0
BITMAP
03C800
067800
000000
060800
033800
01F000
000000
00E000
01E000
01E000
03B000
033000
073800
061800
061C00
0C0C00
0C0E00
1C0600
1FFE00
3FFF00
300300
300380
700180
6001C0
E001C0
ENDCHAR
STARTCHAR $1EB5
ENCODING 7861
SWIDTH 600 0
DWIDTH 15 0
BBX 12 21 1 0
BITMAP
1E40
33C0
0000
30C0
1FC0
0700
0000
0000
1F80
7FE0
60E0
0070
0070
0FF0
7FF0
6070
E070
E070
E0F0
7FF0
1F70
ENDCHAR
STARTCHAR $1EB6
ENCODING 7862
SWIDTH 720 0
DWIDTH 18 0
BBX 18 27 0 -5
BITMAP
061800
03B800
01E000
000000
00E000
01E000
01E000
03B000
033000
073800
061800
061C00
0C0C00
0C0E00
1C0600
1FFE00
3FFF00
300300
300380
700180
6001C0
E001C0
000000
000000
000000
00C000
00C000
ENDCHAR
STARTCHAR $1EB7
ENCODING 7863
SWIDTH 600 0
DWIDTH 15 0
BBX 12 23 1 -5
BITMAP
3040
18C0
1F80
0000
0000
1F80
7FE0
60E0
0070
0070
0FF0
7FF0
6070
E070
E070
E0F0
7FF0
1F70
0000
0000
0000
0600
0600
ENDCHAR
STARTCHAR $1EB8
ENCODING 7864
SWIDTH 680 0
DWIDTH 17 0
BBX 12 23 3 -5
BITMAP
FFF0
FFF0
C000
C000
C000
C000
C000
C000
FFE0
FFE0
C000
C000
C000
C000
C000
C000
FFF0
FFF0
0000
0000
0000
0600
0600
ENDCHAR
STARTCHAR $1EB9
ENCODING 7865
SWIDTH 600 0
DWIDTH 15 0
BBX 13 18 1 -5
BITMAP
0F80
3FE0
7070
6038
E018
FFF8
FFF8
E000
E000
7000
7870
3FF0
0FC0
0000
0000
0000
0700
0300
ENDCHAR
STARTCHAR $1EBA
ENCODING 7866
SWIDTH 680 0
DWIDTH 17 0
BBX 12 24 3 0
BITMAP
0F00
0100
0100
0300
0200
0000
FFF0
FFF0
C000
C000
C000
C000
C000
C000
FFE0
FFE0
C000
C000
C000
C000
C000
C000
FFF0
FFF0
ENDCHAR
STARTCHAR $1EBB
ENCODING 7867
SWIDTH 600 0
DWIDTH 15 0
BBX 13 20 1 0
BITMAP
0700
0580
0080
0180
0300
0000
0000
0F80
3FE0
7070
6038
E018
FFF8
FFF8
E000
E000
7000
7870
3FF0
0FC0
ENDCHAR
STARTCHAR $1EBC
ENCODING 7868
SWIDTH 680 0
DWIDTH 17 0
BBX 12 22 3 0
BITMAP
3C40
27C0
2380
0000
FFF0
FFF0
C000
C000
C000
C000
C000
C000
FFE0
FFE0
C000
C000
C000
C000
C000
C000
FFF0
FFF0
ENDCHAR
STARTCHAR $1EBD
ENCODING 7869
SWIDTH 600 0
DWIDTH 15 0
BBX 13 18 1 0
BITMAP
0C00
1E60
11C0
0000
0000
0F80
3FE0
7070
6038
E018
FFF8
FFF8
E000
E000
7000
7870
3FF0
0FC0
ENDCHAR
STARTCHAR $1EBE
ENCODING 7870
SWIDTH 680 0
DWIDTH 17 0
BBX 14 25 3 0
BITMAP
001C
0030
0060
0F00
1B80
70C0
0000
FFF0
FFF0
C000
C000
C000
C000
C000
C000
FFE0
FFE0
C000
C000
C000
C000
C000
C000
FFF0
FFF0
ENDCHAR
STARTCHAR $1EBF
ENCODING 7871
SWIDTH 600 0
DWIDTH 15 0
BBX 14 21 1 0
BITMAP
000C
0018
0030
0700
0DC0
3060
0000
0000
0F80
3FE0
7070
6038
E018
FFF8
FFF8
E000
E000
7000
7870
3FF0
0FC0
ENDCHAR
STARTCHAR $1EC0
ENCODING 7872
SWIDTH 680 0
DWIDTH 17 0
BBX 12 25 3 0
BITMAP
0380
00C0
0060
0F00
1B80
70C0
0000
FFF0
FFF0
C000
C000
C000
C000
C000
C000
FFE0
FFE0
C000
C000
C000
C000
C000
C000
FFF0
FFF0
ENDCHAR
STARTCHAR $1EC1
ENCODING 7873
SWIDTH 600 0
DWIDTH 15 0
BBX 13 21 1 0
BITMAP
01C0
0060
0030
0700
0DC0
3060
0000
0000
0F80
3FE0
7070
6038
E018
FFF8
FFF8
E000
E000
7000
7870
3FF0
0FC0
ENDCHAR
STARTCHAR $1EC2
ENCODING 7874
SWIDTH 680 0
DWIDTH 17 0
BBX 12 25 3 0
BITMAP
01E0
0020
0020
0F40
1B80
70C0
0000
FFF0
FFF0
C000
C000
C000
C000
C000
C000
FFE0
FFE0
C000
C000
C000
C000
C000
C000
FFF0
FFF0
ENDCHAR
STARTCHAR $1EC3
ENCODING 7875
SWIDTH 600 0
DWIDTH 15 0
BBX 13 21 1 0
BITMAP
00E0
0010
0030
0720
0DC0
3060
0000
0000
0F80
3FE0
7070
6038
E018
FFF8
FFF8
E000
E000
7000
7870
3FF0
0FC0
ENDCHAR
STARTCHAR $1EC4
ENCODING 7876
SWIDTH 680 0
DWIDTH 17 0
BBX 12 25 3 0
BITMAP
3CC0
2780
0000
0F00
1B80
70C0
0000
FFF0
FFF0
C000
C000
C000
C000
C000
C000
FFE0
FFE0
C000
C000
C000
C000
C000
C000
FFF0
FFF0
ENDCHAR
STARTCHAR $1EC5
ENCODING 7877
SWIDTH 600 0
DWIDTH 15 0
BBX 13 22 1 0
BITMAP
0460
1F60
13C0
0000
0700
0DC0
3060
0000
0000
0F80
3FE0
7070
6038
E018
FFF8
FFF8
E000
E000
7000
7870
3FF0
0FC0
ENDCHAR
STARTCHAR $1EC6
ENCODING 7878
SWIDTH 680 0
DWIDTH 17 0
BBX 12 28 3 -5
BITMAP
0E00
1F80
31C0
0000
0000
FFF0
FFF0
C000
C000
C000
C000
C000
C000
FFE0
FFE0
C000
C000
C000
C000
C000
C000
FFF0
FFF0
0000
0000
0000
0600
0600
ENDCHAR
STARTCHAR $1EC7
ENCODING 7879
SWIDTH 600 0
DWIDTH 15 0
BBX 13 23 1 -5
BITMAP
0700
0D80
18C0
0020
0000
0F80
3FE0
7070
6038
E018
FFF8
FFF8
E000
E000
7000
7870
3FF0
0FC0
0000
0000
0000
0700
0300
ENDCHAR
STARTCHAR $1EC8
ENCODING 7880
SWIDTH 320 0
DWIDTH 8 0
BBX 4 24 2 0
BITMAP
F0
10
10
30
20
00
60
60
60
60
60
60
60
60
60
60
60
60
60
60
60
60
60
60
ENDCHAR
STARTCHAR $1EC9
ENCODING 7881
SWIDTH 280 0
DWIDTH 7 0
BBX 5 20 1 0
BITMAP
F0
58
18
18
30
00
00
70
70
70
70
70
70
70
70
70
70
70
70
70
ENDCHAR
STARTCHAR $1ECA
ENCODING 7882
SWIDTH 320 0
DWIDTH 8 0
BBX 2 23 3 -5
BITMAP
C0
C0
C0
C0
C0
C0
C0
C0
C0
C0
C0
C0
C0
C0
C0
C0
C0
C0
00
00
00
C0
C0
ENDCHAR
STARTCHAR $1ECB
ENCODING 7883
SWIDTH 280 0
DWIDTH 7 0
BBX 3 24 2 -5
BITMAP
E0
E0
E0
00
00
00
E0
E0
E0
E0
E0
E0
E0
E0
E0
E0
E0
E0
E0
00
00
40
E0
C0
ENDCHAR
STARTCHAR $1ECC
ENCODING 7884
SWIDTH 840 0
DWIDTH 21 0
BBX 19 23 1 -5
BITMAP
03F800
0FFE00
1F1F00
380380
7001C0
7001C0
6000E0
E000E0
E000E0
E000E0
E000E0
6000C0
7001C0
7001C0
380380
1F0F00
0FFE00
03F800
000000
000000
004000
00E000
00E000
ENDCHAR
STARTCHAR $1ECD
ENCODING 7885
SWIDTH 640 0
DWIDTH 16 0
BBX 14 18 1 -5
BITMAP
0FC0
3FF0
7878
7038
E01C
E01C
C01C
E01C
E01C
7038
7870
3FE0
0FC0
0000
0000
0000
0300
0300
ENDCHAR
STARTCHAR $1ECE
ENCODING 7886
SWIDTH 840 0
DWIDTH 21 0
BBX 19 24 1 0
BITMAP
01E000
00B000
001000
003000
002000
000000
03F800
0FFE00
1F1F00
380380
7001C0
7001C0
6000E0
E000E0
E000E0
E000E0
E000E0
6000C0
7001C0
7001C0
380380
1F0F00
0FFE00
03F800
ENDCHAR
STARTCHAR $1ECF
ENCODING 7887
SWIDTH 640 0
DWIDTH 16 0
BBX 14 20 1 0
BITMAP
0780
0580
0080
0080
0180
0000
0000
0FC0
3FF0
7878
7038
E01C
E01C
C01C
E01C
E01C
7038
7870
3FE0
0FC0
ENDCHAR
STARTCHAR $1ED0
ENCODING 7888
SWIDTH 840 0
DWIDTH 21 0
BBX 19 24 1 0
BITMAP
000380
000700
000C00
01F000
031800
000000
03F800
0FFE00
1F1F00
380380
7001C0
7001C0
6000E0
E000E0
E000E0
E000E0
E000E0
6000C0
7001C0
7001C0
380380
1F0F00
0FFE00
03F800
ENDCHAR
STARTCHAR $1ED1
ENCODING 7889
SWIDTH 640 0
DWIDTH 16 0
BBX 15 21 1 0
BITMAP
000E
001C
0030
0780
0CC0
3860
0000
0000
0FC0
3FF0
7878
7038
E01C
E01C
C01C
E01C
E01C
7038
7870
3FE0
0FC0
ENDCHAR
STARTCHAR $1ED2
ENCODING 7890
SWIDTH 840 0
DWIDTH 21 0
BBX 19 24 1 0
BITMAP
003800
000C00
000600
01F000
031800
000000
03F800
0FFE00
1F1F00
380380
7001C0
7001C0
6000E0
E000E0
E000E0
E000E0
E000E0
6000C0
7001C0
7001C0
380380
1F0F00
0FFE00
03F800
ENDCHAR
STARTCHAR $1ED3
ENCODING 7891
SWIDTH 640 0
DWIDTH 16 0
BBX 14 21 1 0
BITMAP
00C0
0060
0030
0780
0CC0
3860
0000
0000
0FC0
3FF0
7878
7038
E01C
E01C
C01C
E01C
E01C
7038
7870
3FE0
0FC0
ENDCHAR
STARTCHAR $1ED4
ENCODING 7892
SWIDTH 840 0
DWIDTH 21 0
BBX 19 25 1 0
BITMAP
001C00
000600
000600
000400
01F000
031800
000000
03F800
0FFE00
1F1F00
380380
7001C0
7001C0
6000E0
E000E0
E000E0
E000E0
E000E0
6000C0
7001C0
7001C0
380380
1F0F00
0FFE00
03F800
ENDCHAR
STARTCHAR $1ED5
ENCODING 7893
SWIDTH 640 0
DWIDTH 16 0
BBX 14 21 1 0
BITMAP
00F0
0010
0010
07A0
0CC0
3860
0000
0000
0FC0
3FF0
7878
7038
E01C
E01C
C01C
E01C
E01C
7038
7870
3FE0
0FC0
ENDCHAR
STARTCHAR $1ED6
ENCODING 7894
SWIDTH 840 0
DWIDTH 21 0
BBX 19 25 1 0
BITMAP
03CC00
027800
000000
000000
01F000
031800
000000
03F800
0FFE00
1F1F00
380380
7001C0
7001C0
6000E0
E000E0
E000E0
E000E0
E000E0
6000C0
7001C0
7001C0
380380
1F0F00
0FFE00
03F800
ENDCHAR
STARTCHAR $1ED7
ENCODING 7895
SWIDTH 640 0
DWIDTH 16 0
BBX 14 22 1 0
BITMAP
0420
1F60
11C0
0000
0780
0CC0
3860
0000
0000
0FC0
3FF0
7878
7038
E01C
E01C
C01C
E01C
E01C
7038
7870
3FE0
0FC0
ENDCHAR
STARTCHAR $1ED8
ENCODING 7896
SWIDTH 840 0
DWIDTH 21 0
BBX 19 27 1 -5
BITMAP
00E000
01B000
031800
000000
03F800
0FFE00
1F1F00
380380
7001C0
7001C0
6000E0
E000E0
E000E0
E000E0
E000E0
6000C0
7001C0
7001C0
380380
1F0F00
0FFE00
03F800
000000
000000
004000
00E000
00E000
ENDCHAR
STARTCHAR $1ED9
ENCODING 7897
SWIDTH 640 0
DWIDTH 16 0
BBX 14 23 1 -5
BITMAP
0780
0FC0
1CE0
0000
0000
0FC0
3FF0
7878
7038
E01C
E01C
C01C
E01C
E01C
7038
7870
3FE0
0FC0
0000
0000
0000
0300
0300
ENDCHAR
STARTCHAR $1EDA
ENCODING 7898
SWIDTH 840 0
DWIDTH 21 0
BBX 19 22 1 0
BITMAP
003800
0070C0
00E040
000040
03FFC0
0FFF80
1F1F00
380380
7001C0
7001C0
6000C0
E000E0
E000E0
E000E0
E000E0
6000C0
7001C0
7001C0
3C0380
1F0F00
0FFE00
03F800
ENDCHAR
STARTCHAR $1EDB
ENCODING 7899
SWIDTH 640 0
DWIDTH 16 0
BBX 14 18 1 0
BITMAP
00E0
01C0
0308
000C
0008
0FF8
3FE0
7870
7038
E01C
E01C
C01C
E01C
E01C
7038
7870
3FE0
0FC0
ENDCHAR
STARTCHAR $1EDC
ENCODING 7900
SWIDTH 840 0
DWIDTH 21 0
BBX 19 22 1 0
BITMAP
038000
01C0C0
00E040
000040
03FFC0
0FFF80
1F1F00
380380
7001C0
7001C0
6000C0
E000E0
E000E0
E000E0
E000E0
6000C0
7001C0
7001C0
3C0380
1F0F00
0FFE00
03F800
ENDCHAR
STARTCHAR $1EDD
ENCODING 7901
SWIDTH 640 0
DWIDTH 16 0
BBX 14 18 1 0
BITMAP
1C00
0E00
0308
000C
0008
0FF8
3FE0
7870
7038
E01C
E01C
C01C
E01C
E01C
7038
7870
3FE0
0FC0
ENDCHAR
STARTCHAR $1EDE
ENCODING 7902
SWIDTH 840 0
DWIDTH 21 0
BBX 19 24 1 0
BITMAP
01E000
00B000
001000
003040
002040
0000C0
03FFC0
0FFF80
1F1F00
380380
7001C0
7001C0
6000C0
E000E0
E000E0
E000E0
E000E0
6000C0
7001C0
7001C0
3C0380
1F0F00
0FFE00
03F800
ENDCHAR
STARTCHAR $1EDF
ENCODING 7903
SWIDTH 640 0
DWIDTH 16 0
BBX 14 20 1 0
BITMAP
0780
0580
0080
0088
0188
000C
0008
0FF8
3FE0
7870
7038
E01C
E01C
C01C
E01C
E01C
7038
7870
3FE0
0FC0
ENDCHAR
STARTCHAR $1EE0
ENCODING 7904
SWIDTH 840 0
DWIDTH 21 0
BBX 19 22 1 0
BITMAP
038C00
0278C0
063840
000040
03FFC0
0FFF00
1F1F00
380380
7001C0
7001C0
6000C0
E000E0
E000E0
E000E0
E000E0
6000C0
7001C0
7001C0
3C0380
1F0F00
0FFE00
03F800
ENDCHAR
STARTCHAR $1EE1
ENCODING 7905
SWIDTH 640 0
DWIDTH 16 0
BBX 14 18 1 0
BITMAP
0C00
1F60
11D8
000C
000C
0FF8
3FE0
7870
7038
E01C
E01C
C01C
E01C
E01C
7038
7870
3FE0
0FC0
ENDCHAR
STARTCHAR $1EE2
ENCODING 7906
SWIDTH 840 0
DWIDTH 21 0
BBX 19 27 1 -5
BITMAP
000040
000040
000040
0000C0
03FFC0
0FFF00
1F1F00
380380
7001C0
7001C0
6000E0
E000E0
E000E0
E000E0
E000E0
6000C0
7001C0
7001C0
3C0380
1F0F00
0FFE00
03F800
000000
000000
004000
00E000
00E000
ENDCHAR
STARTCHAR $1EE3
ENCODING 7907
SWIDTH 640 0
DWIDTH 16 0
BBX 14 22 1 -5
BITMAP
0008
0008
000C
0008
0FF8
3FE0
7870
7038
E01C
E01C
C01C
E01C
E01C
7038
7870
3FE0
0FC0
0000
0000
0000
0300
0300
ENDCHAR
STARTCHAR $1EE4
ENCODING 7908
SWIDTH 800 0
DWIDTH 20 0
BBX 15 23 2 -5
BITMAP
E006
E006
E006
E006
E006
E006
E006
E006
E006
E006
E006
6006
6006
700E
701C
3C3C
1FF8
07E0
0000
0000
0000
0180
0180
ENDCHAR
STARTCHAR $1EE5
ENCODING 7909
SWIDTH 680 0
DWIDTH 17 0
BBX 13 18 2 -5
BITMAP
E038
E038
E038
E038
E038
E038
E038
E038
E038
E078
70F8
3FF8
1F38
0000
0000
0200
0700
0600
ENDCHAR
STARTCHAR $1EE6
ENCODING 7910
SWIDTH 800 0
DWIDTH 20 0
BBX 15 24 2 0
BITMAP
03C0
0040
0040
00C0
0080
0000
E006
E006
E006
E006
E006
E006
E006
E006
E006
E006
E006
6006
6006
700E
701C
3C3C
1FF8
07E0
ENDCHAR
STARTCHAR $1EE7
ENCODING 7911
SWIDTH 680 0
DWIDTH 17 0
BBX 13 20 2 0
BITMAP
0F00
0F80
0180
0180
0300
0000
0000
E038
E038
E038
E038
E038
E038
E038
E038
E038
E078
70F8
3FF8
1F38
ENDCHAR
STARTCHAR $1EE8
ENCODING 7912
SWIDTH 800 0
DWIDTH 20 0
BBX 18 23 2 0
BITMAP
007000
00E0C0
0180C0
0000C0
0000C0
E00780
E00700
E00600
E00600
E00600
E00600
E00600
E00600
E00600
E00600
E00600
600600
600600
700E00
701C00
3C3C00
1FF800
07E000
ENDCHAR
STARTCHAR $1EE9
ENCODING 7913
SWIDTH 680 0
DWIDTH 17 0
BBX 15 18 2 0
BITMAP
01C0
0384
0606
0006
0006
E03C
E038
E038
E038
E038
E038
E038
E038
E038
E078
70F8
3FF8
1F38
ENDCHAR
STARTCHAR $1EEA
ENCODING 7914
SWIDTH 800 0
DWIDTH 20 0
BBX 18 23 2 0
BITMAP
0E0000
0700C0
0180C0
0000C0
0000C0
E00780
E00700
E00600
E00600
E00600
E00600
E00600
E00600
E00600
E00600
E00600
600600
600600
700E00
701C00
3C3C00
1FF800
07E000
ENDCHAR
STARTCHAR $1EEB
ENCODING 7915
SWIDTH 680 0
DWIDTH 17 0
BBX 15 18 2 0
BITMAP
3C00
0E04
0706
0006
0006
E03C
E038
E038
E038
E038
E038
E038
E038
E038
E078
70F8
3FF8
1F38
ENDCHAR
STARTCHAR $1EEC
ENCODING 7916
SWIDTH 800 0
DWIDTH 20 0
BBX 18 24 2 0
BITMAP
03C000
004000
004080
00C0C0
0080C0
0000C0
E00780
E00700
E00600
E00600
E00600
E00600
E00600
E00600
E00600
E00600
E00600
600600
600600
700E00
701C00
3C3C00
1FF800
07E000
ENDCHAR
STARTCHAR $1EED
ENCODING 7917
SWIDTH 680 0
DWIDTH 17 0
BBX 15 20 2 0
BITMAP
0F00
0F80
0180
0184
0306
0006
0006
E03C
E038
E038
E038
E038
E038
E038
E038
E038
E078
70F8
3FF8
1F38
ENDCHAR
STARTCHAR $1EEE
ENCODING 7918
SWIDTH 800 0
DWIDTH 20 0
BBX 18 22 2 0
BITMAP
0F1000
09B0C0
08E0C0
0000C0
E00780
E00700
E00600
E00600
E00600
E00600
E00600
E00600
E00600
E00600
E00600
600600
600600
700E00
701C00
3C3C00
1FF800
07E000
ENDCHAR
STARTCHAR $1EEF
ENCODING 7919
SWIDTH 680 0
DWIDTH 17 0
BBX 15 18 2 0
BITMAP
1800
1E40
33C6
0006
0006
E03C
E038
E038
E038
E038
E038
E038
E038
E038
E078
70F8
3FF8
1F38
ENDCHAR
STARTCHAR $1EF0
ENCODING 7920
SWIDTH 800 0
DWIDTH 20 0
BBX 18 27 2 -5
BITMAP
000080
0000C0
0000C0
0000C0
E00780
E00700
E00600
E00600
E00600
E00600
E00600
E00600
E00600
E00600
E00600
600600
600600
700E00
701C00
3C3C00
1FF800
07E000
000000
000000
000000
018000
018000
ENDCHAR
STARTCHAR $1EF1
ENCODING 7921
SWIDTH 680 0
DWIDTH 17 0
BBX 15 22 2 -5
BITMAP
0004
0006
0006
0006
E03C
E038
E038
E038
E038
E038
E038
E038
E038
E078
70F8
3FF8
1F38
0000
0000
0200
0700
0600
ENDCHAR
STARTCHAR $1EF2
ENCODING 7922
SWIDTH 640 0
DWIDTH 16 0
BBX 16 23 0 0
BITMAP
0E00
0700
0180
0000
0000
E007
6006
700E
380C
181C
1C18
0C30
0E70
0760
03E0
03C0
0180
0180
0180
0180
0180
0180
0180
ENDCHAR
STARTCHAR $1EF3
ENCODING 7923
SWIDTH 560 0
DWIDTH 14 0
BBX 14 23 0 -5
BITMAP
1C00
0E00
0300
0000
0000
E01C
6018
7018
7030
3030
3870
1860
1CE0
0CC0
0FC0
0780
0780
0300
0300
0700
8E00
FC00
7800
ENDCHAR
STARTCHAR $1EF4
ENCODING 7924
SWIDTH 640 0
DWIDTH 16 0
BBX 16 23 0 -5
BITMAP
E007
6006
700E
380C
181C
1C18
0C30
0E70
0760
03E0
03C0
0180
0180
0180
0180
0180
0180
0180
0000
0000
0000
0180
0180
ENDCHAR
STARTCHAR $1EF5
ENCODING 7925
SWIDTH 560 0
DWIDTH 14 0
BBX 14 18 0 -5
BITMAP
E01C
6018
7018
7030
3030
3870
1860
1CE0
0CC0
0FC0
0780
0780
0300
0300
0700
8E00
FC70
7860
ENDCHAR
STARTCHAR $1EF6
ENCODING 7926
SWIDTH 640 0
DWIDTH 16 0
BBX 16 24 0 0
BITMAP
03C0
0060
0060
00C0
0080
0000
E007
6006
700E
380C
181C
1C18
0C30
0E70
0760
03E0
03C0
0180
0180
0180
0180
0180
0180
0180
ENDCHAR
STARTCHAR $1EF7
ENCODING 7927
SWIDTH 560 0
DWIDTH 14 0
BBX 14 25 0 -5
BITMAP
0700
0580
0080
0180
0300
0000
0000
E01C
6018
7018
7030
3030
3870
1860
1CE0
0CC0
0FC0
0780
0780
0300
0300
0700
8E00
FC00
7800
ENDCHAR
STARTCHAR $1EF8
ENCODING 7928
SWIDTH 640 0
DWIDTH 16 0
BBX 16 22 0 0
BITMAP
0710
0DF0
0860
0000
E007
6006
700E
380C
181C
1C18
0C30
0E70
0760
03E0
03C0
0180
0180
0180
0180
0180
0180
0180
ENDCHAR
STARTCHAR $1EF9
ENCODING 7929
SWIDTH 560 0
DWIDTH 14 0
BBX 14 23 0 -5
BITMAP
0C00
1E60
13C0
0000
0000
E01C
6018
7018
7030
3030
3870
1860
1CE0
0CC0
0FC0
0780
0780
0300
0300
0700
8E00
FC00
7800
ENDCHAR
STARTCHAR $2010
ENCODING 8208
SWIDTH 400 0
DWIDTH 10 0
BBX 7 2 1 6
BITMAP
FE
FE
ENDCHAR
STARTCHAR $2012
ENCODING 8210
SWIDTH 720 0
DWIDTH 18 0
BBX 15 2 1 8
BITMAP
FFFE
FFFE
ENDCHAR
STARTCHAR $2013
ENCODING 8211
SWIDTH 520 0
DWIDTH 13 0
BBX 12 2 0 6
BITMAP
FFF0
FFF0
ENDCHAR
STARTCHAR $2014
ENCODING 8212
SWIDTH 1000 0
DWIDTH 25 0
BBX 25 2 0 6
BITMAP
FFFFFF80
FFFFFF80
ENDCHAR
STARTCHAR $2015
ENCODING 8213
SWIDTH 1000 0
DWIDTH 25 0
BBX 25 2 0 6
BITMAP
FFFFFF80
FFFFFF80
ENDCHAR
STARTCHAR $2018
ENCODING 8216
SWIDTH 240 0
DWIDTH 6 0
BBX 3 7 1 12
BITMAP
20
60
60
40
E0
E0
60
ENDCHAR
STARTCHAR $2019
ENCODING 8217
SWIDTH 240 0
DWIDTH 6 0
BBX 3 7 1 12
BITMAP
60
E0
E0
60
60
40
C0
ENDCHAR
STARTCHAR $201A
ENCODING 8218
SWIDTH 240 0
DWIDTH 6 0
BBX 3 7 1 -4
BITMAP
60
E0
E0
60
60
40
C0
ENDCHAR
STARTCHAR $201C
ENCODING 8220
SWIDTH 400 0
DWIDTH 10 0
BBX 8 7 1 12
BITMAP
23
63
62
46
E7
E7
67
ENDCHAR
STARTCHAR $201D
ENCODING 8221
SWIDTH 400 0
DWIDTH 10 0
BBX 8 7 1 12
BITMAP
67
E7
E7
63
62
46
C6
ENDCHAR
STARTCHAR $201E
ENCODING 8222
SWIDTH 400 0
DWIDTH 10 0
BBX 8 7 1 -4
BITMAP
67
E7
E7
63
62
46
C6
ENDCHAR
STARTCHAR $2020
ENCODING 8224
SWIDTH 560 0
DWIDTH 14 0
BBX 12 23 1 -5
BITMAP
0600
0600
0600
0600
0600
0600
FFF0
FFF0
0600
0600
0600
0600
0600
0600
0600
0600
0600
0600
0600
0600
0600
0600
0600
ENDCHAR
STARTCHAR $2021
ENCODING 8225
SWIDTH 560 0
DWIDTH 14 0
BBX 12 23 1 -5
BITMAP
0600
0600
0600
0600
0600
0600
FFF0
FFF0
0600
0600
0600
0600
0600
0600
0600
FFF0
FFF0
0600
0600
0600
0600
0600
0600
ENDCHAR
STARTCHAR $2022
ENCODING 8226
SWIDTH 320 0
DWIDTH 8 0
BBX 4 5 2 4
BITMAP
60
F0
F0
F0
40
ENDCHAR
STARTCHAR $2026
ENCODING 8230
SWIDTH 680 0
DWIDTH 17 0
BBX 15 3 1 0
BITMAP
E38E
E38E
638E
ENDCHAR
STARTCHAR $2030
ENCODING 8240
SWIDTH 1200 0
DWIDTH 30 0
BBX 28 18 1 0
BITMAP
3C030000
7E020000
C3060000
C30C0000
C3080000
C3180000
C3300000
66200000
7E600000
00C7C3E0
008CC630
01986C30
03186C10
03182C10
06186C10
0C186430
0C0FC760
180783C0
ENDCHAR
STARTCHAR $2032
ENCODING 8242
SWIDTH 200 0
DWIDTH 5 0
BBX 2 7 2 11
BITMAP
C0
C0
C0
C0
C0
C0
80
ENDCHAR
STARTCHAR $2033
ENCODING 8243
SWIDTH 400 0
DWIDTH 10 0
BBX 6 7 2 11
BITMAP
CC
CC
CC
CC
CC
CC
8C
ENDCHAR
STARTCHAR $2039
ENCODING 8249
SWIDTH 320 0
DWIDTH 8 0
BBX 6 10 1 2
BITMAP
0C
18
30
70
60
E0
60
30
18
1C
ENDCHAR
STARTCHAR $203A
ENCODING 8250
SWIDTH 320 0
DWIDTH 8 0
BBX 5 10 1 2
BITMAP
C0
60
70
30
18
18
38
30
60
C0
ENDCHAR
STARTCHAR $2044
ENCODING 8260
SWIDTH 160 0
DWIDTH 4 0
BBX 13 18 -4 0
BITMAP
0018
0030
0020
0060
00C0
0080
0180
0300
0200
0600
0C00
0800
1800
3000
2000
6000
C000
8000
ENDCHAR
STARTCHAR $2052
ENCODING 8274
SWIDTH 520 0
DWIDTH 13 0
BBX 10 18 2 0
BITMAP
E180
E300
C300
0300
0600
0600
0600
0C00
0C00
0800
1800
1800
1000
3000
3000
2180
61C0
6180
ENDCHAR
STARTCHAR $2070
ENCODING 8304
SWIDTH 440 0
DWIDTH 11 0
BBX 9 11 1 8
BITMAP
3E00
7F00
C300
C180
C180
8180
C180
C180
C300
7F00
3C00
ENDCHAR
STARTCHAR $2074
ENCODING 8308
SWIDTH 440 0
DWIDTH 11 0
BBX 9 10 1 9
BITMAP
0C00
1800
1800
3000
6600
4600
C600
FF80
0600
0600
ENDCHAR
STARTCHAR $2075
ENCODING 8309
SWIDTH 440 0
DWIDTH 11 0
BBX 9 11 1 8
BITMAP
7F00
6000
6000
4000
4000
7E00
0F00
0180
0100
FF00
7E00
ENDCHAR
STARTCHAR $2076
ENCODING 8310
SWIDTH 440 0
DWIDTH 11 0
BBX 9 11 1 8
BITMAP
1F00
3F00
6000
C000
C000
DE00
F300
C180
C180
6180
3F00
ENDCHAR
STARTCHAR $2077
ENCODING 8311
SWIDTH 440 0
DWIDTH 11 0
BBX 9 10 1 9
BITMAP
FF80
8180
8300
0300
0600
0600
0C00
0C00
1800
1800
ENDCHAR
STARTCHAR $2078
ENCODING 8312
SWIDTH 440 0
DWIDTH 11 0
BBX 9 11 1 8
BITMAP
3E00
7300
C180
C180
E300
7F00
7700
C180
C180
F780
7E00
ENDCHAR
STARTCHAR $2079
ENCODING 8313
SWIDTH 440 0
DWIDTH 11 0
BBX 9 11 1 8
BITMAP
3C00
6700
C300
C180
C180
C380
7F80
0180
0300
0700
FE00
ENDCHAR
STARTCHAR $2080
ENCODING 8320
SWIDTH 440 0
DWIDTH 11 0
BBX 9 11 1 -3
BITMAP
3E00
7F00
C300
C180
C180
8180
C180
C180
C300
7F00
3C00
ENDCHAR
STARTCHAR $2081
ENCODING 8321
SWIDTH 440 0
DWIDTH 11 0
BBX 7 11 2 -3
BITMAP
F8
18
18
18
18
18
18
18
18
18
FE
ENDCHAR
STARTCHAR $2082
ENCODING 8322
SWIDTH 440 0
DWIDTH 11 0
BBX 8 11 1 -3
BITMAP
7C
FF
03
03
03
06
0C
18
30
60
FF
ENDCHAR
STARTCHAR $2083
ENCODING 8323
SWIDTH 440 0
DWIDTH 11 0
BBX 9 11 1 -3
BITMAP
FF00
0300
0600
0C00
1800
1E00
0300
0180
8100
FF00
7E00
ENDCHAR
STARTCHAR $2084
ENCODING 8324
SWIDTH 440 0
DWIDTH 11 0
BBX 9 11 1 -3
BITMAP
0C00
0800
1800
3000
6600
4600
C600
FF80
0600
0600
0600
ENDCHAR
STARTCHAR $2085
ENCODING 8325
SWIDTH 440 0
DWIDTH 11 0
BBX 9 11 1 -3
BITMAP
7F00
6000
6000
4000
4000
7F00
0300
0180
8100
FF00
7E00
ENDCHAR
STARTCHAR $2086
ENCODING 8326
SWIDTH 440 0
DWIDTH 11 0
BBX 9 11 1 -3
BITMAP
1F00
7F00
6000
C000
DE00
F300
C180
C180
4180
7300
3E00
ENDCHAR
STARTCHAR $2087
ENCODING 8327
SWIDTH 440 0
DWIDTH 11 0
BBX 9 11 1 -3
BITMAP
FF80
8180
8300
0300
0600
0600
0C00
0C00
1800
1800
3000
ENDCHAR
STARTCHAR $2088
ENCODING 8328
SWIDTH 440 0
DWIDTH 11 0
BBX 9 11 1 -3
BITMAP
3E00
7700
C180
C180
6700
7E00
C380
C180
C180
E380
3E00
ENDCHAR
STARTCHAR $2089
ENCODING 8329
SWIDTH 440 0
DWIDTH 11 0
BBX 9 11 1 -3
BITMAP
3C00
E700
C300
C180
C380
7F80
0180
0100
0300
7E00
7C00
ENDCHAR
STARTCHAR $20A1
ENCODING 8353
SWIDTH 720 0
DWIDTH 18 0
BBX 16 24 1 -3
BITMAP
0066
0044
004C
03FC
0FFE
1F8F
389A
7198
7190
6110
E130
E330
E320
E220
6260
7660
7640
3C42
1FCF
0FFE
0FF8
0880
0980
1980
ENDCHAR
STARTCHAR $20A3
ENCODING 8355
SWIDTH 680 0
DWIDTH 17 0
BBX 15 18 1 0
BITMAP
3FFE
3FFE
3800
3800
3800
3800
3800
3800
3800
3FFC
3FFC
3800
3800
3800
FFC0
3800
3800
3800
ENDCHAR
STARTCHAR $20A4
ENCODING 8356
SWIDTH 640 0
DWIDTH 16 0
BBX 15 18 1 0
BITMAP
01F8
07FE
0F0C
1C00
1800
1800
3800
FFF0
3800
3800
FFF0
3800
3800
3800
3800
3800
FFFC
FFFC
ENDCHAR
STARTCHAR $20A6
ENCODING 8358
SWIDTH 880 0
DWIDTH 22 0
BBX 20 18 1 0
BITMAP
3801C0
3C01C0
3C01C0
3E01C0
3F01C0
3B81C0
3BC1C0
FFFFF0
38E1C0
3871C0
FFFFF0
383DC0
381DC0
380FC0
3807C0
3803C0
3803C0
3801C0
ENDCHAR
STARTCHAR $20A7
ENCODING 8359
SWIDTH 1640 0
DWIDTH 41 0
BBX 37 18 3 0
BITMAP
FFC0000000
FFF0300000
C0F8300000
C038300000
C018300000
C01CFF07E0
C01CFF0FF8
C01C301C10
C01C301800
C038301C00
C078301FC0
FFF03007F0
FFC0300078
C000300018
C000300018
C000381838
C0003FBFF0
C0000F0FE0
ENDCHAR
STARTCHAR $20A9
ENCODING 8361
SWIDTH 1200 0
DWIDTH 30 0
BBX 28 18 1 0
BITMAP
E0060070
600F0060
700F00E0
700F00E0
301F80C0
381981C0
381981C0
FFFFFFF0
1C30C380
1C70C300
FFFFFFF0
0E606700
0EE06600
06C07600
07C03E00
07C03C00
03803C00
03801C00
ENDCHAR
STARTCHAR $20AB
ENCODING 8363
SWIDTH 680 0
DWIDTH 17 0
BBX 16 22 1 -3
BITMAP
001C
001C
03FF
001C
001C
001C
0F9C
3FFC
787C
703C
E01C
E01C
C01C
E01C
E01C
703C
787C
3FFC
0F9C
0000
0000
7FFC
ENDCHAR
STARTCHAR $20AC
ENCODING 8364
SWIDTH 800 0
DWIDTH 20 0
BBX 18 18 1 0
BITMAP
00FE00
03FF80
07C7C0
0F0080
0C0000
1C0000
180000
FFF800
380000
380000
FFF800
180000
1C0000
1E0000
0F0080
07C3C0
03FF80
00FE00
ENDCHAR
STARTCHAR $20AD
ENCODING 8365
SWIDTH 680 0
DWIDTH 17 0
BBX 15 18 1 0
BITMAP
380E
381C
3838
3838
3870
38E0
39C0
3B80
FFFC
FFFC
3B80
39C0
38E0
3870
3870
3838
381C
380E
ENDCHAR
STARTCHAR $20AE
ENCODING 8366
SWIDTH 680 0
DWIDTH 17 0
BBX 15 18 1 0
BITMAP
FFFE
FFFE
0380
0380
0380
0398
03F0
03C0
0788
1FB8
33F0
03C0
0780
1F80
3380
0380
0380
0380
ENDCHAR
STARTCHAR $20B1
ENCODING 8369
SWIDTH 840 0
DWIDTH 21 0
BBX 19 18 1 0
BITMAP
3FF800
3FFE00
381F00
380700
FFFFE0
380380
380380
380380
FFFFE0
380F00
3FFE00
3FF800
380000
380000
380000
380000
380000
380000
ENDCHAR
STARTCHAR $20B2
ENCODING 8370
SWIDTH 760 0
DWIDTH 19 0
BBX 16 24 1 -3
BITMAP
00C0
00C0
00C0
03F8
0FFE
1FDF
3CC7
78C0
70C0
60C0
E0C0
E0C0
E0C3
E0C3
E0C3
70C3
70C3
38C3
1FCF
0FFE
03F8
00C0
00C0
00C0
ENDCHAR
STARTCHAR $20B4
ENCODING 8372
SWIDTH 840 0
DWIDTH 21 0
BBX 16 18 2 0
BITMAP
07E0
1FF8
183C
000E
000E
000E
001C
FFFF
0000
0000
FFFF
3800
3000
3000
3802
3C1E
1FFC
07F0
ENDCHAR
STARTCHAR $20B5
ENCODING 8373
SWIDTH 720 0
DWIDTH 18 0
BBX 16 24 1 -3
BITMAP
00C0
00C0
00C0
03F8
0FFE
1EDF
38C2
70C0
70C0
60C0
E0C0
E0C0
E0C0
E0C0
60C0
70C0
70C0
38C2
1ECF
0FFE
03F8
00C0
00C0
00C0
ENDCHAR
STARTCHAR $20B8
ENCODING 8376
SWIDTH 720 0
DWIDTH 18 0
BBX 14 18 2 0
BITMAP
FFFC
0000
0000
0000
FFFC
0300
0300
0300
0300
0300
0300
0300
0300
0300
0300
0300
0300
0300
ENDCHAR
STARTCHAR $20B9
ENCODING 8377
SWIDTH 720 0
DWIDTH 18 0
BBX 16 18 1 0
BITMAP
FFFF
01E0
0070
0038
FFFF
0018
0018
0038
0038
00F0
3FE0
3F80
01C0
00E0
00E0
0070
0038
0038
ENDCHAR
STARTCHAR $20BA
ENCODING 8378
SWIDTH 720 0
DWIDTH 18 0
BBX 16 18 1 0
BITMAP
3800
3810
3870
39C0
3F00
3C30
38E0
FB80
BE00
3C07
7807
F806
3806
380E
381C
3878
3FF0
3F80
ENDCHAR
STARTCHAR $20BC
ENCODING 8380
SWIDTH 920 0
DWIDTH 23 0
BBX 17 21 3 0
BITMAP
008000
008000
008000
07F000
1FFC00
3C9E00
708700
608300
E08380
C08180
C08180
C08180
C08180
C08180
C08180
C08180
C08180
C08180
C00180
C00180
C00180
ENDCHAR
STARTCHAR $20BD
ENCODING 8381
SWIDTH 760 0
DWIDTH 19 0
BBX 16 18 1 0
BITMAP
3FF8
3FFC
381E
3807
3803
3803
3803
3803
3807
380E
3FFE
3FF8
3800
3800
FFC0
3800
3800
3800
ENDCHAR
STARTCHAR $2113
ENCODING 8467
SWIDTH 480 0
DWIDTH 12 0
BBX 10 18 1 0
BITMAP
0780
0FC0
08C0
18C0
18C0
1880
1180
1100
3200
3600
3C00
3000
6000
E000
2080
3180
3F00
1E00
ENDCHAR
STARTCHAR $2116
ENCODING 8470
SWIDTH 1200 0
DWIDTH 30 0
BBX 26 18 3 0
BITMAP
C00E1F00
E00E3B80
F00E60C0
F00E60C0
F80E60C0
DC0E60C0
CE0E3B80
CE0E1F00
C70E0000
C38E0000
C1CE7F80
C0EE7F80
C0EE0000
C07E0000
C03E0000
C01E0000
C01E0000
C00E0000
ENDCHAR
STARTCHAR $2122
ENCODING 8482
SWIDTH 1040 0
DWIDTH 26 0
BBX 23 10 0 8
BITMAP
FF9806
0C1806
0C1C0E
0C1E1E
0C1A16
0C1B36
0C19E6
0C19E6
0C18C6
0C1806
ENDCHAR
STARTCHAR $2126
ENCODING 8486
SWIDTH 880 0
DWIDTH 22 0
BBX 22 18 0 0
BITMAP
00FC00
03FF80
07C7C0
0E01E0
1C00E0
180070
380030
380030
300030
300030
380030
380030
180070
1C0060
0E00E0
0703C0
FF83FC
FF83FC
ENDCHAR
STARTCHAR $212A
ENCODING 8490
SWIDTH 720 0
DWIDTH 18 0
BBX 15 18 3 0
BITMAP
C01C
C038
C070
C0E0
C1C0
C380
C700
C700
CE00
DF00
FB80
F1C0
E1E0
C0E0
C070
C038
C01C
C00E
ENDCHAR
STARTCHAR $212B
ENCODING 8491
SWIDTH 720 0
DWIDTH 18 0
BBX 18 25 0 0
BITMAP
01E000
013000
021000
013000
01E000
000000
000000
00E000
01E000
01E000
03B000
033000
073800
061800
061C00
0C0C00
0C0E00
1C0600
1FFE00
3FFF00
300300
300380
700180
6001C0
E001C0
ENDCHAR
STARTCHAR $212E
ENCODING 8494
SWIDTH 880 0
DWIDTH 22 0
BBX 20 18 1 0
BITMAP
01F800
060700
180180
3000C0
7000E0
7000E0
7000E0
F000F0
F000F0
FFFF00
F00000
700000
700000
300000
3000C0
180180
040200
03FC00
ENDCHAR
STARTCHAR $2153
ENCODING 8531
SWIDTH 1040 0
DWIDTH 26 0
BBX 23 18 2 0
BITMAP
F800C0
180180
180300
180300
180600
180C00
180C00
181800
1833FC
183018
FE6030
00C060
00C07C
01800C
030006
030206
0603FC
0C01F8
ENDCHAR
STARTCHAR $2154
ENCODING 8532
SWIDTH 1040 0
DWIDTH 26 0
BBX 24 18 1 0
BITMAP
7C0060
FF00C0
030180
030180
030300
060600
1C0600
380DFE
601806
FF180C
003018
006030
00603E
00C006
018003
018103
0301FE
0600FC
ENDCHAR
STARTCHAR $215B
ENCODING 8539
SWIDTH 1040 0
DWIDTH 26 0
BBX 23 18 2 0
BITMAP
F800C0
180180
180300
180300
180600
180C00
180C00
1818F8
1831DC
FE3306
006306
00C18C
00C1FC
018306
030306
030306
06038E
0C00F8
ENDCHAR
STARTCHAR $215C
ENCODING 8540
SWIDTH 1040 0
DWIDTH 26 0
BBX 24 18 1 0
BITMAP
FF0060
0300C0
060180
0C0180
180300
1F0600
030600
018C7C
C318EE
FE1983
003183
0060CE
0060FE
00C183
018183
018183
0301C7
06007C
ENDCHAR
STARTCHAR $215D
ENCODING 8541
SWIDTH 1040 0
DWIDTH 26 0
BBX 24 18 1 0
BITMAP
7F0060
6000C0
600180
400180
400300
7E0600
0F0600
018C00
0198FE
FF1987
7E3183
0061C7
00607C
00C1EF
018183
018183
0301EF
06007C
ENDCHAR
STARTCHAR $215E
ENCODING 8542
SWIDTH 1040 0
DWIDTH 26 0
BBX 24 18 1 0
BITMAP
FF8060
8180C0
830180
030180
060300
060600
0C0600
0C0C7C
1818EE
181983
303183
0060CE
0060FE
00C183
018183
018183
0301C7
06007C
ENDCHAR
STARTCHAR $2190
ENCODING 8592
SWIDTH 600 0
DWIDTH 15 0
BBX 10 10 3 2
BITMAP
3800
3000
6000
E000
FFC0
FFC0
E000
6000
3000
3800
ENDCHAR
STARTCHAR $2191
ENCODING 8593
SWIDTH 600 0
DWIDTH 15 0
BBX 11 11 2 1
BITMAP
0400
1F00
3F80
E5E0
C460
0400
0400
0400
0400
0400
0400
ENDCHAR
STARTCHAR $2192
ENCODING 8594
SWIDTH 600 0
DWIDTH 15 0
BBX 10 10 2 2
BITMAP
0600
0300
0180
01C0
FFC0
FFC0
01C0
0180
0300
0700
ENDCHAR
STARTCHAR $2193
ENCODING 8595
SWIDTH 600 0
DWIDTH 15 0
BBX 10 11 3 1
BITMAP
0C00
0C00
0C00
0C00
0C00
0C00
8CC0
EDC0
7F00
1E00
0C00
ENDCHAR
STARTCHAR $2194
ENCODING 8596
SWIDTH 720 0
DWIDTH 18 0
BBX 16 10 1 2
BITMAP
1C18
181C
300C
7006
7FFF
FFFF
7006
300C
181C
1818
ENDCHAR
STARTCHAR $2195
ENCODING 8597
SWIDTH 600 0
DWIDTH 15 0
BBX 11 15 2 1
BITMAP
0E00
1F00
7F80
E4E0
C460
0400
0400
0400
0400
0420
C460
F5E0
3F80
1F00
0400
ENDCHAR
STARTCHAR $2196
ENCODING 8598
SWIDTH 600 0
DWIDTH 15 0
BBX 9 9 3 2
BITMAP
0E00
7F00
7000
F800
DC00
CE00
C700
8380
0180
ENDCHAR
STARTCHAR $2197
ENCODING 8599
SWIDTH 600 0
DWIDTH 15 0
BBX 9 10 3 2
BITMAP
3800
7F00
0380
0780
0F80
1D80
3880
7080
E000
4000
ENDCHAR
STARTCHAR $2198
ENCODING 8600
SWIDTH 600 0
DWIDTH 15 0
BBX 9 10 3 2
BITMAP
4000
E000
7080
3880
1C80
0F80
0780
0380
7F00
3800
ENDCHAR
STARTCHAR $2199
ENCODING 8601
SWIDTH 600 0
DWIDTH 15 0
BBX 9 9 3 3
BITMAP
0180
8380
C700
CE00
DC00
F800
7000
7F00
0E00
ENDCHAR
STARTCHAR $2202
ENCODING 8706
SWIDTH 720 0
DWIDTH 18 0
BBX 14 18 2 0
BITMAP
7F80
7FC0
00F0
0070
0038
0018
0018
1F9C
3FDC
707C
E03C
C03C
C018
C038
E038
7070
3FE0
1F80
ENDCHAR
STARTCHAR $2205
ENCODING 8709
SWIDTH 600 0
DWIDTH 15 0
BBX 12 11 1 2
BITMAP
0010
0F90
3FE0
3060
61B0
6330
6430
6820
3060
7FC0
CF80
ENDCHAR
STARTCHAR $2206
ENCODING 8710
SWIDTH 720 0
DWIDTH 18 0
BBX 18 18 0 0
BITMAP
00E000
01E000
01E000
03B000
033000
073800
061800
061C00
0E0C00
0C0E00
1C0E00
180600
380700
300300
300380
700180
7FFFC0
FFFFC0
ENDCHAR
STARTCHAR $220F
ENCODING 8719
SWIDTH 800 0
DWIDTH 20 0
BBX 15 23 3 -5
BITMAP
FFFE
FFFE
C00E
C00E
C00E
C00E
C00E
C00E
C00E
C00E
C00E
C00E
C00E
C00E
C00E
C00E
C00E
C00E
C00E
C00E
C00E
C00E
C00E
ENDCHAR
STARTCHAR $2211
ENCODING 8721
SWIDTH 640 0
DWIDTH 16 0
BBX 15 23 1 -5
BITMAP
FFFE
FFFE
7000
3800
1C00
1C00
0E00
0700
0380
01C0
01E0
00E0
01E0
01C0
0380
0700
0E00
1C00
3800
3800
7000
FFFE
FFFE
ENDCHAR
STARTCHAR $2212
ENCODING 8722
SWIDTH 600 0
DWIDTH 15 0
BBX 11 2 2 8
BITMAP
FFE0
FFE0
ENDCHAR
STARTCHAR $2215
ENCODING 8725
SWIDTH 360 0
DWIDTH 9 0
BBX 11 24 -1 -3
BITMAP
0060
00C0
00C0
01C0
0180
0180
0380
0300
0300
0700
0600
0600
0C00
0C00
0C00
1800
1800
1800
3000
3000
3000
6000
6000
E000
ENDCHAR
STARTCHAR $2219
ENCODING 8729
SWIDTH 280 0
DWIDTH 7 0
BBX 3 3 2 7
BITMAP
E0
E0
E0
ENDCHAR
STARTCHAR $221A
ENCODING 8730
SWIDTH 800 0
DWIDTH 20 0
BBX 18 24 2 -5
BITMAP
0000C0
0001C0
000180
000180
000380
000300
000300
000700
000600
F80600
F80E00
1C0C00
1C0C00
0C1C00
0E1800
061800
063800
073000
033000
037000
03E000
01E000
01E000
01C000
ENDCHAR
STARTCHAR $221E
ENCODING 8734
SWIDTH 920 0
DWIDTH 23 0
BBX 21 10 1 4
BITMAP
1E03C0
3F8FF0
61DC30
C0F818
C07018
C07018
C07818
61DC30
7F8FF0
1F07C0
ENDCHAR
STARTCHAR $222B
ENCODING 8747
SWIDTH 400 0
DWIDTH 10 0
BBX 12 24 -1 -5
BITMAP
01E0
03F0
0700
0600
0600
0600
0600
0600
0600
0600
0600
0600
0600
0600
0600
0600
0600
0600
0600
0600
0600
0E00
FC00
7800
ENDCHAR
STARTCHAR $2248
ENCODING 8776
SWIDTH 600 0
DWIDTH 15 0
BBX 12 9 1 5
BITMAP
7C30
6730
43E0
C1C0
0000
3810
7E30
47F0
C1E0
ENDCHAR
STARTCHAR $2260
ENCODING 8800
SWIDTH 600 0
DWIDTH 15 0
BBX 11 14 2 2
BITMAP
00C0
0180
0180
FFE0
FFE0
0600
0600
0C00
1C00
FFE0
FFE0
3000
6000
6000
ENDCHAR
STARTCHAR $2264
ENCODING 8804
SWIDTH 600 0
DWIDTH 15 0
BBX 11 15 2 0
BITMAP
0020
01E0
0FC0
3E00
F000
E000
FC00
1F00
07E0
00E0
0000
0000
0000
FFE0
FFE0
ENDCHAR
STARTCHAR $2265
ENCODING 8805
SWIDTH 600 0
DWIDTH 15 0
BBX 11 15 2 0
BITMAP
8000
F000
7C00
0F80
03E0
00E0
07C0
3F00
F800
C000
0000
0000
0000
FFE0
FFE0
ENDCHAR
STARTCHAR $25A0
ENCODING 9632
SWIDTH 600 0
DWIDTH 15 0
BBX 9 10 3 2
BITMAP
FF80
FF80
FF80
FF80
FF80
FF80
FF80
FF80
FF80
FF80
ENDCHAR
STARTCHAR $25A1
ENCODING 9633
SWIDTH 600 0
DWIDTH 15 0
BBX 9 9 3 2
BITMAP
FF80
8080
8080
8080
8080
8080
8080
8080
FF80
ENDCHAR
STARTCHAR $25B2
ENCODING 9650
SWIDTH 600 0
DWIDTH 15 0
BBX 11 11 2 1
BITMAP
0400
0400
0E00
0E00
1F00
1F00
3F80
3F80
7FC0
7FC0
FFE0
ENDCHAR
STARTCHAR $25B3
ENCODING 9651
SWIDTH 600 0
DWIDTH 15 0
BBX 11 11 2 1
BITMAP
0400
0400
0E00
0A00
1B00
1100
3180
2080
60C0
4040
FFE0
ENDCHAR
STARTCHAR $25B6
ENCODING 9654
SWIDTH 600 0
DWIDTH 15 0
BBX 10 10 3 1
BITMAP
8000
E000
F800
FE00
FF80
FFC0
FF00
FC00
F000
C000
ENDCHAR
STARTCHAR $25B7
ENCODING 9655
SWIDTH 600 0
DWIDTH 15 0
BBX 10 10 3 1
BITMAP
8000
E000
B800
8E00
8380
80C0
8300
8C00
F000
C000
ENDCHAR
STARTCHAR $25BC
ENCODING 9660
SWIDTH 600 0
DWIDTH 15 0
BBX 11 11 2 1
BITMAP
FFE0
7FC0
7FC0
3F80
3F80
1F00
1F00
0E00
0E00
0400
0400
ENDCHAR
STARTCHAR $25BD
ENCODING 9661
SWIDTH 600 0
DWIDTH 15 0
BBX 11 11 2 1
BITMAP
FFE0
4040
60C0
2080
3180
1100
1B00
0A00
0E00
0400
0400
ENDCHAR
STARTCHAR $25C0
ENCODING 9664
SWIDTH 600 0
DWIDTH 15 0
BBX 10 10 2 1
BITMAP
0040
01C0
07C0
1FC0
7FC0
FFC0
3FC0
0FC0
03C0
00C0
ENDCHAR
STARTCHAR $25C1
ENCODING 9665
SWIDTH 600 0
DWIDTH 15 0
BBX 10 10 2 1
BITMAP
0040
01C0
0740
1C40
7040
C040
3040
0C40
0340
00C0
ENDCHAR
STARTCHAR $25C6
ENCODING 9670
SWIDTH 600 0
DWIDTH 15 0
BBX 13 13 1 0
BITMAP
0200
0700
0F80
1FC0
3FE0
7FF0
FFF8
7FF0
3FE0
1FC0
0F80
0700
0200
ENDCHAR
STARTCHAR $25C7
ENCODING 9671
SWIDTH 600 0
DWIDTH 15 0
BBX 13 13 1 0
BITMAP
0200
0700
0D80
18C0
3060
6030
C018
6030
3060
18C0
0D80
0700
0200
ENDCHAR
STARTCHAR $25CA
ENCODING 9674
SWIDTH 520 0
DWIDTH 13 0
BBX 10 15 1 0
BITMAP
0400
0C00
0E00
1B00
3300
2180
60C0
C040
40C0
6080
3180
3300
1E00
0E00
0C00
ENDCHAR
STARTCHAR $27E8
ENCODING 10216
SWIDTH 320 0
DWIDTH 8 0
BBX 6 24 1 -5
BITMAP
0C
1C
18
18
38
30
30
70
60
60
E0
C0
C0
E0
60
60
70
30
30
38
18
18
1C
0C
ENDCHAR
STARTCHAR $27E9
ENCODING 10217
SWIDTH 320 0
DWIDTH 8 0
BBX 6 24 1 -5
BITMAP
C0
60
60
60
30
30
30
38
18
18
1C
0C
0C
1C
18
18
18
30
30
30
60
60
60
C0
ENDCHAR
STARTCHAR A78B
ENCODING 42891
SWIDTH 240 0
DWIDTH 6 0
BBX 2 10 2 8
BITMAP
C0
C0
C0
C0
C0
C0
C0
C0
C0
C0
ENDCHAR
STARTCHAR A78C
ENCODING 42892
SWIDTH 240 0
DWIDTH 6 0
BBX 2 9 2 7
BITMAP
C0
C0
C0
C0
C0
C0
C0
C0
C0
ENDCHAR
STARTCHAR FB01
ENCODING 64257
SWIDTH 720 0
DWIDTH 18 0
BBX 16 19 0 0
BITMAP
0787
0F87
1C06
1800
1800
1800
FF86
FF86
1806
1806
1806
1806
1806
1806
1806
1806
1806
1806
1806
ENDCHAR
STARTCHAR FB02
ENCODING 64258
SWIDTH 640 0
DWIDTH 16 0
BBX 13 19 0 0
BITMAP
0798
0F98
1C18
1818
1818
1818
FF98
FF98
1818
1818
1818
1818
1818
1818
1818
1818
1818
1818
1818
ENDCHAR
ENDFONT
